{
    "asset" : {
        "generator" : "Khronos glTF Blender I/O v1.7.33",
        "version" : "2.0"
    },
    "scene" : 0,
    "scenes" : [
        {
            "name" : "Scene",
            "nodes" : [
                0
            ]
        }
    ],
    "nodes" : [
        {
            "mesh" : 0,
            "name" : "Circle.002"
        }
    ],
    "materials" : [
        {
            "doubleSided" : true,
            "name" : "Material.001",
            "pbrMetallicRoughness" : {
                "baseColorFactor" : [
                    1,
                    0,
                    0,
                    1
                ],
                "metallicFactor" : 0,
                "roughnessFactor" : 0.5
            }
        }
    ],
    "meshes" : [
        {
            "name" : "Circle.002",
            "primitives" : [
                {
                    "attributes" : {
                        "POSITION" : 0,
                        "NORMAL" : 1,
                        "TEXCOORD_0" : 2
                    },
                    "indices" : 3,
                    "material" : 0
                }
            ]
        }
    ],
    "accessors" : [
        {
            "bufferView" : 0,
            "componentType" : 5126,
            "count" : 211,
            "max" : [
                1.9606670141220093,
                0.42547667026519775,
                1.9606670141220093
            ],
            "min" : [
                -1.9606670141220093,
                0.3541228771209717,
                -1.9606670141220093
            ],
            "type" : "VEC3"
        },
        {
            "bufferView" : 1,
            "componentType" : 5126,
            "count" : 211,
            "type" : "VEC3"
        },
        {
            "bufferView" : 2,
            "componentType" : 5126,
            "count" : 211,
            "type" : "VEC2"
        },
        {
            "bufferView" : 3,
            "componentType" : 5123,
            "count" : 372,
            "type" : "SCALAR"
        }
    ],
    "bufferViews" : [
        {
            "buffer" : 0,
            "byteLength" : 2532,
            "byteOffset" : 0
        },
        {
            "buffer" : 0,
            "byteLength" : 2532,
            "byteOffset" : 2532
        },
        {
            "buffer" : 0,
            "byteLength" : 1688,
            "byteOffset" : 5064
        },
        {
            "buffer" : 0,
            "byteLength" : 744,
            "byteOffset" : 6752
        }
    ],
    "buffers" : [
        {
            "byteLength" : 7496,
            "uri" : "data:application/octet-stream;base64,"
        }
    ]
}
