{
    "asset" : {
        "generator" : "Khronos glTF Blender I/O v1.7.33",
        "version" : "2.0"
    },
    "scene" : 0,
    "scenes" : [
        {
            "name" : "Scene",
            "nodes" : [
                0
            ]
        }
    ],
    "nodes" : [
        {
            "mesh" : 0,
            "name" : "Plane.005"
        }
    ],
    "meshes" : [
        {
            "name" : "Plane.005",
            "primitives" : [
                {
                    "attributes" : {
                        "POSITION" : 0,
                        "NORMAL" : 1,
                        "TEXCOORD_0" : 2
                    },
                    "indices" : 3
                }
            ]
        }
    ],
    "accessors" : [
        {
            "bufferView" : 0,
            "componentType" : 5126,
            "count" : 177,
            "max" : [
                1.0499999523162842,
                0.7450137734413147,
                0.550000011920929
            ],
            "min" : [
                -1.0499999523162842,
                0.7349861264228821,
                -0.550000011920929
            ],
            "type" : "VEC3"
        },
        {
            "bufferView" : 1,
            "componentType" : 5126,
            "count" : 177,
            "type" : "VEC3"
        },
        {
            "bufferView" : 2,
            "componentType" : 5126,
            "count" : 177,
            "type" : "VEC2"
        },
        {
            "bufferView" : 3,
            "componentType" : 5123,
            "count" : 276,
            "type" : "SCALAR"
        }
    ],
    "bufferViews" : [
        {
            "buffer" : 0,
            "byteLength" : 2124,
            "byteOffset" : 0
        },
        {
            "buffer" : 0,
            "byteLength" : 2124,
            "byteOffset" : 2124
        },
        {
            "buffer" : 0,
            "byteLength" : 1416,
            "byteOffset" : 4248
        },
        {
            "buffer" : 0,
            "byteLength" : 552,
            "byteOffset" : 5664
        }
    ],
    "buffers" : [
        {
            "byteLength" : 6216,
            "uri" : "data:application/octet-stream;base64,"
        }
    ]
}
