{
    "asset" : {
        "generator" : "Khronos glTF Blender I/O v1.7.33",
        "version" : "2.0"
    },
    "scene" : 0,
    "scenes" : [
        {
            "name" : "Scene",
            "nodes" : [
                0
            ]
        }
    ],
    "nodes" : [
        {
            "mesh" : 0,
            "name" : "Brep.003"
        }
    ],
    "materials" : [
        {
            "doubleSided" : true,
            "name" : "cf2be1de-b81c-4d69-9418-dde91d266086.006",
            "pbrMetallicRoughness" : {
                "baseColorFactor" : [
                    0.9803919792175293,
                    0.9803919792175293,
                    0.9803919792175293,
                    1
                ],
                "roughnessFactor" : 0.5
            }
        }
    ],
    "meshes" : [
        {
            "name" : "mesh-b02b165f-4bb0-41c1-b7a8-8af698465f72",
            "primitives" : [
                {
                    "attributes" : {
                        "POSITION" : 0,
                        "NORMAL" : 1,
                        "TEXCOORD_0" : 2
                    },
                    "indices" : 3,
                    "material" : 0
                }
            ]
        }
    ],
    "accessors" : [
        {
            "bufferView" : 0,
            "componentType" : 5126,
            "count" : 844,
            "max" : [
                0.7749974727630615,
                0.755637526512146,
                0.7663650512695312
            ],
            "min" : [
                -0.7750025987625122,
                0.7356375455856323,
                -0.7836349010467529
            ],
            "type" : "VEC3"
        },
        {
            "bufferView" : 1,
            "componentType" : 5126,
            "count" : 844,
            "type" : "VEC3"
        },
        {
            "bufferView" : 2,
            "componentType" : 5126,
            "count" : 844,
            "type" : "VEC2"
        },
        {
            "bufferView" : 3,
            "componentType" : 5123,
            "count" : 2424,
            "type" : "SCALAR"
        }
    ],
    "bufferViews" : [
        {
            "buffer" : 0,
            "byteLength" : 10128,
            "byteOffset" : 0
        },
        {
            "buffer" : 0,
            "byteLength" : 10128,
            "byteOffset" : 10128
        },
        {
            "buffer" : 0,
            "byteLength" : 6752,
            "byteOffset" : 20256
        },
        {
            "buffer" : 0,
            "byteLength" : 4848,
            "byteOffset" : 27008
        }
    ],
    "buffers" : [
        {
            "byteLength" : 31856,
            "uri" : "data:application/octet-stream;base64,"
        }
    ]
}
