{
    "asset" : {
        "generator" : "Khronos glTF Blender I/O v1.7.33",
        "version" : "2.0"
    },
    "scene" : 0,
    "scenes" : [
        {
            "name" : "Scene",
            "nodes" : [
                0
            ]
        }
    ],
    "nodes" : [
        {
            "mesh" : 0,
            "name" : "Plane.013"
        }
    ],
    "materials" : [
        {
            "doubleSided" : true,
            "name" : "top.006",
            "pbrMetallicRoughness" : {
                "baseColorFactor" : [
                    1,
                    0,
                    0,
                    1
                ],
                "metallicFactor" : 0,
                "roughnessFactor" : 0.5
            }
        }
    ],
    "meshes" : [
        {
            "name" : "Plane.013",
            "primitives" : [
                {
                    "attributes" : {
                        "POSITION" : 0,
                        "NORMAL" : 1,
                        "TEXCOORD_0" : 2
                    },
                    "indices" : 3,
                    "material" : 0
                }
            ]
        }
    ],
    "accessors" : [
        {
            "bufferView" : 0,
            "componentType" : 5126,
            "count" : 775,
            "max" : [
                1.0499999523162842,
                0.7506893873214722,
                0.550000011920929
            ],
            "min" : [
                -1.0499999523162842,
                0.7306894063949585,
                -0.550000011920929
            ],
            "type" : "VEC3"
        },
        {
            "bufferView" : 1,
            "componentType" : 5126,
            "count" : 775,
            "type" : "VEC3"
        },
        {
            "bufferView" : 2,
            "componentType" : 5126,
            "count" : 775,
            "type" : "VEC2"
        },
        {
            "bufferView" : 3,
            "componentType" : 5123,
            "count" : 1044,
            "type" : "SCALAR"
        }
    ],
    "bufferViews" : [
        {
            "buffer" : 0,
            "byteLength" : 9300,
            "byteOffset" : 0
        },
        {
            "buffer" : 0,
            "byteLength" : 9300,
            "byteOffset" : 9300
        },
        {
            "buffer" : 0,
            "byteLength" : 6200,
            "byteOffset" : 18600
        },
        {
            "buffer" : 0,
            "byteLength" : 2088,
            "byteOffset" : 24800
        }
    ],
    "buffers" : [
        {
            "byteLength" : 26888,
            "uri" : "data:application/octet-stream;base64,"
        }
    ]
}
