{
    "asset" : {
        "generator" : "Khronos glTF Blender I/O v1.7.33",
        "version" : "2.0"
    },
    "scene" : 0,
    "scenes" : [
        {
            "name" : "Scene",
            "nodes" : [
                0,
                1,
                2,
                3
            ]
        }
    ],
    "nodes" : [
        {
            "mesh" : 0,
            "name" : "Brep.026",
            "scale" : [
                0.009999999776482582,
                0.009999999776482582,
                0.009999999776482582
            ]
        },
        {
            "mesh" : 1,
            "name" : "Brep.034",
            "scale" : [
                0.009999999776482582,
                0.009999999776482582,
                0.009999999776482582
            ]
        },
        {
            "mesh" : 2,
            "name" : "Brep.037",
            "scale" : [
                0.009999999776482582,
                0.009999999776482582,
                0.009999999776482582
            ]
        },
        {
            "mesh" : 3,
            "name" : "Brep.004"
        }
    ],
    "materials" : [
        {
            "doubleSided" : true,
            "name" : "Material-Plaster__1_",
            "pbrMetallicRoughness" : {
                "baseColorFactor" : [
                    0.7450979948043823,
                    0.7450979948043823,
                    0.7450979948043823,
                    1
                ],
                "roughnessFactor" : 0.5
            }
        }
    ],
    "meshes" : [
        {
            "name" : "mesh-a92a18f4-ef14-47cd-89bd-e4c443448b5a",
            "primitives" : [
                {
                    "attributes" : {
                        "POSITION" : 0,
                        "NORMAL" : 1,
                        "TEXCOORD_0" : 2
                    },
                    "indices" : 3,
                    "material" : 0
                }
            ]
        },
        {
            "name" : "mesh-c9aad356-3ed7-40f0-89a1-6d21d2aa7db5",
            "primitives" : [
                {
                    "attributes" : {
                        "POSITION" : 4,
                        "NORMAL" : 5,
                        "TEXCOORD_0" : 6
                    },
                    "indices" : 7,
                    "material" : 0
                }
            ]
        },
        {
            "name" : "mesh-dfcab54a-e043-4e26-861e-3f2b7947976a",
            "primitives" : [
                {
                    "attributes" : {
                        "POSITION" : 8,
                        "NORMAL" : 9,
                        "TEXCOORD_0" : 10
                    },
                    "indices" : 11,
                    "material" : 0
                }
            ]
        },
        {
            "name" : "mesh-a919dd46-1a57-4b7a-8abd-e745625ee26d",
            "primitives" : [
                {
                    "attributes" : {
                        "POSITION" : 12,
                        "NORMAL" : 13,
                        "TEXCOORD_0" : 14,
                        "TEXCOORD_1" : 15,
                        "TEXCOORD_2" : 16
                    },
                    "indices" : 17
                }
            ]
        }
    ],
    "accessors" : [
        {
            "bufferView" : 0,
            "componentType" : 5126,
            "count" : 4,
            "max" : [
                26.5247802734375,
                71.12643432617188,
                1218.121337890625
            ],
            "min" : [
                19.814422607421875,
                71.12643432617188,
                1212.4986572265625
            ],
            "type" : "VEC3"
        },
        {
            "bufferView" : 1,
            "componentType" : 5126,
            "count" : 4,
            "type" : "VEC3"
        },
        {
            "bufferView" : 2,
            "componentType" : 5126,
            "count" : 4,
            "type" : "VEC2"
        },
        {
            "bufferView" : 3,
            "componentType" : 5123,
            "count" : 6,
            "type" : "SCALAR"
        },
        {
            "bufferView" : 4,
            "componentType" : 5126,
            "count" : 6,
            "max" : [
                30.62896728515625,
                71.15126037597656,
                1014.8779296875
            ],
            "min" : [
                23.779388427734375,
                71.15126037597656,
                1008.6151733398438
            ],
            "type" : "VEC3"
        },
        {
            "bufferView" : 5,
            "componentType" : 5126,
            "count" : 6,
            "type" : "VEC3"
        },
        {
            "bufferView" : 6,
            "componentType" : 5126,
            "count" : 6,
            "type" : "VEC2"
        },
        {
            "bufferView" : 7,
            "componentType" : 5123,
            "count" : 6,
            "type" : "SCALAR"
        },
        {
            "bufferView" : 8,
            "componentType" : 5126,
            "count" : 6,
            "max" : [
                30.62896728515625,
                71.15126037597656,
                925.585205078125
            ],
            "min" : [
                23.779388427734375,
                71.15126037597656,
                919.3223876953125
            ],
            "type" : "VEC3"
        },
        {
            "bufferView" : 9,
            "componentType" : 5126,
            "count" : 6,
            "type" : "VEC3"
        },
        {
            "bufferView" : 10,
            "componentType" : 5126,
            "count" : 6,
            "type" : "VEC2"
        },
        {
            "bufferView" : 11,
            "componentType" : 5123,
            "count" : 6,
            "type" : "SCALAR"
        },
        {
            "bufferView" : 12,
            "componentType" : 5126,
            "count" : 694,
            "max" : [
                0.7750021815299988,
                0.7597758173942566,
                0.7683783173561096
            ],
            "min" : [
                -0.774997889995575,
                0.7197758555412292,
                -0.7816215753555298
            ],
            "type" : "VEC3"
        },
        {
            "bufferView" : 13,
            "componentType" : 5126,
            "count" : 694,
            "type" : "VEC3"
        },
        {
            "bufferView" : 14,
            "componentType" : 5126,
            "count" : 694,
            "type" : "VEC2"
        },
        {
            "bufferView" : 15,
            "componentType" : 5126,
            "count" : 694,
            "type" : "VEC2"
        },
        {
            "bufferView" : 16,
            "componentType" : 5126,
            "count" : 694,
            "type" : "VEC2"
        },
        {
            "bufferView" : 17,
            "componentType" : 5123,
            "count" : 1311,
            "type" : "SCALAR"
        }
    ],
    "bufferViews" : [
        {
            "buffer" : 0,
            "byteLength" : 48,
            "byteOffset" : 0
        },
        {
            "buffer" : 0,
            "byteLength" : 48,
            "byteOffset" : 48
        },
        {
            "buffer" : 0,
            "byteLength" : 32,
            "byteOffset" : 96
        },
        {
            "buffer" : 0,
            "byteLength" : 12,
            "byteOffset" : 128
        },
        {
            "buffer" : 0,
            "byteLength" : 72,
            "byteOffset" : 140
        },
        {
            "buffer" : 0,
            "byteLength" : 72,
            "byteOffset" : 212
        },
        {
            "buffer" : 0,
            "byteLength" : 48,
            "byteOffset" : 284
        },
        {
            "buffer" : 0,
            "byteLength" : 12,
            "byteOffset" : 332
        },
        {
            "buffer" : 0,
            "byteLength" : 72,
            "byteOffset" : 344
        },
        {
            "buffer" : 0,
            "byteLength" : 72,
            "byteOffset" : 416
        },
        {
            "buffer" : 0,
            "byteLength" : 48,
            "byteOffset" : 488
        },
        {
            "buffer" : 0,
            "byteLength" : 12,
            "byteOffset" : 536
        },
        {
            "buffer" : 0,
            "byteLength" : 8328,
            "byteOffset" : 548
        },
        {
            "buffer" : 0,
            "byteLength" : 8328,
            "byteOffset" : 8876
        },
        {
            "buffer" : 0,
            "byteLength" : 5552,
            "byteOffset" : 17204
        },
        {
            "buffer" : 0,
            "byteLength" : 5552,
            "byteOffset" : 22756
        },
        {
            "buffer" : 0,
            "byteLength" : 5552,
            "byteOffset" : 28308
        },
        {
            "buffer" : 0,
            "byteLength" : 2622,
            "byteOffset" : 33860
        }
    ],
    "buffers" : [
        {
            "byteLength" : 36484,
            "uri" : "data:application/octet-stream;base64,"
        }
    ]
}
