{
    "asset" : {
        "generator" : "Khronos glTF Blender I/O v1.7.33",
        "version" : "2.0"
    },
    "scene" : 0,
    "scenes" : [
        {
            "name" : "Scene",
            "nodes" : [
                0
            ]
        }
    ],
    "nodes" : [
        {
            "mesh" : 0,
            "name" : "Circle.004"
        }
    ],
    "materials" : [
        {
            "doubleSided" : true,
            "name" : "Material.005",
            "pbrMetallicRoughness" : {
                "baseColorFactor" : [
                    1,
                    0,
                    0,
                    1
                ],
                "metallicFactor" : 0,
                "roughnessFactor" : 0.5
            }
        }
    ],
    "meshes" : [
        {
            "name" : "Circle.006",
            "primitives" : [
                {
                    "attributes" : {
                        "POSITION" : 0,
                        "NORMAL" : 1,
                        "TEXCOORD_0" : 2
                    },
                    "indices" : 3,
                    "material" : 0
                }
            ]
        }
    ],
    "accessors" : [
        {
            "bufferView" : 0,
            "componentType" : 5126,
            "count" : 218,
            "max" : [
                0.7749999761581421,
                0.7650010585784912,
                0.7749999761581421
            ],
            "min" : [
                -0.7749999761581421,
                0.7350010871887207,
                -0.7749999761581421
            ],
            "type" : "VEC3"
        },
        {
            "bufferView" : 1,
            "componentType" : 5126,
            "count" : 218,
            "type" : "VEC3"
        },
        {
            "bufferView" : 2,
            "componentType" : 5126,
            "count" : 218,
            "type" : "VEC2"
        },
        {
            "bufferView" : 3,
            "componentType" : 5123,
            "count" : 372,
            "type" : "SCALAR"
        }
    ],
    "bufferViews" : [
        {
            "buffer" : 0,
            "byteLength" : 2616,
            "byteOffset" : 0
        },
        {
            "buffer" : 0,
            "byteLength" : 2616,
            "byteOffset" : 2616
        },
        {
            "buffer" : 0,
            "byteLength" : 1744,
            "byteOffset" : 5232
        },
        {
            "buffer" : 0,
            "byteLength" : 744,
            "byteOffset" : 6976
        }
    ],
    "buffers" : [
        {
            "byteLength" : 7720,
            "uri" : "data:application/octet-stream;base64,"
        }
    ]
}
