{
    "asset" : {
        "generator" : "Khronos glTF Blender I/O v1.7.33",
        "version" : "2.0"
    },
    "scene" : 0,
    "scenes" : [
        {
            "name" : "Scene",
            "nodes" : [
                0
            ]
        }
    ],
    "nodes" : [
        {
            "mesh" : 0,
            "name" : "Rounded Corner Normal 0.5"
        }
    ],
    "meshes" : [
        {
            "name" : "Plane.009",
            "primitives" : [
                {
                    "attributes" : {
                        "POSITION" : 0,
                        "NORMAL" : 1,
                        "TEXCOORD_0" : 2
                    },
                    "indices" : 3
                }
            ]
        }
    ],
    "accessors" : [
        {
            "bufferView" : 0,
            "componentType" : 5126,
            "count" : 816,
            "max" : [
                1.0499999523162842,
                0.7550053596496582,
                0.550000011920929
            ],
            "min" : [
                -1.0499999523162842,
                0.734994113445282,
                -0.550000011920929
            ],
            "type" : "VEC3"
        },
        {
            "bufferView" : 1,
            "componentType" : 5126,
            "count" : 816,
            "type" : "VEC3"
        },
        {
            "bufferView" : 2,
            "componentType" : 5126,
            "count" : 816,
            "type" : "VEC2"
        },
        {
            "bufferView" : 3,
            "componentType" : 5123,
            "count" : 1044,
            "type" : "SCALAR"
        }
    ],
    "bufferViews" : [
        {
            "buffer" : 0,
            "byteLength" : 9792,
            "byteOffset" : 0
        },
        {
            "buffer" : 0,
            "byteLength" : 9792,
            "byteOffset" : 9792
        },
        {
            "buffer" : 0,
            "byteLength" : 6528,
            "byteOffset" : 19584
        },
        {
            "buffer" : 0,
            "byteLength" : 2088,
            "byteOffset" : 26112
        }
    ],
    "buffers" : [
        {
            "byteLength" : 28200,
            "uri" : "data:application/octet-stream;base64,"
        }
    ]
}
