<svg width="28" height="25" viewBox="0 0 28 25" fill="none" xmlns="http://www.w3.org/2000/svg">
<path d="M26.4293 17.8231H8.71264L9.60219 16.0113L24.3824 15.9845C24.8822 15.9845 25.3106 15.6275 25.3999 15.1336L27.4467 3.67657C27.5003 3.37609 27.42 3.06668 27.2236 2.83165C27.1266 2.71598 27.0055 2.62281 26.8689 2.55859C26.7322 2.49437 26.5832 2.46065 26.4322 2.45977L7.62971 2.39729L7.46906 1.64162C7.3679 1.15965 6.93354 0.808594 6.43968 0.808594H1.84317C1.56464 0.808594 1.29752 0.91924 1.10057 1.11619C0.903615 1.31314 0.792969 1.58027 0.792969 1.8588C0.792969 2.13733 0.903615 2.40445 1.10057 2.6014C1.29752 2.79836 1.56464 2.909 1.84317 2.909H5.5888L6.29092 6.24705L8.01945 14.616L5.79408 18.2485C5.67852 18.4045 5.60891 18.5897 5.59314 18.7832C5.57736 18.9767 5.61606 19.1707 5.70483 19.3434C5.88334 19.6974 6.24332 19.9205 6.64198 19.9205H8.51034C8.11203 20.4496 7.89689 21.0939 7.89747 21.7562C7.89747 23.4401 9.26601 24.8086 10.9499 24.8086C12.6338 24.8086 14.0023 23.4401 14.0023 21.7562C14.0023 21.0927 13.7822 20.4471 13.3895 19.9205H18.1823C17.784 20.4496 17.5689 21.0939 17.5695 21.7562C17.5695 23.4401 18.938 24.8086 20.6219 24.8086C22.3058 24.8086 23.6743 23.4401 23.6743 21.7562C23.6743 21.0927 23.4542 20.4471 23.0615 19.9205H26.4322C27.0094 19.9205 27.4824 19.4505 27.4824 18.8703C27.4807 18.5921 27.369 18.3258 27.1717 18.1296C26.9744 17.9334 26.7075 17.8232 26.4293 17.8231V17.8231ZM8.06705 4.46795L25.1976 4.52447L23.5196 13.9198L10.0633 13.9436L8.06705 4.46795ZM10.9499 22.6963C10.4322 22.6963 10.0098 22.2738 10.0098 21.7562C10.0098 21.2385 10.4322 20.816 10.9499 20.816C11.4676 20.816 11.89 21.2385 11.89 21.7562C11.89 22.0055 11.791 22.2446 11.6147 22.4209C11.4384 22.5972 11.1992 22.6963 10.9499 22.6963V22.6963ZM20.6219 22.6963C20.1042 22.6963 19.6818 22.2738 19.6818 21.7562C19.6818 21.2385 20.1042 20.816 20.6219 20.816C21.1396 20.816 21.562 21.2385 21.562 21.7562C21.562 22.0055 21.463 22.2446 21.2867 22.4209C21.1104 22.5972 20.8712 22.6963 20.6219 22.6963V22.6963Z" fill="#B8BABD"/>
</svg>
