<svg width="38" height="40" viewBox="0 0 38 40" fill="none" xmlns="http://www.w3.org/2000/svg">
<path d="M36.5266 21.0172C37.3141 19.9766 37.75 18.7016 37.75 17.375C37.75 15.2703 36.5734 13.2781 34.6797 12.1672C34.1922 11.8813 33.6371 11.7307 33.0719 11.7313H21.8313L22.1125 5.97034C22.1781 4.57815 21.6859 3.25627 20.7297 2.24846C20.2604 1.75172 19.6942 1.35649 19.0662 1.0872C18.4381 0.817917 17.7615 0.680292 17.0781 0.682835C14.6406 0.682835 12.4844 2.32346 11.8375 4.6719L7.81094 19.25H7.79688V39.3125H29.9359C30.3672 39.3125 30.7891 39.2281 31.1781 39.0594C33.4094 38.1078 34.8484 35.9282 34.8484 33.5094C34.8484 32.9188 34.7641 32.3375 34.5953 31.775C35.3828 30.7344 35.8187 29.4594 35.8187 28.1328C35.8187 27.5422 35.7344 26.961 35.5656 26.3985C36.3531 25.3578 36.7891 24.0828 36.7891 22.7563C36.7797 22.1656 36.6953 21.5797 36.5266 21.0172ZM0.25 20.75V37.8125C0.25 38.6422 0.920312 39.3125 1.75 39.3125H4.79688V19.25H1.75C0.920312 19.25 0.25 19.9203 0.25 20.75Z" fill="#004441"/>
</svg>
