<svg width="15" height="15" viewBox="0 0 15 15" fill="none" xmlns="http://www.w3.org/2000/svg">
<path d="M1.66667 15C1.20833 15 0.815833 14.8369 0.489167 14.5108C0.163055 14.1842 0 13.7917 0 13.3333V1.66667C0 1.20833 0.163055 0.815833 0.489167 0.489167C0.815833 0.163055 1.20833 0 1.66667 0H6.66667V15H1.66667ZM8.33333 15V7.5H15V13.3333C15 13.7917 14.8369 14.1842 14.5108 14.5108C14.1842 14.8369 13.7917 15 13.3333 15H8.33333ZM8.33333 5.83333V0H13.3333C13.7917 0 14.1842 0.163055 14.5108 0.489167C14.8369 0.815833 15 1.20833 15 1.66667V5.83333H8.33333Z" fill="#FFF3E5"/>
</svg>
