<svg width="37" height="36" viewBox="0 0 37 36" fill="none" xmlns="http://www.w3.org/2000/svg">
<path d="M2.31844 6.27476e-05L0.500101 1.81715L3.70331 7.35285L5.78061 7.04838L18.4605 19.721L17.3789 20.7589C16.825 21.3125 16.825 22.1511 17.3789 22.7047L17.9412 23.268C18.4951 23.8215 19.3426 23.8215 19.7581 23.268L21.4033 24.9107C21.2649 25.741 21.4033 26.7278 22.0958 27.4197L29.5824 34.8583C31.1057 36.3806 33.5985 36.3806 35.1219 34.8583C36.9222 33.1976 36.9056 30.7149 35.3822 29.1925L27.9385 21.7097C27.2461 21.0177 26.2587 20.7409 25.4278 21.0177L23.6094 19.375C24.0249 18.8214 24.0249 17.9745 23.6094 17.5579L23.0901 17.0403C22.9642 16.9091 22.8131 16.8047 22.6458 16.7334C22.4785 16.6621 22.2984 16.6253 22.1165 16.6253C21.9347 16.6253 21.7546 16.6621 21.5873 16.7334C21.42 16.8047 21.2689 16.9091 21.143 17.0403L20.2345 17.9482L7.55463 5.27696L7.85653 3.20108L2.31705 6.27476e-05H2.31844ZM29.3234 0.0429644C26.5911 -0.183999 22.9682 1.62617 21.2732 3.19969C19.1875 5.28388 19.5282 8.00883 21.1859 10.6397L18.2444 13.5805L20.3218 15.9152C21.4296 14.9464 23.0638 14.9464 24.1717 15.9152L24.7353 16.4771L24.8655 16.6071L26.0773 15.3962C28.5811 16.8673 31.1874 17.0791 33.1747 15.0931C35.1136 13.294 37.2158 8.85717 36.2464 6.22772L32.3521 10.2494C31.7982 10.803 30.9589 10.803 30.405 10.2494L26.3792 6.22772C26.2479 6.10191 26.1434 5.95087 26.0721 5.78367C26.0007 5.61648 25.9639 5.43659 25.9639 5.25482C25.9639 5.07305 26.0007 4.89316 26.0721 4.72597C26.1434 4.55877 26.2479 4.40773 26.3792 4.28192L30.4064 0.26024C30.0602 0.138455 29.7139 0.0761785 29.3234 0.0429644ZM14.0898 17.2991L9.0683 22.3158C8.52869 22.196 7.97719 22.138 7.42445 22.1428C3.54682 22.1428 0.500101 25.1875 0.500101 29.0625C0.500101 32.9374 3.54682 35.9821 7.42445 35.9821C11.3021 35.9821 14.3488 32.9374 14.3488 29.0625C14.3488 28.3525 14.2366 27.6702 14.0455 27.0295L16.9884 24.0886L16.5563 23.5268C15.4484 22.4196 15.4567 20.7423 16.4261 19.6338L14.0885 17.2991H14.0898ZM24.8226 23.6139C24.9957 23.6139 25.1591 23.6472 25.2976 23.7869L33.478 31.9604C33.755 32.2372 33.755 32.6773 33.478 32.954C33.201 33.2308 32.7579 33.2308 32.4809 32.954L24.3033 24.7806C24.0263 24.5038 24.0263 24.0637 24.3033 23.7869C24.4417 23.6485 24.6495 23.6139 24.8226 23.6139ZM8.37724 25.4712L11.0168 28.1103L10.064 31.6988L6.47305 32.651L3.8321 30.0118L4.78489 26.4233L8.37724 25.4712Z" fill="black"/>
</svg>
