<svg width="25" height="25" viewBox="0 0 25 25" fill="none" xmlns="http://www.w3.org/2000/svg">
<path d="M9.66797 12.5C9.66797 13.2252 9.95605 13.9207 10.4688 14.4335C10.9816 14.9463 11.6771 15.2344 12.4023 15.2344C13.1275 15.2344 13.823 14.9463 14.3358 14.4335C14.8486 13.9207 15.1367 13.2252 15.1367 12.5C15.1367 11.7748 14.8486 11.0793 14.3358 10.5665C13.823 10.0537 13.1275 9.76562 12.4023 9.76562C11.6771 9.76562 10.9816 10.0537 10.4688 10.5665C9.95605 11.0793 9.66797 11.7748 9.66797 12.5ZM23.0029 11.8701C20.6885 6.99463 17.1899 4.54102 12.5 4.54102C7.80762 4.54102 4.31152 6.99463 1.99707 11.8726C1.90424 12.0691 1.85609 12.2838 1.85609 12.5012C1.85609 12.7186 1.90424 12.9333 1.99707 13.1299C4.31152 18.0054 7.81006 20.459 12.5 20.459C17.1924 20.459 20.6885 18.0054 23.0029 13.1274C23.1909 12.7319 23.1909 12.2729 23.0029 11.8701ZM12.4023 16.7969C10.0293 16.7969 8.10547 14.873 8.10547 12.5C8.10547 10.127 10.0293 8.20312 12.4023 8.20312C14.7754 8.20312 16.6992 10.127 16.6992 12.5C16.6992 14.873 14.7754 16.7969 12.4023 16.7969Z" fill="#004441"/>
</svg>
