<svg width="4.8" height="4.8" viewBox="0 0 10 9" fill="none" xmlns="http://www.w3.org/2000/svg">
<path d="M9.75806 1.84437C9.6029 1.48345 9.37918 1.15639 9.09942 0.881488C8.81945 0.605771 8.48935 0.386662 8.12709 0.236077C7.75144 0.0793101 7.34854 -0.000932399 6.94177 8.17389e-06C6.3711 8.17389e-06 5.81432 0.157 5.33047 0.45354C5.21472 0.524477 5.10475 0.602392 5.00057 0.687283C4.89639 0.602392 4.78643 0.524477 4.67067 0.45354C4.18682 0.157 3.63005 8.17389e-06 3.05938 8.17389e-06C2.64845 8.17389e-06 2.25026 0.0790856 1.87406 0.236077C1.51059 0.387255 1.18301 0.604717 0.901724 0.881488C0.621595 1.15608 0.397821 1.48322 0.243083 1.84437C0.0821853 2.21999 0 2.61886 0 3.02937C0 3.41661 0.0787127 3.82014 0.234981 4.23065C0.365783 4.5737 0.553304 4.92955 0.792915 5.28889C1.17259 5.85755 1.69464 6.45063 2.34286 7.05185C3.41706 8.04846 4.48084 8.73689 4.52598 8.7648L4.80032 8.94156C4.92186 9.01948 5.07813 9.01948 5.19967 8.94156L5.47401 8.7648C5.51915 8.73573 6.58177 8.04846 7.65713 7.05185C8.30535 6.45063 8.8274 5.85755 9.20707 5.28889C9.44668 4.92955 9.63536 4.5737 9.76501 4.23065C9.92127 3.82014 9.99999 3.41661 9.99999 3.02937C10.0011 2.61886 9.91896 2.21999 9.75806 1.84437Z" fill="#F14646"/>
</svg>
