<?xml version="1.0" encoding="UTF-8" standalone="no"?>
<svg
   width="23.940002"
   height="24"
   viewBox="0 0 23.940002 24"
   fill="none"
   version="1.1"
   id="svg23"
   sodipodi:docname="IconInstagram.svg"
   inkscape:version="1.1.2 (b8e25be833, 2022-02-05)"
   xmlns:inkscape="http://www.inkscape.org/namespaces/inkscape"
   xmlns:sodipodi="http://sodipodi.sourceforge.net/DTD/sodipodi-0.dtd"
   xmlns="http://www.w3.org/2000/svg"
   xmlns:svg="http://www.w3.org/2000/svg">
  <sodipodi:namedview
     id="namedview25"
     pagecolor="#ffffff"
     bordercolor="#666666"
     borderopacity="1.0"
     inkscape:pageshadow="2"
     inkscape:pageopacity="0.0"
     inkscape:pagecheckerboard="0"
     showgrid="false"
     inkscape:zoom="15.96"
     inkscape:cx="17.387218"
     inkscape:cy="13.565163"
     inkscape:window-width="1920"
     inkscape:window-height="991"
     inkscape:window-x="-9"
     inkscape:window-y="-9"
     inkscape:window-maximized="1"
     inkscape:current-layer="svg23" />
  <g
     clip-path="url(#clip0_1125_8422)"
     id="g16"
     transform="translate(-0.0292969,-0.5)">
    <path
       d="M 16.842,0.5 H 7.15659 c -3.93,0 -7.1272931,3.19725 -7.1272931,7.1273 v 9.7454 c 0,3.93 3.1972931,7.1273 7.1272931,7.1273 H 16.842 c 3.93,0 7.1273,-3.1973 7.1273,-7.1273 V 7.6273 C 23.9692,3.69725 20.772,0.5 16.842,0.5 Z m 6.1711,16.8727 c 0,3.4028 -2.7683,6.1711 -6.1711,6.1711 H 7.15659 C 3.7538,23.5438 0.9855,20.7755 0.9855,17.3727 V 7.6273 c 0,-3.4028 2.7683,-6.1711 6.17109,-6.1711 H 16.842 c 3.4028,0 6.1711,2.7683 6.1711,6.1711 z"
       fill="#000000"
       id="path2" />
    <path
       d="M 16.842,3.23254 H 7.15653 c -2.42334,0 -4.39481,1.97143 -4.39481,4.39477 v 9.74549 c 0,2.4233 1.97147,4.3948 4.39481,4.3948 H 16.842 c 2.4233,0 4.3947,-1.9715 4.3947,-4.3948 V 7.62731 c 0,-2.4233 -1.9714,-4.39477 -4.3947,-4.39477 z m 3.4386,14.14016 c 0,1.8961 -1.5426,3.4386 -3.4386,3.4386 H 7.15653 c -1.89609,0 -3.43865,-1.5425 -3.43865,-3.4386 V 7.62726 c 0,-1.89604 1.54256,-3.43861 3.43865,-3.43861 v 5e-5 H 16.842 c 1.896,0 3.4386,1.54256 3.4386,3.43861 z"
       fill="#000000"
       id="path4" />
    <path
       d="m 11.9994,6.3208 c -3.40713,0 -6.17909,2.77195 -6.17909,6.1792 0,3.4072 2.77191,6.1791 6.17909,6.1791 3.4072,0 6.1791,-2.7719 6.1791,-6.1791 0,-3.40725 -2.7719,-6.1792 -6.1791,-6.1792 z m 0,11.4021 c -2.87988,0 -5.22288,-2.343 -5.22288,-5.2229 0,-2.88 2.343,-5.223 5.22288,-5.223 2.88,0 5.2229,2.343 5.2229,5.223 0,2.8799 -2.343,5.2229 -5.2229,5.2229 z"
       fill="#000000"
       id="path6" />
    <path
       d="m 12,8.98621 c -1.9374,0 -3.51367,1.57629 -3.51367,3.51369 0,1.9374 1.57627,3.5137 3.51367,3.5137 1.9375,0 3.5137,-1.5763 3.5137,-3.5137 0,-1.9374 -1.5762,-3.51369 -3.5137,-3.51369 z m 0,6.07129 c -1.4102,0 -2.55752,-1.1474 -2.55752,-2.5576 0,-1.4102 1.14732,-2.55754 2.55752,-2.55754 1.4103,0 2.5576,1.14724 2.5576,2.55754 0,1.4102 -1.1473,2.5576 -2.5576,2.5576 z"
       fill="#000000"
       id="path8" />
    <path
       d="m 17.8343,5.18018 c -0.8186,0 -1.4847,0.666 -1.4847,1.48467 0,0.81867 0.666,1.48462 1.4847,1.48462 0.8186,0 1.4846,-0.66595 1.4846,-1.48462 0,-0.81867 -0.666,-1.48467 -1.4846,-1.48467 z m 0,2.01309 c -0.2914,0 -0.5285,-0.23705 -0.5285,-0.52842 0,-0.29142 0.2371,-0.52847 0.5285,-0.52847 0.2914,0 0.5284,0.23709 0.5284,0.52847 0,0.29137 -0.237,0.52842 -0.5284,0.52842 z"
       fill="#000000"
       id="path10" />
    <path
       d="M 11.2358,22.2052 H 6.74175 c -0.26405,0 -0.47808,0.214 -0.47808,0.4781 0,0.264 0.21403,0.4781 0.47808,0.4781 h 4.49405 c 0.264,0 0.478,-0.2141 0.478,-0.4781 0,-0.2641 -0.214,-0.4781 -0.478,-0.4781 z"
       fill="#000000"
       id="path12" />
    <path
       d="m 13.0521,22.2052 h -0.2869 c -0.264,0 -0.4781,0.214 -0.4781,0.4781 0,0.264 0.2141,0.4781 0.4781,0.4781 h 0.2869 c 0.264,0 0.478,-0.2141 0.478,-0.4781 0,-0.2641 -0.214,-0.4781 -0.478,-0.4781 z"
       fill="#000000"
       id="path14" />
  </g>
  <defs
     id="defs21">
    <clipPath
       id="clip0_1125_8422">
      <rect
         width="24"
         height="24"
         fill="#ffffff"
         transform="translate(0,0.5)"
         id="rect18"
         x="0"
         y="0" />
    </clipPath>
  </defs>
</svg>
