<svg width="38" height="38" viewBox="0 0 38 38" fill="none" xmlns="http://www.w3.org/2000/svg">
<path d="M8.58333 37.75H12.75V33.5833H8.58333V37.75ZM8.58333 21.0833H12.75V16.9167H8.58333V21.0833ZM16.9167 21.0833H21.0833V16.9167H16.9167V21.0833ZM16.9167 37.75H21.0833V33.5833H16.9167V37.75ZM0.25 29.4167H4.41667V25.25H0.25V29.4167ZM0.25 37.75H4.41667V33.5833H0.25V37.75ZM0.25 21.0833H4.41667V16.9167H0.25V21.0833ZM0.25 12.75H4.41667V8.58333H0.25V12.75ZM16.9167 29.4167H21.0833V25.25H16.9167V29.4167ZM33.5833 12.75H37.75V8.58333H33.5833V12.75ZM33.5833 21.0833H37.75V16.9167H33.5833V21.0833ZM0.25 2.33333C0.25 3.47917 1.1875 4.41667 2.33333 4.41667H35.6667C36.8125 4.41667 37.75 3.47917 37.75 2.33333C37.75 1.1875 36.8125 0.25 35.6667 0.25H2.33333C1.1875 0.25 0.25 1.1875 0.25 2.33333ZM33.5833 29.4167H37.75V25.25H33.5833V29.4167ZM25.25 37.75H29.4167V33.5833H25.25V37.75ZM16.9167 12.75H21.0833V8.58333H16.9167V12.75ZM33.5833 37.75H37.75V33.5833H33.5833V37.75ZM25.25 21.0833H29.4167V16.9167H25.25V21.0833Z" fill="#004441"/>
</svg>
