<svg width="52" height="52" viewBox="0 0 52 52" fill="none" xmlns="http://www.w3.org/2000/svg">
<path d="M31.0255 33.9794C31.0255 33.9794 49.3789 20.735 47.3431 5.57696C47.3229 5.31956 47.2208 5.07538 47.0519 4.88016C46.8642 4.70617 46.6232 4.60079 46.3681 4.58116C31.5559 2.49856 18.6157 21.2784 18.6157 21.2784C7.38887 19.9342 8.20527 22.1728 3.08327 34.476C2.10307 36.8212 3.69167 37.6298 5.43367 36.9694L11.0185 34.8608L17.7525 41.7456L15.6907 47.463C15.0459 49.2466 15.8337 50.8716 18.1295 49.8706C30.1519 44.629 32.3411 45.4662 31.0255 33.9794ZM33.6489 18.5978C32.9008 17.8248 32.4826 16.7913 32.4826 15.7157C32.4826 14.64 32.9008 13.6065 33.6489 12.8336C34.0146 12.4566 34.4523 12.157 34.9359 11.9523C35.4196 11.7477 35.9395 11.6423 36.4647 11.6423C36.9899 11.6423 37.5097 11.7477 37.9934 11.9523C38.4771 12.157 38.9147 12.4566 39.2805 12.8336C40.0285 13.6065 40.4467 14.64 40.4467 15.7157C40.4467 16.7913 40.0285 17.8248 39.2805 18.5978C38.9147 18.9747 38.4771 19.2744 37.9934 19.479C37.5097 19.6836 36.9899 19.7891 36.4647 19.7891C35.9395 19.7891 35.4196 19.6836 34.9359 19.479C34.4523 19.2744 34.0146 18.9747 33.6489 18.5978Z" fill="black"/>
</svg>
