<svg width="14" height="16" viewBox="0 0 14 16" fill="none" xmlns="http://www.w3.org/2000/svg">
<path d="M3.5 9C3.36739 9 3.24021 9.05268 3.14645 9.14645C3.05268 9.24021 3 9.36739 3 9.5V11.5C3 11.6326 3.05268 11.7598 3.14645 11.8536C3.24021 11.9473 3.36739 12 3.5 12C3.63261 12 3.75979 11.9473 3.85355 11.8536C3.94732 11.7598 4 11.6326 4 11.5V11.334H4.334C4.64351 11.334 4.94034 11.211 5.15919 10.9922C5.37805 10.7733 5.501 10.4765 5.501 10.167C5.501 9.85749 5.37805 9.56066 5.15919 9.34181C4.94034 9.12295 4.64351 9 4.334 9H3.5ZM4.334 10.334H4V10H4.334C4.37829 10 4.42077 10.0176 4.45209 10.0489C4.48341 10.0802 4.501 10.1227 4.501 10.167C4.501 10.2113 4.48341 10.2538 4.45209 10.2851C4.42077 10.3164 4.37829 10.334 4.334 10.334V10.334ZM9 9.499C9.00026 9.36656 9.05306 9.23964 9.1468 9.14609C9.24054 9.05254 9.36756 9 9.5 9H10.498C10.6306 9 10.7578 9.05268 10.8516 9.14645C10.9453 9.24021 10.998 9.36739 10.998 9.5C10.998 9.63261 10.9453 9.75979 10.8516 9.85355C10.7578 9.94732 10.6306 10 10.498 10H10V10.335H10.498C10.6306 10.335 10.7578 10.3877 10.8516 10.4814C10.9453 10.5752 10.998 10.7024 10.998 10.835C10.998 10.9676 10.9453 11.0948 10.8516 11.1886C10.7578 11.2823 10.6306 11.335 10.498 11.335H10V11.499C10.0001 11.5647 9.98733 11.6297 9.96232 11.6904C9.93732 11.7511 9.9006 11.8063 9.85426 11.8528C9.76068 11.9468 9.63361 11.9997 9.501 12C9.36839 12.0003 9.24111 11.9478 9.14715 11.8543C9.0532 11.7607 9.00027 11.6336 9 11.501V10.834L9.002 9.499H9ZM6.5 9C6.36739 9 6.24021 9.05268 6.14645 9.14645C6.05268 9.24021 6 9.36739 6 9.5V11.5C6 11.6326 6.05268 11.7598 6.14645 11.8536C6.24021 11.9473 6.36739 12 6.5 12H7.002C7.39982 12 7.78136 11.842 8.06266 11.5607C8.34396 11.2794 8.502 10.8978 8.502 10.5C8.502 10.1022 8.34396 9.72064 8.06266 9.43934C7.78136 9.15804 7.39982 9 7.002 9H6.5ZM7 11V10H7.002C7.13461 10 7.26179 10.0527 7.35555 10.1464C7.44932 10.2402 7.502 10.3674 7.502 10.5C7.502 10.6326 7.44932 10.7598 7.35555 10.8536C7.26179 10.9473 7.13461 11 7.002 11H7ZM7.002 4.5V0H2.5C2.10218 0 1.72064 0.158035 1.43934 0.43934C1.15804 0.720644 1 1.10218 1 1.5V7.082C0.707583 7.18538 0.454403 7.37687 0.275317 7.6301C0.0962304 7.88333 4.41594e-05 8.18584 0 8.496V12.499C4.41594e-05 12.8092 0.0962304 13.1117 0.275317 13.3649C0.454403 13.6181 0.707583 13.8096 1 13.913V14.5C1 14.8978 1.15804 15.2794 1.43934 15.5607C1.72064 15.842 2.10218 16 2.5 16H11.5C11.8978 16 12.2794 15.842 12.5607 15.5607C12.842 15.2794 13 14.8978 13 14.5V13.913C13.292 13.8093 13.5448 13.6177 13.7235 13.3645C13.9022 13.1113 13.9981 12.8089 13.998 12.499V8.496C13.9981 8.18609 13.9022 7.88375 13.7235 7.63055C13.5448 7.37735 13.292 7.18572 13 7.082V6H8.5C8.10218 6 7.72064 5.84196 7.43934 5.56066C7.15804 5.27936 7 4.89782 7 4.5H7.002ZM1.502 7.996H12.499C12.6316 7.996 12.7588 8.04868 12.8526 8.14245C12.9463 8.23621 12.999 8.36339 12.999 8.496V12.499C12.999 12.6316 12.9463 12.7588 12.8526 12.8526C12.7588 12.9463 12.6316 12.999 12.499 12.999H1.502C1.36939 12.999 1.24221 12.9463 1.14845 12.8526C1.05468 12.7588 1.002 12.6316 1.002 12.499V8.496C1.002 8.36339 1.05468 8.23621 1.14845 8.14245C1.24221 8.04868 1.36939 7.996 1.502 7.996V7.996ZM8 4.5V0.25L12.75 5H8.5C8.36739 5 8.24021 4.94732 8.14645 4.85355C8.05268 4.75979 8 4.63261 8 4.5Z" fill="#5CCDF1"/>
</svg>
