<svg width="20" height="20" viewBox="0 0 20 20" fill="none" xmlns="http://www.w3.org/2000/svg">
<path d="M16.6667 3.75004H3.33333C3.11232 3.75004 2.90036 3.66224 2.74408 3.50596C2.5878 3.34968 2.5 3.13772 2.5 2.91671C2.5 2.69569 2.5878 2.48373 2.74408 2.32745C2.90036 2.17117 3.11232 2.08337 3.33333 2.08337H16.6667C16.8877 2.08337 17.0996 2.17117 17.2559 2.32745C17.4122 2.48373 17.5 2.69569 17.5 2.91671C17.5 3.13772 17.4122 3.34968 17.2559 3.50596C17.0996 3.66224 16.8877 3.75004 16.6667 3.75004Z" fill="#FFF3E5"/>
<path opacity="0.5" d="M9.99996 7.08329C10.4602 7.08329 10.8333 6.7102 10.8333 6.24996C10.8333 5.78972 10.4602 5.41663 9.99996 5.41663C9.53972 5.41663 9.16663 5.78972 9.16663 6.24996C9.16663 6.7102 9.53972 7.08329 9.99996 7.08329Z" fill="#FFF3E5"/>
<path opacity="0.5" d="M9.99996 10.4167C10.4602 10.4167 10.8333 10.0436 10.8333 9.58333C10.8333 9.1231 10.4602 8.75 9.99996 8.75C9.53972 8.75 9.16663 9.1231 9.16663 9.58333C9.16663 10.0436 9.53972 10.4167 9.99996 10.4167Z" fill="#FFF3E5"/>
<path opacity="0.5" d="M9.99996 13.75C10.4602 13.75 10.8333 13.3769 10.8333 12.9167C10.8333 12.4565 10.4602 12.0834 9.99996 12.0834C9.53972 12.0834 9.16663 12.4565 9.16663 12.9167C9.16663 13.3769 9.53972 13.75 9.99996 13.75Z" fill="#FFF3E5"/>
<path opacity="0.5" d="M9.99996 17.0833C10.4602 17.0833 10.8333 16.7102 10.8333 16.25C10.8333 15.7897 10.4602 15.4166 9.99996 15.4166C9.53972 15.4166 9.16663 15.7897 9.16663 16.25C9.16663 16.7102 9.53972 17.0833 9.99996 17.0833Z" fill="#FFF3E5"/>
<path opacity="0.5" d="M16.6667 7.08329C17.1269 7.08329 17.5 6.7102 17.5 6.24996C17.5 5.78972 17.1269 5.41663 16.6667 5.41663C16.2065 5.41663 15.8334 5.78972 15.8334 6.24996C15.8334 6.7102 16.2065 7.08329 16.6667 7.08329Z" fill="#FFF3E5"/>
<path opacity="0.5" d="M16.6667 10.4167C17.1269 10.4167 17.5 10.0436 17.5 9.58333C17.5 9.1231 17.1269 8.75 16.6667 8.75C16.2065 8.75 15.8334 9.1231 15.8334 9.58333C15.8334 10.0436 16.2065 10.4167 16.6667 10.4167Z" fill="#FFF3E5"/>
<path opacity="0.5" d="M16.6667 13.75C17.1269 13.75 17.5 13.3769 17.5 12.9167C17.5 12.4565 17.1269 12.0834 16.6667 12.0834C16.2065 12.0834 15.8334 12.4565 15.8334 12.9167C15.8334 13.3769 16.2065 13.75 16.6667 13.75Z" fill="#FFF3E5"/>
<path opacity="0.5" d="M16.6667 17.0833C17.1269 17.0833 17.5 16.7102 17.5 16.25C17.5 15.7897 17.1269 15.4166 16.6667 15.4166C16.2065 15.4166 15.8334 15.7897 15.8334 16.25C15.8334 16.7102 16.2065 17.0833 16.6667 17.0833Z" fill="#FFF3E5"/>
<path opacity="0.5" d="M13.3333 17.0833C13.7936 17.0833 14.1667 16.7102 14.1667 16.25C14.1667 15.7897 13.7936 15.4166 13.3333 15.4166C12.8731 15.4166 12.5 15.7897 12.5 16.25C12.5 16.7102 12.8731 17.0833 13.3333 17.0833Z" fill="#FFF3E5"/>
<path opacity="0.5" d="M6.66671 17.0833C7.12694 17.0833 7.50004 16.7102 7.50004 16.25C7.50004 15.7897 7.12694 15.4166 6.66671 15.4166C6.20647 15.4166 5.83337 15.7897 5.83337 16.25C5.83337 16.7102 6.20647 17.0833 6.66671 17.0833Z" fill="#FFF3E5"/>
<path opacity="0.5" d="M13.3333 10.4167C13.7936 10.4167 14.1667 10.0436 14.1667 9.58333C14.1667 9.1231 13.7936 8.75 13.3333 8.75C12.8731 8.75 12.5 9.1231 12.5 9.58333C12.5 10.0436 12.8731 10.4167 13.3333 10.4167Z" fill="#FFF3E5"/>
<path opacity="0.5" d="M6.66671 10.4167C7.12694 10.4167 7.50004 10.0436 7.50004 9.58333C7.50004 9.1231 7.12694 8.75 6.66671 8.75C6.20647 8.75 5.83337 9.1231 5.83337 9.58333C5.83337 10.0436 6.20647 10.4167 6.66671 10.4167Z" fill="#FFF3E5"/>
<path opacity="0.5" d="M3.33333 7.08329C3.79357 7.08329 4.16667 6.7102 4.16667 6.24996C4.16667 5.78972 3.79357 5.41663 3.33333 5.41663C2.8731 5.41663 2.5 5.78972 2.5 6.24996C2.5 6.7102 2.8731 7.08329 3.33333 7.08329Z" fill="#FFF3E5"/>
<path opacity="0.5" d="M3.33333 10.4167C3.79357 10.4167 4.16667 10.0436 4.16667 9.58333C4.16667 9.1231 3.79357 8.75 3.33333 8.75C2.8731 8.75 2.5 9.1231 2.5 9.58333C2.5 10.0436 2.8731 10.4167 3.33333 10.4167Z" fill="#FFF3E5"/>
<path opacity="0.5" d="M3.33333 13.75C3.79357 13.75 4.16667 13.3769 4.16667 12.9167C4.16667 12.4565 3.79357 12.0834 3.33333 12.0834C2.8731 12.0834 2.5 12.4565 2.5 12.9167C2.5 13.3769 2.8731 13.75 3.33333 13.75Z" fill="#FFF3E5"/>
<path opacity="0.5" d="M3.33333 17.0833C3.79357 17.0833 4.16667 16.7102 4.16667 16.25C4.16667 15.7897 3.79357 15.4166 3.33333 15.4166C2.8731 15.4166 2.5 15.7897 2.5 16.25C2.5 16.7102 2.8731 17.0833 3.33333 17.0833Z" fill="#FFF3E5"/>
</svg>
