<?xml version="1.0" encoding="utf-8"?>
<svg width="50" height="50" viewBox="0 0 50 50" fill="none" xmlns="http://www.w3.org/2000/svg">
  <path fill-rule="evenodd" clip-rule="evenodd" d="M 9.375 16.667 C 9.375 15.193 10.034 13.78 11.206 12.738 C 12.378 11.696 13.967 11.111 15.625 11.111 C 17.283 11.111 18.872 11.696 20.044 12.738 C 21.217 13.78 21.875 15.193 21.875 16.667 L 21.875 44.444 C 21.875 45.918 21.217 47.331 20.044 48.373 C 18.872 49.415 17.283 50 15.625 50 C 13.967 50 12.378 49.415 11.206 48.373 C 10.034 47.331 9.375 45.918 9.375 44.444 L 9.375 16.667 Z M 28.125 16.667 C 28.125 15.193 28.784 13.78 29.956 12.738 C 31.128 11.696 32.717 11.111 34.375 11.111 C 36.033 11.111 37.622 11.696 38.794 12.738 C 39.967 13.78 40.625 15.193 40.625 16.667 L 40.625 33.333 C 40.625 34.807 39.967 36.22 38.794 37.262 C 37.622 38.304 36.033 38.889 34.375 38.889 C 32.717 38.889 31.128 38.304 29.956 37.262 C 28.784 36.22 28.125 34.807 28.125 33.333 L 28.125 16.667 Z" style="fill: rgb(255, 255, 255);"/>
</svg>