<svg width="36" height="36" viewBox="0 0 36 36" fill="none" xmlns="http://www.w3.org/2000/svg">
<path d="M22.5185 11.153L29.4362 6.77649L22.6597 0L18.2833 9.74118L15.7421 2.11764L8.96562 6.63528L14.6126 11.1529H1.76562V20.1883H4.02444V36H31.9773V20.1882H34.2362V11.153H22.5185ZM23.2312 2.96733L26.7771 6.51318L19.5441 11.0999L23.2312 2.96733V2.96733ZM14.8363 4.75758L16.8384 10.7641L11.833 6.75975L14.8363 4.75758ZM15.7421 33.7412H6.28326V19.4807H15.7421V33.7412V33.7412ZM15.7421 17.9294H4.02444V13.4118H15.7421V17.9294V17.9294ZM29.7185 33.7412H20.2597V19.4807H29.7185V33.7412ZM31.9773 17.9294H20.2597V13.4118H31.9773V17.9294V17.9294Z" fill="black"/>
</svg>
