<svg width="50" height="50" viewBox="0 0 50 50" fill="none" xmlns="http://www.w3.org/2000/svg">
<path d="M42.6435 17.9796C42.1464 18.4735 41.4741 18.7507 40.7734 18.7507C40.0727 18.7507 39.4004 18.4735 38.9033 17.9796L36.708 15.7833C36.2139 15.2865 35.9366 14.6143 35.9366 13.9137C35.9366 13.213 36.2139 12.5409 36.708 12.0441L41.6777 7.07434C41.6873 7.06478 41.6943 7.05304 41.6983 7.04013C41.7023 7.02722 41.7031 7.01353 41.7006 7.00025C41.6981 6.98697 41.6924 6.9745 41.684 6.96392C41.6756 6.95335 41.6647 6.94499 41.6523 6.93957C38.4453 5.56652 34.2861 6.26477 31.6455 8.88684C29.1181 11.3956 28.9746 15.1632 29.9004 18.4571C30.0319 18.925 30.0316 19.4202 29.8994 19.8879C29.7672 20.3556 29.5083 20.7777 29.1513 21.1075L12.2568 36.8068C11.8536 37.1678 11.5282 37.6074 11.3006 38.0985C11.073 38.5896 10.948 39.1219 10.9331 39.663C10.9183 40.2041 11.014 40.7425 11.2143 41.2453C11.4146 41.7481 11.7154 42.2048 12.0982 42.5875C12.4811 42.9701 12.9379 43.2707 13.4409 43.4707C13.9438 43.6708 14.4823 43.7662 15.0233 43.7511C15.5644 43.7359 16.0967 43.6106 16.5877 43.3828C17.0787 43.1549 17.518 42.8293 17.8789 42.4259L33.7138 25.5021C34.0401 25.151 34.4559 24.8954 34.9165 24.7629C35.3771 24.6304 35.8651 24.626 36.3281 24.7501C39.5957 25.6232 43.3095 25.4591 45.8076 22.9982C48.4922 20.3536 49.0713 15.6798 47.7705 13.005C47.7646 12.9933 47.756 12.9831 47.7454 12.9753C47.7348 12.9676 47.7225 12.9624 47.7096 12.9603C47.6966 12.9582 47.6833 12.9592 47.6708 12.9633C47.6583 12.9673 47.647 12.9742 47.6377 12.9835L42.6435 17.9796Z" stroke="#0786CE" stroke-width="3" stroke-miterlimit="10" stroke-linecap="round"/>
<path d="M30.9643 28.4472C34.9633 32.1679 39.8139 36.5791 41.7065 38.1553C41.8481 38.2719 41.9636 38.4169 42.0457 38.5809C42.1279 38.745 42.1748 38.9243 42.1834 39.1076C42.1921 39.2908 42.1623 39.4738 42.0959 39.6448C42.0296 39.8158 41.9282 39.9711 41.7983 40.1006L38.5385 43.3594C38.4059 43.489 38.2482 43.5903 38.0751 43.657C37.9021 43.7238 37.7172 43.7546 37.5319 43.7477C37.3465 43.7408 37.1645 43.6962 36.9969 43.6166C36.8293 43.5371 36.6797 43.4243 36.5571 43.2851C34.9428 41.4121 30.5913 36.7314 26.8628 32.8359M21.8755 27.7344C20.1684 26.0742 19.3862 25.3017 18.8481 24.7764C18.5788 24.5088 18.402 24.1623 18.3435 23.7872C18.285 23.4122 18.3479 23.0282 18.5229 22.6914C18.6152 22.5258 18.7302 22.3739 18.8647 22.2402L20.396 20.7471C20.5544 20.5883 20.7408 20.4602 20.9458 20.3691C21.2693 20.2259 21.6284 20.183 21.9766 20.2461C22.3248 20.3091 22.6461 20.4751 22.8989 20.7226C23.4311 21.2392 24.4057 22.1875 26.1616 23.8984L21.8755 27.7344Z" stroke="#0786CE" stroke-width="3" stroke-linecap="round" stroke-linejoin="round"/>
<path d="M1.69345 18.8965L4.56552 16.0898C4.60939 16.0467 4.66147 16.0128 4.71867 15.9902C4.77587 15.9675 4.83703 15.9566 4.89853 15.958C5.02251 15.9567 5.14207 16.004 5.23154 16.0898V16.0898C5.33554 16.1927 5.46163 16.2706 5.60021 16.3174C5.7388 16.3643 5.88624 16.379 6.03134 16.3604C6.40537 16.3193 6.80478 16.2041 7.06357 15.958C7.64951 15.3916 6.97177 14.2754 7.4874 13.5615C8.07699 12.78 8.72257 12.0424 9.41904 11.3545C10.005 10.7803 12.3331 8.58887 16.2452 7.01368C17.4963 6.50798 18.8333 6.24868 20.1827 6.25001C22.3888 6.25001 24.089 7.22657 24.7003 7.78028C25.0672 8.1294 25.4031 8.50973 25.7042 8.917C25.4102 8.80863 25.1098 8.71829 24.8048 8.64649C24.1632 8.5104 23.5052 8.46894 22.8517 8.52344C21.5499 8.62989 19.9796 9.23243 19.1407 9.89063C17.7833 10.9648 17.2003 12.4023 17.1085 14.2568C17.0421 15.6357 17.3741 16.415 20.6339 19.6758C20.7453 19.8002 20.8041 19.9629 20.7979 20.1298C20.7917 20.2966 20.721 20.4546 20.6007 20.5703L18.8214 22.3281C18.6973 22.4497 18.531 22.5186 18.3573 22.5202C18.1836 22.5219 18.016 22.4562 17.8897 22.3369C15.7472 20.1943 14.3106 19.1055 13.4952 18.6104C12.6798 18.1152 12.0235 17.9756 11.7081 17.9414C11.0886 17.88 10.4653 18.0121 9.92392 18.3193C9.82893 18.3715 9.74207 18.4373 9.66611 18.5147C9.53931 18.6457 9.43973 18.8006 9.37312 18.9703C9.3065 19.1401 9.27416 19.3214 9.27798 19.5037C9.28179 19.686 9.32168 19.8657 9.39533 20.0326C9.46899 20.1994 9.57496 20.3499 9.70713 20.4756L9.87412 20.6318C9.91747 20.674 9.95193 20.7244 9.97546 20.7801C9.99899 20.8358 10.0111 20.8956 10.0111 20.9561C10.0111 21.0165 9.99899 21.0764 9.97546 21.132C9.95193 21.1877 9.91747 21.2381 9.87412 21.2803L7.00498 24.082C6.96151 24.126 6.90962 24.1608 6.8524 24.1843C6.79519 24.2078 6.73382 24.2195 6.67197 24.2188C6.54801 24.22 6.42849 24.1727 6.33896 24.0869L1.69345 19.5527C1.60938 19.4642 1.5625 19.3467 1.5625 19.2246C1.5625 19.1025 1.60938 18.985 1.69345 18.8965V18.8965Z" stroke="#0786CE" stroke-width="3" stroke-linecap="round" stroke-linejoin="round"/>
</svg>
