<svg width="16" height="16" viewBox="0 0 16 16" fill="none" xmlns="http://www.w3.org/2000/svg">
<path d="M14.302 0.687501H9.98125C9.84691 0.687403 9.71798 0.740489 9.62266 0.835157L0.984768 9.47305C0.795631 9.66311 0.689453 9.92034 0.689453 10.1885C0.689453 10.4566 0.795631 10.7138 0.984768 10.9039L5.09805 15.0172C5.28811 15.2063 5.54534 15.3125 5.81348 15.3125C6.08162 15.3125 6.33884 15.2063 6.52891 15.0172L15.1633 6.38281C15.258 6.28749 15.311 6.15857 15.3109 6.02422V1.7C15.3116 1.56715 15.286 1.43549 15.2355 1.31258C15.1851 1.18967 15.1109 1.07796 15.0171 0.983853C14.9233 0.88975 14.8118 0.815121 14.6891 0.764261C14.5664 0.713401 14.4348 0.687314 14.302 0.687501V0.687501Z" stroke="white" stroke-width="1.125" stroke-linecap="round" stroke-linejoin="round"/>
</svg>
