<svg width="28" height="32" viewBox="0 0 28 32" fill="none" xmlns="http://www.w3.org/2000/svg">
<path d="M9 10H18V12H9V10Z" fill="white"/>
<path d="M9 14H18V16H9V14Z" fill="white"/>
<path d="M9 18H18V20H9V18Z" fill="white"/>
<path d="M9 22H18V24H9V22Z" fill="white"/>
<path d="M9 6V8H17.66C17.2665 7.38079 16.9666 6.70685 16.77 6H9Z" fill="white"/>
<path d="M22 11.22V30H2V2H16.78C16.9734 1.29371 17.27 0.619793 17.66 0H2C1.46957 0 0.960859 0.210714 0.585786 0.585786C0.210714 0.960859 0 1.46957 0 2V30C0 30.5304 0.210714 31.0391 0.585786 31.4142C0.960859 31.7893 1.46957 32 2 32H22C22.5304 32 23.0391 31.7893 23.4142 31.4142C23.7893 31.0391 24 30.5304 24 30V11.5C23.3237 11.4974 22.651 11.4032 22 11.22Z" fill="white"/>
<path d="M27.7581 2.84437C27.6029 2.48345 27.3792 2.15639 27.0994 1.88149C26.8194 1.60577 26.4894 1.38666 26.1271 1.23608C25.7514 1.07931 25.3485 0.999068 24.9418 1.00001C24.3711 1.00001 23.8143 1.157 23.3305 1.45354C23.2147 1.52448 23.1048 1.60239 23.0006 1.68728C22.8964 1.60239 22.7864 1.52448 22.6707 1.45354C22.1868 1.157 21.63 1.00001 21.0594 1.00001C20.6485 1.00001 20.2503 1.07909 19.8741 1.23608C19.5106 1.38725 19.183 1.60472 18.9017 1.88149C18.6216 2.15608 18.3978 2.48322 18.2431 2.84437C18.0822 3.21999 18 3.61886 18 4.02937C18 4.41661 18.0787 4.82014 18.235 5.23065C18.3658 5.5737 18.5533 5.92955 18.7929 6.28889C19.1726 6.85755 19.6946 7.45063 20.3429 8.05185C21.4171 9.04846 22.4808 9.73689 22.526 9.7648L22.8003 9.94156C22.9219 10.0195 23.0781 10.0195 23.1997 9.94156L23.474 9.7648C23.5192 9.73573 24.5818 9.04846 25.6571 8.05185C26.3053 7.45063 26.8274 6.85755 27.2071 6.28889C27.4467 5.92955 27.6354 5.5737 27.765 5.23065C27.9213 4.82014 28 4.41661 28 4.02937C28.0011 3.61886 27.919 3.21999 27.7581 2.84437Z" fill="white"/>
</svg>
