<svg width="8" height="8" viewBox="0 0 8 8" fill="none" xmlns="http://www.w3.org/2000/svg">
<path d="M4.44859 4L7.52476 0.333203C7.57632 0.272266 7.53296 0.179688 7.45327 0.179688H6.51812C6.46304 0.179688 6.4103 0.204297 6.37398 0.246484L3.83687 3.27109L1.29976 0.246484C1.2646 0.204297 1.21187 0.179688 1.15562 0.179688H0.220461C0.140774 0.179688 0.0974144 0.272266 0.148977 0.333203L3.22515 4L0.148977 7.6668C0.137426 7.68038 0.130016 7.69699 0.127626 7.71466C0.125236 7.73233 0.127966 7.75031 0.135493 7.76648C0.143019 7.78264 0.155026 7.7963 0.170087 7.80585C0.185148 7.81539 0.202632 7.82041 0.220461 7.82031H1.15562C1.2107 7.82031 1.26343 7.7957 1.29976 7.75352L3.83687 4.72891L6.37398 7.75352C6.40913 7.7957 6.46187 7.82031 6.51812 7.82031H7.45327C7.53296 7.82031 7.57632 7.72773 7.52476 7.6668L4.44859 4Z" fill="#004441"/>
</svg>
