<svg width="40" height="40" viewBox="0 0 40 40" fill="none" xmlns="http://www.w3.org/2000/svg">
<path d="M20 0C25.3043 0 30.3914 2.10714 34.1421 5.85786C37.8929 9.60859 40 14.6957 40 20C40 25.3043 37.8929 30.3914 34.1421 34.1421C30.3914 37.8929 25.3043 40 20 40C14.6957 40 9.60859 37.8929 5.85786 34.1421C2.10714 30.3914 0 25.3043 0 20C0 14.6957 2.10714 9.60859 5.85786 5.85786C9.60859 2.10714 14.6957 0 20 0ZM17.5086 23.9457L13.0657 19.5C12.9064 19.3407 12.7174 19.2144 12.5093 19.1282C12.3011 19.042 12.0781 18.9976 11.8529 18.9976C11.6276 18.9976 11.4046 19.042 11.1965 19.1282C10.9884 19.2144 10.7993 19.3407 10.64 19.5C10.3183 19.8217 10.1376 20.2579 10.1376 20.7129C10.1376 21.1678 10.3183 21.604 10.64 21.9257L16.2971 27.5829C16.456 27.7429 16.6449 27.87 16.8531 27.9567C17.0612 28.0434 17.2845 28.088 17.51 28.088C17.7355 28.088 17.9588 28.0434 18.1669 27.9567C18.3751 27.87 18.564 27.7429 18.7229 27.5829L30.4371 15.8657C30.5985 15.7071 30.7269 15.5181 30.8149 15.3096C30.9029 15.1011 30.9488 14.8773 30.9498 14.651C30.9509 14.4247 30.9071 14.2004 30.8211 13.9911C30.735 13.7818 30.6084 13.5917 30.4485 13.4315C30.2885 13.2714 30.0985 13.1446 29.8893 13.0583C29.6801 12.972 29.4559 12.928 29.2296 12.9287C29.0033 12.9295 28.7794 12.9751 28.5708 13.0629C28.3622 13.1506 28.1731 13.2788 28.0143 13.44L17.5086 23.9457Z" fill="#004441"/>
</svg>
