<svg width="25" height="25" viewBox="0 0 25 25" fill="none" xmlns="http://www.w3.org/2000/svg">
<path d="M12.4023 15.2344C13.1275 15.2344 13.823 14.9463 14.3358 14.4335C14.8486 13.9207 15.1367 13.2252 15.1367 12.5C15.1367 12.42 15.1331 12.3406 15.1262 12.2622L12.1646 15.2239C12.2429 15.2307 12.322 15.2344 12.4023 15.2344ZM21.4531 4.04202L20.4102 3.00003C20.3735 2.96343 20.3239 2.94287 20.2721 2.94287C20.2203 2.94287 20.1707 2.96343 20.134 3.00003L17.4651 5.66971C15.9928 4.91727 14.3377 4.54105 12.5 4.54105C7.80762 4.54105 4.30664 6.98489 1.99707 11.8726C1.90424 12.0692 1.85609 12.2839 1.85609 12.5013C1.85609 12.7186 1.90424 12.9333 1.99707 13.1299C2.91992 15.0738 4.03117 16.6318 5.33081 17.804L2.74805 20.3858C2.71145 20.4224 2.69089 20.4721 2.69089 20.5238C2.69089 20.5756 2.71145 20.6253 2.74805 20.6619L3.79028 21.7041C3.82691 21.7407 3.87657 21.7613 3.92834 21.7613C3.98012 21.7613 4.02978 21.7407 4.06641 21.7041L21.4531 4.31839C21.4713 4.30025 21.4857 4.27871 21.4955 4.255C21.5053 4.23129 21.5104 4.20587 21.5104 4.18021C21.5104 4.15454 21.5053 4.12912 21.4955 4.10541C21.4857 4.0817 21.4713 4.06016 21.4531 4.04202ZM8.10547 12.5C8.1054 11.7579 8.29757 11.0283 8.66325 10.3825C9.02893 9.73666 9.55566 9.19656 10.1921 8.8148C10.8286 8.43304 11.5531 8.22264 12.295 8.20411C13.037 8.18557 13.7711 8.35952 14.4258 8.70902L13.2388 9.89603C12.7601 9.74274 12.2484 9.72428 11.7599 9.84267C11.2714 9.96106 10.8249 10.2117 10.4695 10.5671C10.114 10.9226 9.86337 11.369 9.74498 11.8576C9.6266 12.3461 9.64506 12.8577 9.79834 13.3365L8.61133 14.5235C8.27822 13.9011 8.10443 13.2059 8.10547 12.5Z" fill="#004441"/>
<path d="M23.0029 11.8699C22.1436 10.06 21.1207 8.58415 19.9343 7.44238L16.4153 10.9617C16.7119 11.7371 16.7777 12.5818 16.6046 13.3938C16.4315 14.2058 16.027 14.9503 15.4399 15.5374C14.8529 16.1244 14.1084 16.5289 13.2964 16.702C12.4844 16.8751 11.6397 16.8093 10.8643 16.5127L7.87939 19.4976C9.26416 20.1383 10.8044 20.4587 12.5 20.4587C17.1924 20.4587 20.6934 18.0149 23.0029 13.1272C23.0958 12.9306 23.1439 12.7159 23.1439 12.4985C23.1439 12.2811 23.0958 12.0664 23.0029 11.8699Z" fill="#004441"/>
</svg>
