<svg width="23" height="23" viewBox="0 0 23 23" fill="none" xmlns="http://www.w3.org/2000/svg">
<path d="M10.1542 2.01434C10.4742 1.17035 11.6852 1.17035 12.0062 2.01434L14.0761 7.74825C14.1483 7.93504 14.2754 8.09553 14.4408 8.20854C14.6061 8.32155 14.8018 8.38177 15.002 8.38124H20.0888C21.0288 8.38124 21.4387 9.55122 20.6998 10.1242L17.0799 13.3812C16.9178 13.5058 16.7993 13.6786 16.7414 13.8748C16.6836 14.071 16.6894 14.2805 16.7579 14.4732L18.0799 20.0761C18.4019 20.9761 17.3599 21.749 16.572 21.195L11.6552 18.0751C11.4868 17.9568 11.286 17.8933 11.0802 17.8933C10.8744 17.8933 10.6736 17.9568 10.5052 18.0751L5.58844 21.195C4.80148 21.749 3.75852 20.9751 4.08051 20.0761L5.40245 14.4732C5.47103 14.2805 5.47681 14.071 5.41896 13.8748C5.36111 13.6786 5.24261 13.5058 5.08047 13.3812L1.46063 10.1242C0.720659 9.55122 1.13264 8.38124 2.0706 8.38124H7.15737C7.35766 8.38191 7.55342 8.32175 7.71877 8.20872C7.88411 8.09569 8.01124 7.93512 8.08333 7.74825L10.1532 2.01434H10.1542Z" stroke="#004441" stroke-width="2" stroke-linecap="round" stroke-linejoin="round"/>
</svg>
