<svg width="37" height="36" viewBox="0 0 37 36" fill="none" xmlns="http://www.w3.org/2000/svg">
<path d="M18.5 15.709L16.6741 21.3278H10.7656L15.5458 24.8007L13.7187 30.4189L18.5 26.9472L23.2801 30.4189L21.4531 24.8007L26.2332 21.3278H20.3247L18.5 15.709ZM20.0964 24.214L21.0819 27.2492L18.5 25.3727L15.9159 27.2492L16.9036 24.214L14.3206 22.3375H17.5134L18.5 19.3022L19.4866 22.3375H22.6782L20.0964 24.214Z" fill="black"/>
<path d="M25.6196 14.9169V10.0243C25.6196 9.81956 25.5076 9.64744 25.349 9.54056L30.875 1.125H20.2803L18.5006 3.79462L16.7208 1.125H6.125L11.6504 9.54C11.5689 9.5921 11.5015 9.66361 11.4544 9.74813C11.4073 9.83266 11.3819 9.92755 11.3804 10.0243V14.9169C8.85988 16.9802 7.25 20.1139 7.25 23.625C7.25 29.8378 12.2872 34.875 18.5 34.875H18.5006C18.8836 34.875 19.2622 34.8553 19.6351 34.8176C25.3147 34.2489 29.75 29.4553 29.75 23.625C29.75 20.1139 28.1401 16.9802 25.6196 14.9169ZM23.4646 1.6875H27.0241L22.0601 9.13444L20.2803 6.46481L23.4646 1.6875ZM23.8398 11.8041L24.3871 10.9839C24.4164 11.0543 24.4333 11.1307 24.4333 11.2112V13.5844C24.4319 13.7326 24.3719 13.8742 24.2662 13.9781C22.5787 12.9668 20.6105 12.375 18.5 12.375C16.4679 12.3754 14.4743 12.9299 12.7338 13.9787C12.6281 13.8746 12.568 13.7327 12.5667 13.5844V11.2112C12.5667 11.1307 12.5836 11.0537 12.6129 10.9839L13.1602 11.8046H23.8398V11.8041ZM9.97588 1.6875H13.5354L19.9051 11.2416H16.3456L9.97588 1.6875ZM18.5 33.1875C13.2193 33.1875 8.9375 28.9063 8.9375 23.625C8.9375 18.3437 13.2193 14.0625 18.5 14.0625C23.7808 14.0625 28.0625 18.3437 28.0625 23.625C28.0625 28.9063 23.7808 33.1875 18.5 33.1875Z" fill="black"/>
</svg>
