<?xml version="1.0" encoding="UTF-8" standalone="no"?>
<svg
   width="33.733856"
   height="24"
   viewBox="0 0 33.733856 24"
   fill="none"
   version="1.1"
   id="svg13"
   sodipodi:docname="IconYoutube.svg"
   inkscape:version="1.1.2 (b8e25be833, 2022-02-05)"
   xmlns:inkscape="http://www.inkscape.org/namespaces/inkscape"
   xmlns:sodipodi="http://sodipodi.sourceforge.net/DTD/sodipodi-0.dtd"
   xmlns="http://www.w3.org/2000/svg"
   xmlns:svg="http://www.w3.org/2000/svg">
  <sodipodi:namedview
     id="namedview15"
     pagecolor="#ffffff"
     bordercolor="#666666"
     borderopacity="1.0"
     inkscape:pageshadow="2"
     inkscape:pageopacity="0.0"
     inkscape:pagecheckerboard="0"
     showgrid="false"
     inkscape:zoom="11.285424"
     inkscape:cx="14.399104"
     inkscape:cy="11.652198"
     inkscape:window-width="1920"
     inkscape:window-height="991"
     inkscape:window-x="-9"
     inkscape:window-y="-9"
     inkscape:window-maximized="1"
     inkscape:current-layer="svg13" />
  <g
     clip-path="url(#clip0_1125_8444)"
     id="g6"
     transform="scale(0.96382446)">
    <path
       d="m 17.5046,24.4007 -10e-5,0.5 -10e-5,-0.5 h -3e-4 -0.0014 -0.0058 -0.0233 l -0.0914,-2e-4 C 17.3019,24.4003 17.1836,24.4 17.0319,24.3992 16.7286,24.3978 16.292,24.3948 15.7596,24.389 14.6944,24.3772 13.2465,24.3538 11.7146,24.3069 10.1818,24.2599 8.56902,24.1897 7.17277,24.0846 5.76198,23.9785 4.61594,23.8396 3.9905,23.6663 l -9.5e-4,-2e-4 C 3.33313,23.4856 2.73381,23.1334 2.25164,22.6435 L 1.90389,22.9858 2.25164,22.6435 C 1.77045,22.1547 1.42273,21.5458 1.24379,20.877 0.107739,16.2732 0.412746,8.90028 1.22607,4.02873 1.40638,3.36691 1.75217,2.76452 2.22906,2.28001 2.71123,1.79014 3.31056,1.43787 3.967,1.25739 l 9.4e-4,-2.6e-4 C 4.5938,1.08373 5.74022,0.943476 7.151,0.835214 8.54736,0.728059 10.1603,0.654957 11.6931,0.605188 13.2251,0.555446 14.673,0.52914 15.7382,0.515274 16.2707,0.508343 16.7073,0.504523 17.0107,0.502437 17.1623,0.501393 17.2807,0.500784 17.361,0.500435 l 0.0914,-3.49e-4 0.0232,-6.8e-5 0.0058,-1.5e-5 9e-4,-3e-6 h 4e-4 0.0014 l 0.0058,3e-6 0.0232,2e-5 0.0914,1.59e-4 c 0.0804,1.83e-4 0.1987,5.49e-4 0.3503,0.001282 0.3034,0.001465 0.7399,0.004397 1.2724,0.010263 1.0651,0.011735 2.5129,0.0352 4.0449,0.082101 1.5327,0.046927 3.1455,0.117196 4.5417,0.222224 1.4108,0.106123 2.5568,0.245018 3.1822,0.418298 l 0.001,2.6e-4 c 0.6564,0.18048 1.2557,0.53273 1.7379,1.02257 0.4807,0.48839 0.8282,1.09656 1.0073,1.76464 1.1306,4.62767 0.8754,11.99948 0.0187,16.87098 -0.1802,0.6626 -0.5262,1.2658 -1.0037,1.7507 -0.4821,0.4899 -1.0815,0.8421 -1.7379,1.0226 l -0.001,2e-4 c -0.6254,0.1733 -1.7714,0.3122 -3.1822,0.4183 -1.3962,0.1051 -3.0089,0.1753 -4.5417,0.2223 -1.5319,0.0469 -2.9798,0.0703 -4.0449,0.0821 -0.5325,0.0058 -0.969,0.0088 -1.2724,0.0102 -0.1516,8e-4 -0.2699,0.0011 -0.3503,0.0013 l -0.0914,2e-4 H 17.5122 17.5064 17.505 Z"
       stroke="#000000"
       id="path2" />
    <path
       d="m 14.502,7.98884 7.5823,4.46146 -7.5823,4.4615 z"
       fill="#ffffff"
       stroke="#000000"
       id="path4" />
  </g>
  <defs
     id="defs11">
    <clipPath
       id="clip0_1125_8444">
      <rect
         width="35"
         height="25"
         fill="#ffffff"
         id="rect8"
         x="0"
         y="0" />
    </clipPath>
  </defs>
</svg>
