<svg width="52" height="52" viewBox="0 0 52 52" fill="none" xmlns="http://www.w3.org/2000/svg">
<path d="M26 29.25C27.7949 29.25 29.25 27.7949 29.25 26C29.25 24.2051 27.7949 22.75 26 22.75C24.2051 22.75 22.75 24.2051 22.75 26C22.75 27.7949 24.2051 29.25 26 29.25Z" fill="black"/>
<path d="M47.3845 24.9168C45.9978 22.5118 38.3712 10.4435 25.4145 10.8335C13.4328 11.1368 6.4995 21.6668 4.6145 24.9168C4.42433 25.2462 4.32422 25.6198 4.32422 26.0001C4.32422 26.3805 4.42433 26.7541 4.6145 27.0835C5.9795 29.4451 13.2812 41.1668 26.0428 41.1668H26.5845C38.5662 40.8635 45.5212 30.3335 47.3845 27.0835C47.5747 26.7541 47.6748 26.3805 47.6748 26.0001C47.6748 25.6198 47.5747 25.2462 47.3845 24.9168ZM25.9995 33.5835C24.4997 33.5835 23.0335 33.1387 21.7864 32.3054C20.5394 31.4722 19.5674 30.2878 18.9934 28.9021C18.4194 27.5165 18.2693 25.9917 18.5619 24.5207C18.8545 23.0497 19.5767 21.6985 20.6373 20.6379C21.6978 19.5774 23.049 18.8551 24.5201 18.5625C25.9911 18.2699 27.5158 18.4201 28.9015 18.994C30.2872 19.568 31.4715 20.54 32.3048 21.7871C33.1381 23.0341 33.5828 24.5003 33.5828 26.0001C33.5828 28.0114 32.7839 29.9402 31.3617 31.3624C29.9396 32.7845 28.0107 33.5835 25.9995 33.5835Z" fill="black"/>
</svg>
