<svg width="38" height="38" viewBox="0 0 38 38" fill="none" xmlns="http://www.w3.org/2000/svg">
<g filter="url(#filter0_d_555_925)">
<circle cx="19" cy="17" r="15" fill="#004441"/>
</g>
<path d="M23.1667 14.5C23.1667 13.3949 22.7277 12.3351 21.9463 11.5537C21.1649 10.7723 20.1051 10.3333 19 10.3333C17.8949 10.3333 16.8351 10.7723 16.0537 11.5537C15.2723 12.3351 14.8333 13.3949 14.8333 14.5C14.8333 14.721 14.9211 14.933 15.0774 15.0893C15.2337 15.2455 15.4457 15.3333 15.6667 15.3333C15.8877 15.3333 16.0996 15.2455 16.2559 15.0893C16.4122 14.933 16.5 14.721 16.5 14.5C16.5 14.0056 16.6466 13.5222 16.9213 13.1111C17.196 12.7 17.5865 12.3795 18.0433 12.1903C18.5001 12.0011 19.0028 11.9516 19.4877 12.048C19.9727 12.1445 20.4181 12.3826 20.7678 12.7322C21.1174 13.0819 21.3555 13.5273 21.452 14.0123C21.5484 14.4972 21.4989 14.9999 21.3097 15.4567C21.1205 15.9135 20.8001 16.304 20.3889 16.5787C19.9778 16.8534 19.4945 17 19 17C18.779 17 18.567 17.0878 18.4107 17.2441C18.2545 17.4004 18.1667 17.6123 18.1667 17.8333V19.5C18.1667 19.721 18.2545 19.933 18.4107 20.0893C18.567 20.2455 18.779 20.3333 19 20.3333C19.221 20.3333 19.433 20.2455 19.5893 20.0893C19.7455 19.933 19.8333 19.721 19.8333 19.5V18.5833C20.7745 18.3912 21.6203 17.8799 22.2278 17.1358C22.8352 16.3917 23.1669 15.4606 23.1667 14.5Z" fill="white"/>
<path d="M19 23.6667C19.4602 23.6667 19.8333 23.2936 19.8333 22.8333C19.8333 22.3731 19.4602 22 19 22C18.5398 22 18.1667 22.3731 18.1667 22.8333C18.1667 23.2936 18.5398 23.6667 19 23.6667Z" fill="white"/>
<defs>
<filter id="filter0_d_555_925" x="0" y="0" width="38" height="38" filterUnits="userSpaceOnUse" color-interpolation-filters="sRGB">
<feFlood flood-opacity="0" result="BackgroundImageFix"/>
<feColorMatrix in="SourceAlpha" type="matrix" values="0 0 0 0 0 0 0 0 0 0 0 0 0 0 0 0 0 0 127 0" result="hardAlpha"/>
<feOffset dy="2"/>
<feGaussianBlur stdDeviation="2"/>
<feComposite in2="hardAlpha" operator="out"/>
<feColorMatrix type="matrix" values="0 0 0 0 0 0 0 0 0 0 0 0 0 0 0 0 0 0 0.1 0"/>
<feBlend mode="normal" in2="BackgroundImageFix" result="effect1_dropShadow_555_925"/>
<feBlend mode="normal" in="SourceGraphic" in2="effect1_dropShadow_555_925" result="shape"/>
</filter>
</defs>
</svg>
