<svg width="48" height="48" viewBox="0 0 48 48" fill="none" xmlns="http://www.w3.org/2000/svg">
<path d="M36 44H12C10.9391 44 9.92172 43.5786 9.17157 42.8284C8.42143 42.0783 8 41.0609 8 40V7.99999C8 6.93912 8.42143 5.92171 9.17157 5.17156C9.92172 4.42142 10.9391 3.99999 12 3.99999H26C26.0179 3.99764 26.0361 3.99764 26.054 3.99999H26.066C26.0849 4.00589 26.1043 4.00991 26.124 4.01199C26.3 4.02399 26.474 4.05799 26.642 4.11399H26.726C26.7629 4.13983 26.7977 4.16859 26.83 4.19999C27.0479 4.29688 27.2464 4.43239 27.416 4.59999L39.416 16.6C39.5836 16.7696 39.7192 16.9681 39.816 17.186C39.8334 17.2292 39.8488 17.2733 39.862 17.318L39.882 17.374C39.938 17.54 39.97 17.714 39.98 17.89C39.9817 17.9099 39.9865 17.9295 39.994 17.948V17.96C39.9972 17.9731 39.9992 17.9865 40 18V40C40 41.0609 39.5786 42.0783 38.8284 42.8284C38.0783 43.5786 37.0609 44 36 44ZM28.848 28V38H30.728V33.92H33.648V32.244H30.728V29.682H34V28H28.848ZM21.448 28V38H23.86C24.3596 38.0247 24.8583 37.9369 25.3194 37.743C25.7805 37.5492 26.1922 37.2542 26.524 36.88C27.2138 35.9998 27.5593 34.8985 27.496 33.782V32.162C27.5425 31.0572 27.1873 29.973 26.496 29.11C25.846 28.37 24.896 27.962 23.91 28H21.448V28ZM14 28V38H15.88V34.482H17.132C17.968 34.528 18.784 34.218 19.38 33.63C19.9478 32.9946 20.2424 32.1611 20.2 31.31C20.2371 30.4384 19.9427 29.5852 19.376 28.922C19.0992 28.615 18.7578 28.3731 18.3764 28.2137C17.9949 28.0543 17.583 27.9813 17.17 28H14ZM26 7.99999V18H36L26 7.99999ZM23.892 36.324H23.328V29.682H24.012C24.251 29.6679 24.4898 29.714 24.7064 29.816C24.923 29.918 25.1106 30.0727 25.252 30.266C25.546 30.872 25.672 31.546 25.616 32.218V33.956C25.66 34.596 25.522 35.236 25.216 35.798C25.0545 35.9865 24.8496 36.1329 24.619 36.2245C24.3883 36.3161 24.1388 36.3503 23.892 36.324V36.324ZM17.17 32.8H15.878V29.682H17.188C17.3489 29.6837 17.5067 29.7263 17.6466 29.8057C17.7865 29.8851 17.904 29.9988 17.988 30.136C18.204 30.494 18.308 30.906 18.288 31.324C18.3131 31.713 18.2098 32.0994 17.994 32.424C17.8959 32.5471 17.7702 32.6453 17.627 32.7106C17.4838 32.776 17.3272 32.8066 17.17 32.8Z" fill="white"/>
</svg>
