<svg width="100" height="138" viewBox="0 0 100 138" fill="none" xmlns="http://www.w3.org/2000/svg">
<g clip-path="url(#clip0_526_966)">
<path d="M89.8054 16.6667C89.4268 16.6277 89.0451 16.6277 88.6665 16.6667H10.8887C10.3902 16.6744 9.89505 16.7491 9.4165 16.8889L49.5554 56.8612L89.8054 16.6667Z" fill="black"/>
<path d="M93.9169 20.5278L53.4724 60.8056C52.4315 61.8403 51.0235 62.4211 49.5558 62.4211C48.0881 62.4211 46.68 61.8403 45.6391 60.8056L5.55577 20.8334C5.43255 21.2863 5.36721 21.753 5.36133 22.2223V77.7778C5.36133 79.2513 5.94664 80.6643 6.98851 81.7062C8.03038 82.7481 9.44346 83.3334 10.9169 83.3334H88.6947C90.1681 83.3334 91.5812 82.7481 92.623 81.7062C93.6649 80.6643 94.2502 79.2513 94.2502 77.7778V22.2223C94.2281 21.6435 94.1156 21.0718 93.9169 20.5278ZM14.7224 77.7778H10.8613V73.8056L31.0558 53.7778L34.9724 57.6945L14.7224 77.7778ZM88.6391 77.7778H84.7502L64.5002 57.6945L68.4169 53.7778L88.6113 73.8056L88.6391 77.7778Z" fill="black"/>
</g>
<path d="M29.088 128.232L29.072 131H14.832V108.024H29.072V110.792H18.256V118.072H26.96V120.744H18.256V128.232H29.088ZM32.2545 131V114.744H34.1265C34.5638 114.744 34.8358 114.952 34.9425 115.368L35.1665 116.92C35.7638 116.205 36.4252 115.624 37.1505 115.176C37.8865 114.717 38.7452 114.488 39.7265 114.488C40.8038 114.488 41.6785 114.787 42.3505 115.384C43.0225 115.971 43.5132 116.771 43.8225 117.784C44.0572 117.208 44.3612 116.712 44.7345 116.296C45.1078 115.88 45.5238 115.539 45.9825 115.272C46.4412 115.005 46.9265 114.808 47.4385 114.68C47.9612 114.552 48.4892 114.488 49.0225 114.488C49.8865 114.488 50.6545 114.627 51.3265 114.904C52.0092 115.171 52.5852 115.565 53.0545 116.088C53.5238 116.611 53.8812 117.256 54.1265 118.024C54.3718 118.792 54.4945 119.667 54.4945 120.648V131H51.3585V120.648C51.3585 119.432 51.0918 118.515 50.5585 117.896C50.0358 117.277 49.2678 116.968 48.2545 116.968C47.8065 116.968 47.3798 117.048 46.9745 117.208C46.5692 117.357 46.2118 117.587 45.9025 117.896C45.6038 118.205 45.3638 118.589 45.1825 119.048C45.0118 119.507 44.9265 120.04 44.9265 120.648V131H41.7905V120.648C41.7905 119.389 41.5398 118.461 41.0385 117.864C40.5372 117.267 39.8012 116.968 38.8305 116.968C38.1585 116.968 37.5345 117.144 36.9585 117.496C36.3825 117.848 35.8545 118.328 35.3745 118.936V131H32.2545ZM67.428 123.784C66.1587 123.827 65.0813 123.928 64.196 124.088C63.3107 124.237 62.5907 124.44 62.036 124.696C61.4813 124.952 61.0813 125.256 60.836 125.608C60.5907 125.949 60.468 126.333 60.468 126.76C60.468 127.165 60.532 127.517 60.66 127.816C60.7987 128.104 60.98 128.344 61.204 128.536C61.4387 128.717 61.7107 128.851 62.02 128.936C62.3293 129.021 62.6653 129.064 63.028 129.064C63.508 129.064 63.9453 129.016 64.34 128.92C64.7453 128.824 65.124 128.691 65.476 128.52C65.828 128.339 66.164 128.12 66.484 127.864C66.804 127.608 67.1187 127.315 67.428 126.984V123.784ZM58.276 117.016C59.1827 116.152 60.164 115.507 61.22 115.08C62.2867 114.653 63.4547 114.44 64.724 114.44C65.652 114.44 66.4733 114.595 67.188 114.904C67.9027 115.203 68.5053 115.624 68.996 116.168C69.4867 116.712 69.8547 117.363 70.1 118.12C70.356 118.877 70.484 119.715 70.484 120.632V131H69.092C68.7827 131 68.548 130.952 68.388 130.856C68.228 130.749 68.1 130.557 68.004 130.28L67.668 128.856C67.252 129.24 66.8413 129.581 66.436 129.88C66.0307 130.168 65.604 130.419 65.156 130.632C64.7187 130.835 64.2493 130.989 63.748 131.096C63.2467 131.203 62.692 131.256 62.084 131.256C61.444 131.256 60.8413 131.171 60.276 131C59.7213 130.819 59.236 130.547 58.82 130.184C58.404 129.821 58.0733 129.368 57.828 128.824C57.5933 128.28 57.476 127.645 57.476 126.92C57.476 126.28 57.6467 125.667 57.988 125.08C58.34 124.483 58.9053 123.949 59.684 123.48C60.4733 123.011 61.4973 122.627 62.756 122.328C64.0253 122.029 65.5827 121.859 67.428 121.816V120.632C67.428 119.405 67.1667 118.488 66.644 117.88C66.1213 117.272 65.3533 116.968 64.34 116.968C63.6573 116.968 63.0813 117.053 62.612 117.224C62.1533 117.395 61.7533 117.587 61.412 117.8C61.0813 118.003 60.788 118.189 60.532 118.36C60.2867 118.531 60.0307 118.616 59.764 118.616C59.5507 118.616 59.364 118.557 59.204 118.44C59.0547 118.323 58.932 118.184 58.836 118.024L58.276 117.016ZM77.9248 114.744V131H74.8048V114.744H77.9248ZM78.5168 109.72C78.5168 110.008 78.4581 110.285 78.3408 110.552C78.2234 110.808 78.0634 111.037 77.8608 111.24C77.6688 111.432 77.4394 111.587 77.1727 111.704C76.9061 111.811 76.6288 111.864 76.3408 111.864C76.0528 111.864 75.7808 111.811 75.5248 111.704C75.2688 111.587 75.0394 111.432 74.8368 111.24C74.6448 111.037 74.4901 110.808 74.3728 110.552C74.2661 110.285 74.2128 110.008 74.2128 109.72C74.2128 109.421 74.2661 109.144 74.3728 108.888C74.4901 108.621 74.6448 108.392 74.8368 108.2C75.0394 107.997 75.2688 107.843 75.5248 107.736C75.7808 107.619 76.0528 107.56 76.3408 107.56C76.6288 107.56 76.9061 107.619 77.1727 107.736C77.4394 107.843 77.6688 107.997 77.8608 108.2C78.0634 108.392 78.2234 108.621 78.3408 108.888C78.4581 109.144 78.5168 109.421 78.5168 109.72ZM85.642 107.384V131H82.506V107.384H85.642Z" fill="black"/>
<defs>
<clipPath id="clip0_526_966">
<rect width="100" height="100" fill="white"/>
</clipPath>
</defs>
</svg>
