<svg width="145" height="128" viewBox="0 0 145 128" fill="none" xmlns="http://www.w3.org/2000/svg">
<path fill-rule="evenodd" clip-rule="evenodd" d="M91.3294 47.9401C90.3312 47.4434 85.4378 45.0501 84.5268 44.7167C83.6157 44.3867 82.9526 44.2234 82.286 45.2167C81.6229 46.2034 79.7171 48.4367 79.1376 49.0967C78.5548 49.7601 77.9754 49.8401 76.9806 49.3467C75.9859 48.8467 72.7772 47.8034 68.9756 44.4301C66.0181 41.8034 64.0186 38.5601 63.4391 37.5667C62.8597 36.5767 63.3755 36.0401 63.8745 35.5467C64.3233 35.1034 64.8693 34.3901 65.3684 33.8134C65.8674 33.2334 66.0315 32.8201 66.3631 32.1568C66.6981 31.4968 66.5306 30.9201 66.2794 30.4234C66.0315 29.9268 64.042 25.0501 63.2114 23.0668C62.4042 21.1368 61.5836 21.4001 60.974 21.3668C60.3912 21.3401 59.728 21.3334 59.0648 21.3334C58.4017 21.3334 57.3232 21.5801 56.4121 22.5734C55.4977 23.5634 52.9288 25.9601 52.9288 30.8368C52.9288 35.7101 56.4925 40.4201 56.9916 41.0834C57.4906 41.7434 64.0085 51.75 73.993 56.04C76.371 57.06 78.2233 57.67 79.6668 58.1234C82.0516 58.88 84.222 58.7734 85.9369 58.5167C87.846 58.2334 91.8251 56.12 92.6557 53.8067C93.483 51.4934 93.483 49.5101 93.2351 49.0967C92.9873 48.6834 92.3241 48.4367 91.326 47.9401H91.3294ZM73.169 72.6167H73.1556C67.2253 72.6178 61.4039 71.0312 56.3016 68.0234L55.0958 67.31L42.5625 70.5833L45.9085 58.4234L45.1214 57.1767C41.806 51.9245 40.0514 45.846 40.0605 39.6434C40.0672 21.4768 54.9183 6.69679 73.1824 6.69679C82.0248 6.69679 90.3379 10.1301 96.5879 16.3568C99.6706 19.412 102.114 23.0453 103.777 27.0464C105.439 31.0475 106.288 35.337 106.274 39.6667C106.268 57.8334 91.4164 72.6167 73.169 72.6167V72.6167ZM101.344 11.6268C97.6536 7.92987 93.2627 4.99858 88.4257 3.0028C83.5888 1.00701 78.4019 -0.0135875 73.1657 0.000136592C51.2139 0.000136592 33.3416 17.7834 33.3349 39.6401C33.3248 46.5959 35.1583 53.4313 38.6504 59.4567L33 80L54.1145 74.4867C59.9553 77.6537 66.5008 79.3132 73.1523 79.3133H73.169C95.1208 79.3133 112.993 61.53 113 39.6701C113.016 34.461 111.994 29.3004 109.994 24.4869C107.993 19.6733 105.053 15.3023 101.344 11.6268" fill="black"/>
<path d="M32.832 98.024L25.664 121H22.592L16.992 103.96C16.864 103.619 16.752 103.208 16.656 102.728C16.5387 103.219 16.4267 103.629 16.32 103.96L10.656 121H7.6L0.432 98.024H3.28C3.57867 98.024 3.82933 98.0987 4.032 98.248C4.23467 98.3867 4.368 98.5787 4.432 98.824L8.96 114.2C9.04533 114.499 9.12 114.824 9.184 115.176C9.25867 115.528 9.33333 115.896 9.408 116.28C9.48267 115.896 9.55733 115.528 9.632 115.176C9.71733 114.824 9.81333 114.499 9.92 114.2L15.104 98.824C15.168 98.6107 15.3013 98.424 15.504 98.264C15.7173 98.104 15.968 98.024 16.256 98.024H17.232C17.5307 98.024 17.776 98.0987 17.968 98.248C18.16 98.3973 18.2987 98.5893 18.384 98.824L23.552 114.2C23.744 114.787 23.9147 115.453 24.064 116.2C24.192 115.464 24.3307 114.797 24.48 114.2L29.024 98.824C29.0773 98.6107 29.2107 98.424 29.424 98.264C29.6373 98.104 29.888 98.024 30.176 98.024H32.832ZM38.3745 106.808C39.0572 106.115 39.8092 105.555 40.6305 105.128C41.4625 104.701 42.4172 104.488 43.4945 104.488C44.3905 104.488 45.1745 104.637 45.8465 104.936C46.5292 105.235 47.0998 105.656 47.5585 106.2C48.0172 106.733 48.3638 107.379 48.5985 108.136C48.8332 108.893 48.9505 109.731 48.9505 110.648V121H45.8145V110.648C45.8145 109.485 45.5478 108.584 45.0145 107.944C44.4812 107.293 43.6652 106.968 42.5665 106.968C41.7665 106.968 41.0145 107.16 40.3105 107.544C39.6172 107.917 38.9718 108.429 38.3745 109.08V121H35.2545V97.384H38.3745V106.808ZM61.8968 113.784C60.6274 113.827 59.5501 113.928 58.6648 114.088C57.7794 114.237 57.0594 114.44 56.5048 114.696C55.9501 114.952 55.5501 115.256 55.3048 115.608C55.0594 115.949 54.9368 116.333 54.9368 116.76C54.9368 117.165 55.0008 117.517 55.1288 117.816C55.2674 118.104 55.4488 118.344 55.6727 118.536C55.9074 118.717 56.1794 118.851 56.4888 118.936C56.7981 119.021 57.1341 119.064 57.4968 119.064C57.9768 119.064 58.4141 119.016 58.8088 118.92C59.2141 118.824 59.5928 118.691 59.9448 118.52C60.2968 118.339 60.6328 118.12 60.9528 117.864C61.2728 117.608 61.5874 117.315 61.8968 116.984V113.784ZM52.7448 107.016C53.6514 106.152 54.6328 105.507 55.6888 105.08C56.7554 104.653 57.9234 104.44 59.1927 104.44C60.1208 104.44 60.9421 104.595 61.6568 104.904C62.3714 105.203 62.9741 105.624 63.4648 106.168C63.9554 106.712 64.3234 107.363 64.5688 108.12C64.8248 108.877 64.9528 109.715 64.9528 110.632V121H63.5608C63.2514 121 63.0168 120.952 62.8568 120.856C62.6968 120.749 62.5688 120.557 62.4728 120.28L62.1368 118.856C61.7208 119.24 61.3101 119.581 60.9048 119.88C60.4994 120.168 60.0728 120.419 59.6248 120.632C59.1874 120.835 58.7181 120.989 58.2168 121.096C57.7154 121.203 57.1608 121.256 56.5528 121.256C55.9128 121.256 55.3101 121.171 54.7448 121C54.1901 120.819 53.7048 120.547 53.2888 120.184C52.8728 119.821 52.5421 119.368 52.2968 118.824C52.0621 118.28 51.9448 117.645 51.9448 116.92C51.9448 116.28 52.1154 115.667 52.4568 115.08C52.8088 114.483 53.3741 113.949 54.1528 113.48C54.9421 113.011 55.9661 112.627 57.2248 112.328C58.4941 112.029 60.0514 111.859 61.8968 111.816V110.632C61.8968 109.405 61.6354 108.488 61.1128 107.88C60.5901 107.272 59.8221 106.968 58.8088 106.968C58.1261 106.968 57.5501 107.053 57.0808 107.224C56.6221 107.395 56.2221 107.587 55.8808 107.8C55.5501 108.003 55.2568 108.189 55.0008 108.36C54.7554 108.531 54.4994 108.616 54.2328 108.616C54.0194 108.616 53.8328 108.557 53.6728 108.44C53.5234 108.323 53.4008 108.184 53.3048 108.024L52.7448 107.016ZM73.9988 121.256C72.6868 121.256 71.6734 120.888 70.9588 120.152C70.2548 119.416 69.9028 118.365 69.9028 117V107.272H68.0148C67.8334 107.272 67.6788 107.219 67.5508 107.112C67.4334 106.995 67.3748 106.824 67.3748 106.6V105.336L70.0148 104.968L70.7188 100.12C70.7614 99.9387 70.8414 99.8 70.9588 99.704C71.0868 99.5973 71.2468 99.544 71.4388 99.544H73.0228V105H77.6308V107.272H73.0228V116.792C73.0228 117.432 73.1774 117.912 73.4868 118.232C73.8068 118.541 74.2121 118.696 74.7028 118.696C74.9908 118.696 75.2361 118.659 75.4388 118.584C75.6521 118.509 75.8334 118.429 75.9828 118.344C76.1321 118.248 76.2601 118.163 76.3668 118.088C76.4734 118.013 76.5694 117.976 76.6548 117.976C76.7614 117.976 76.8414 118.003 76.8948 118.056C76.9588 118.099 77.0228 118.173 77.0868 118.28L78.0148 119.784C77.5028 120.253 76.8948 120.616 76.1908 120.872C75.4868 121.128 74.7561 121.256 73.9988 121.256ZM90.0885 107.544C90.0032 107.683 89.9125 107.784 89.8165 107.848C89.7205 107.901 89.5978 107.928 89.4485 107.928C89.2778 107.928 89.0858 107.869 88.8725 107.752C88.6698 107.635 88.4192 107.507 88.1205 107.368C87.8325 107.229 87.4912 107.101 87.0965 106.984C86.7018 106.867 86.2325 106.808 85.6885 106.808C85.2405 106.808 84.8298 106.867 84.4565 106.984C84.0938 107.091 83.7845 107.245 83.5285 107.448C83.2725 107.64 83.0752 107.875 82.9365 108.152C82.7978 108.419 82.7285 108.707 82.7285 109.016C82.7285 109.421 82.8458 109.757 83.0805 110.024C83.3258 110.291 83.6405 110.52 84.0245 110.712C84.4192 110.904 84.8618 111.08 85.3525 111.24C85.8538 111.389 86.3605 111.549 86.8725 111.72C87.3952 111.891 87.9018 112.088 88.3925 112.312C88.8938 112.525 89.3365 112.797 89.7205 113.128C90.1152 113.448 90.4298 113.837 90.6645 114.296C90.9098 114.755 91.0325 115.315 91.0325 115.976C91.0325 116.733 90.8938 117.437 90.6165 118.088C90.3498 118.728 89.9498 119.283 89.4165 119.752C88.8938 120.221 88.2432 120.589 87.4645 120.856C86.6858 121.123 85.7952 121.256 84.7925 121.256C83.6725 121.256 82.6378 121.069 81.6885 120.696C80.7392 120.323 79.9445 119.848 79.3045 119.272L80.0405 118.072C80.1258 117.923 80.2325 117.811 80.3605 117.736C80.4885 117.651 80.6592 117.608 80.8725 117.608C81.0752 117.608 81.2832 117.683 81.4965 117.832C81.7098 117.981 81.9658 118.147 82.2645 118.328C82.5632 118.499 82.9258 118.659 83.3525 118.808C83.7792 118.947 84.3125 119.016 84.9525 119.016C85.4858 119.016 85.9498 118.952 86.3445 118.824C86.7392 118.685 87.0645 118.504 87.3205 118.28C87.5872 118.045 87.7845 117.779 87.9125 117.48C88.0405 117.181 88.1045 116.867 88.1045 116.536C88.1045 116.109 87.9818 115.757 87.7365 115.48C87.5018 115.192 87.1872 114.947 86.7925 114.744C86.4085 114.541 85.9658 114.365 85.4645 114.216C84.9632 114.067 84.4512 113.907 83.9285 113.736C83.4058 113.565 82.8938 113.368 82.3925 113.144C81.8912 112.92 81.4432 112.637 81.0485 112.296C80.6645 111.955 80.3498 111.539 80.1045 111.048C79.8698 110.557 79.7525 109.96 79.7525 109.256C79.7525 108.627 79.8805 108.024 80.1365 107.448C80.4032 106.872 80.7818 106.365 81.2725 105.928C81.7738 105.491 82.3872 105.144 83.1125 104.888C83.8485 104.621 84.6858 104.488 85.6245 104.488C86.7018 104.488 87.6725 104.659 88.5365 105C89.4112 105.341 90.1578 105.811 90.7765 106.408L90.0885 107.544ZM103.147 113.784C101.877 113.827 100.8 113.928 99.9148 114.088C99.0294 114.237 98.3094 114.44 97.7548 114.696C97.2001 114.952 96.8001 115.256 96.5548 115.608C96.3094 115.949 96.1868 116.333 96.1868 116.76C96.1868 117.165 96.2508 117.517 96.3788 117.816C96.5174 118.104 96.6988 118.344 96.9227 118.536C97.1574 118.717 97.4294 118.851 97.7388 118.936C98.0481 119.021 98.3841 119.064 98.7468 119.064C99.2268 119.064 99.6641 119.016 100.059 118.92C100.464 118.824 100.843 118.691 101.195 118.52C101.547 118.339 101.883 118.12 102.203 117.864C102.523 117.608 102.837 117.315 103.147 116.984V113.784ZM93.9948 107.016C94.9014 106.152 95.8828 105.507 96.9388 105.08C98.0054 104.653 99.1734 104.44 100.443 104.44C101.371 104.44 102.192 104.595 102.907 104.904C103.621 105.203 104.224 105.624 104.715 106.168C105.205 106.712 105.573 107.363 105.819 108.12C106.075 108.877 106.203 109.715 106.203 110.632V121H104.811C104.501 121 104.267 120.952 104.107 120.856C103.947 120.749 103.819 120.557 103.723 120.28L103.387 118.856C102.971 119.24 102.56 119.581 102.155 119.88C101.749 120.168 101.323 120.419 100.875 120.632C100.437 120.835 99.9681 120.989 99.4668 121.096C98.9654 121.203 98.4108 121.256 97.8028 121.256C97.1628 121.256 96.5601 121.171 95.9948 121C95.4401 120.819 94.9548 120.547 94.5388 120.184C94.1228 119.821 93.7921 119.368 93.5468 118.824C93.3121 118.28 93.1948 117.645 93.1948 116.92C93.1948 116.28 93.3654 115.667 93.7068 115.08C94.0588 114.483 94.6241 113.949 95.4028 113.48C96.1921 113.011 97.2161 112.627 98.4748 112.328C99.7441 112.029 101.301 111.859 103.147 111.816V110.632C103.147 109.405 102.885 108.488 102.363 107.88C101.84 107.272 101.072 106.968 100.059 106.968C99.3761 106.968 98.8001 107.053 98.3308 107.224C97.8721 107.395 97.4721 107.587 97.1308 107.8C96.8001 108.003 96.5068 108.189 96.2508 108.36C96.0054 108.531 95.7494 108.616 95.4828 108.616C95.2694 108.616 95.0828 108.557 94.9228 108.44C94.7734 108.323 94.6508 108.184 94.5548 108.024L93.9948 107.016ZM113.5 117C114.012 117.672 114.561 118.141 115.148 118.408C115.745 118.675 116.412 118.808 117.148 118.808C118.577 118.808 119.681 118.296 120.46 117.272C121.249 116.237 121.644 114.733 121.644 112.76C121.644 111.725 121.553 110.845 121.372 110.12C121.201 109.384 120.945 108.787 120.604 108.328C120.273 107.859 119.862 107.517 119.372 107.304C118.881 107.08 118.326 106.968 117.708 106.968C116.801 106.968 116.012 107.171 115.34 107.576C114.678 107.981 114.065 108.557 113.5 109.304V117ZM113.34 107.176C113.681 106.771 114.044 106.403 114.428 106.072C114.822 105.731 115.244 105.443 115.692 105.208C116.14 104.963 116.614 104.776 117.116 104.648C117.628 104.509 118.172 104.44 118.748 104.44C119.676 104.44 120.513 104.621 121.26 104.984C122.017 105.347 122.662 105.88 123.196 106.584C123.729 107.288 124.14 108.157 124.428 109.192C124.726 110.227 124.876 111.416 124.876 112.76C124.876 113.965 124.71 115.085 124.38 116.12C124.06 117.144 123.596 118.035 122.988 118.792C122.39 119.549 121.654 120.147 120.78 120.584C119.916 121.011 118.94 121.224 117.852 121.224C116.881 121.224 116.049 121.064 115.356 120.744C114.662 120.424 114.044 119.976 113.5 119.4V126.456H110.38V104.744H112.252C112.689 104.744 112.961 104.952 113.068 105.368L113.34 107.176ZM131.5 117C132.012 117.672 132.561 118.141 133.148 118.408C133.745 118.675 134.412 118.808 135.148 118.808C136.577 118.808 137.681 118.296 138.46 117.272C139.249 116.237 139.644 114.733 139.644 112.76C139.644 111.725 139.553 110.845 139.372 110.12C139.201 109.384 138.945 108.787 138.604 108.328C138.273 107.859 137.862 107.517 137.372 107.304C136.881 107.08 136.326 106.968 135.708 106.968C134.801 106.968 134.012 107.171 133.34 107.576C132.678 107.981 132.065 108.557 131.5 109.304V117ZM131.34 107.176C131.681 106.771 132.044 106.403 132.428 106.072C132.822 105.731 133.244 105.443 133.692 105.208C134.14 104.963 134.614 104.776 135.116 104.648C135.628 104.509 136.172 104.44 136.748 104.44C137.676 104.44 138.513 104.621 139.26 104.984C140.017 105.347 140.662 105.88 141.196 106.584C141.729 107.288 142.14 108.157 142.428 109.192C142.726 110.227 142.876 111.416 142.876 112.76C142.876 113.965 142.71 115.085 142.38 116.12C142.06 117.144 141.596 118.035 140.988 118.792C140.39 119.549 139.654 120.147 138.78 120.584C137.916 121.011 136.94 121.224 135.852 121.224C134.881 121.224 134.049 121.064 133.356 120.744C132.662 120.424 132.044 119.976 131.5 119.4V126.456H128.38V104.744H130.252C130.689 104.744 130.961 104.952 131.068 105.368L131.34 107.176Z" fill="black"/>
</svg>
