<svg width="20" height="22" viewBox="0 0 20 22" fill="none" xmlns="http://www.w3.org/2000/svg">
<path d="M19.6748 13.6645L18.1397 12.352C18.2123 11.9066 18.2498 11.452 18.2498 10.9973C18.2498 10.5426 18.2123 10.0879 18.1397 9.64258L19.6748 8.33008C19.7906 8.23095 19.8735 8.09893 19.9124 7.95156C19.9513 7.80419 19.9445 7.64846 19.8928 7.50508L19.8717 7.44414C19.4491 6.26295 18.8162 5.16797 18.0037 4.21211L17.9615 4.16289C17.863 4.047 17.7316 3.96369 17.5847 3.92394C17.4379 3.88419 17.2824 3.88987 17.1389 3.94023L15.2334 4.61758C14.5303 4.04102 13.7451 3.58633 12.8967 3.26758L12.5287 1.27539C12.501 1.12549 12.4282 0.987584 12.3202 0.879995C12.2122 0.772406 12.074 0.700227 11.924 0.673047L11.8607 0.661328C10.6397 0.441016 9.35528 0.441016 8.13418 0.661328L8.0709 0.673047C7.9209 0.700227 7.78271 0.772406 7.6747 0.879995C7.56669 0.987584 7.49398 1.12549 7.46622 1.27539L7.0959 3.27695C6.25424 3.59577 5.47043 4.05022 4.77559 4.62227L2.85606 3.94023C2.71254 3.88947 2.55698 3.88359 2.41003 3.92336C2.26309 3.96313 2.13173 4.04667 2.0334 4.16289L1.99122 4.21211C1.17968 5.16865 0.546941 6.26345 0.123247 7.44414L0.102153 7.50508C-0.0033156 7.79805 0.0834032 8.12617 0.320122 8.33008L1.87403 9.65664C1.80137 10.0973 1.76622 10.5473 1.76622 10.9949C1.76622 11.4449 1.80137 11.8949 1.87403 12.3332L0.320122 13.6598C0.204331 13.7589 0.121457 13.8909 0.0825219 14.0383C0.0435864 14.1857 0.0504336 14.3414 0.102153 14.4848L0.123247 14.5457C0.547466 15.727 1.17559 16.8168 1.99122 17.7777L2.0334 17.827C2.13197 17.9428 2.26333 18.0262 2.41019 18.0659C2.55704 18.1057 2.7125 18.1 2.85606 18.0496L4.77559 17.3676C5.47403 17.9418 6.2545 18.3965 7.0959 18.7129L7.46622 20.7145C7.49398 20.8644 7.56669 21.0023 7.6747 21.1098C7.78271 21.2174 7.9209 21.2896 8.0709 21.3168L8.13418 21.3285C9.3665 21.55 10.6284 21.55 11.8607 21.3285L11.924 21.3168C12.074 21.2896 12.2122 21.2174 12.3202 21.1098C12.4282 21.0023 12.501 20.8644 12.5287 20.7145L12.8967 18.7223C13.7448 18.4044 14.5344 17.9482 15.2334 17.3723L17.1389 18.0496C17.2824 18.1004 17.438 18.1063 17.5849 18.0665C17.7318 18.0267 17.8632 17.9432 17.9615 17.827L18.0037 17.7777C18.8193 16.8145 19.4475 15.727 19.8717 14.5457L19.8928 14.4848C19.9982 14.1965 19.9115 13.8684 19.6748 13.6645ZM16.4756 9.91914C16.5342 10.273 16.5647 10.6363 16.5647 10.9996C16.5647 11.3629 16.5342 11.7262 16.4756 12.0801L16.3209 13.0199L18.0717 14.5176C17.8063 15.129 17.4712 15.7079 17.0732 16.2426L14.8982 15.4715L14.1623 16.0762C13.6022 16.5355 12.9787 16.8965 12.3037 17.1496L11.4107 17.4848L10.9912 19.7582C10.3293 19.8332 9.66097 19.8332 8.99903 19.7582L8.5795 17.4801L7.69356 17.1402C7.02559 16.8871 6.4045 16.5262 5.84903 16.0691L5.11309 15.4621L2.92403 16.2402C2.52559 15.7035 2.19278 15.1246 1.92559 14.5152L3.69512 13.0035L3.54278 12.066C3.48653 11.7168 3.45606 11.3559 3.45606 10.9996C3.45606 10.641 3.48418 10.2824 3.54278 9.9332L3.69512 8.9957L1.92559 7.48398C2.19043 6.87227 2.52559 6.2957 2.92403 5.75898L5.11309 6.53711L5.84903 5.93008C6.4045 5.47305 7.02559 5.11211 7.69356 4.85898L8.58184 4.52383L9.00137 2.2457C9.65997 2.1707 10.3326 2.1707 10.9936 2.2457L11.4131 4.51914L12.3061 4.8543C12.9787 5.10742 13.6045 5.46836 14.1647 5.92773L14.9006 6.53242L17.0756 5.76133C17.474 6.29805 17.8068 6.87695 18.074 7.48633L16.3232 8.98398L16.4756 9.91914ZM9.99981 6.64023C7.72168 6.64023 5.87481 8.48711 5.87481 10.7652C5.87481 13.0434 7.72168 14.8902 9.99981 14.8902C12.2779 14.8902 14.1248 13.0434 14.1248 10.7652C14.1248 8.48711 12.2779 6.64023 9.99981 6.64023ZM11.8561 12.6215C11.6126 12.8656 11.3233 13.0593 11.0047 13.1912C10.6861 13.3231 10.3446 13.3908 9.99981 13.3902C9.29903 13.3902 8.64043 13.116 8.14356 12.6215C7.8994 12.378 7.70578 12.0887 7.57385 11.7701C7.44192 11.4515 7.37427 11.11 7.37481 10.7652C7.37481 10.0645 7.64903 9.40586 8.14356 8.90898C8.64043 8.41211 9.29903 8.14023 9.99981 8.14023C10.7006 8.14023 11.3592 8.41211 11.8561 8.90898C12.1002 9.15245 12.2938 9.44179 12.4258 9.76035C12.5577 10.0789 12.6253 10.4204 12.6248 10.7652C12.6248 11.466 12.3506 12.1246 11.8561 12.6215Z" fill="white"/>
</svg>
