<svg width="48" height="48" viewBox="0 0 48 48" fill="none" xmlns="http://www.w3.org/2000/svg">
<path d="M17.9203 28.5C16.4522 28.5001 15.0171 28.0649 13.7965 27.2494C12.5758 26.4339 11.6244 25.2747 11.0626 23.9184C10.5008 22.5621 10.3538 21.0697 10.6402 19.6298C10.9267 18.19 11.6336 16.8675 12.6718 15.8295L20.3308 8.1735C21.7228 6.78151 23.6107 5.9995 25.5793 5.9995C27.5478 5.9995 29.4358 6.78151 30.8278 8.1735C32.2198 9.56549 33.0018 11.4534 33.0018 13.422C33.0018 15.3906 32.2198 17.2785 30.8278 18.6705L29.9983 19.4985L27.8758 17.379L28.7113 16.5435C29.5376 15.7132 30.001 14.5892 29.9999 13.4178C29.9988 12.2464 29.5332 11.1232 28.7053 10.2945C27.8626 9.49032 26.7426 9.04164 25.5778 9.04164C24.413 9.04164 23.2929 9.49032 22.4503 10.2945L14.7943 17.9505C14.3833 18.361 14.0572 18.8486 13.8348 19.3852C13.6123 19.9219 13.4978 20.4971 13.4978 21.078C13.4978 21.6589 13.6123 22.2341 13.8348 22.7708C14.0572 23.3074 14.3833 23.795 14.7943 24.2055C15.6369 25.0097 16.757 25.4584 17.9218 25.4584C19.0866 25.4584 20.2066 25.0097 21.0493 24.2055L23.1703 26.3265C22.4823 27.0179 21.6641 27.5659 20.7629 27.939C19.8618 28.3121 18.8956 28.5028 17.9203 28.5V28.5Z" fill="black"/>
<path d="M29.9203 25.5C28.4522 25.5001 27.0171 25.0649 25.7965 24.2494C24.5758 23.4339 23.6244 22.2746 23.0626 20.9184C22.5008 19.5621 22.3538 18.0697 22.6402 16.6298C22.9267 15.19 23.6336 13.8675 24.6718 12.8295L25.5013 12.0015L27.6223 14.124L26.7943 14.952C25.965 15.7813 25.4992 16.906 25.4992 18.0787C25.4992 19.2515 25.965 20.3762 26.7943 21.2055C27.6369 22.0097 28.757 22.4584 29.9218 22.4584C31.0866 22.4584 32.2066 22.0097 33.0493 21.2055L40.7068 13.548C41.5345 12.7182 41.9993 11.594 41.9993 10.422C41.9993 9.24998 41.5345 8.1258 40.7068 7.296C39.8641 6.49182 38.7441 6.04314 37.5793 6.04314C36.4145 6.04314 35.2944 6.49182 34.4518 7.296L32.3308 5.1735C33.7228 3.78151 35.6107 2.9995 37.5793 2.9995C39.5478 2.9995 41.4358 3.78151 42.8278 5.1735C44.2198 6.56549 45.0018 8.45343 45.0018 10.422C45.0018 12.3906 44.2198 14.2785 42.8278 15.6705L35.1718 23.325C34.4838 24.0165 33.6656 24.5647 32.7645 24.9381C31.8634 25.3114 30.8972 25.5024 29.9218 25.5H29.9203Z" fill="black"/>
<path d="M36 45H6C5.20459 44.9992 4.44199 44.6829 3.87956 44.1204C3.31712 43.558 3.00079 42.7954 3 42V12C3.00079 11.2046 3.31712 10.442 3.87956 9.87956C4.44199 9.31712 5.20459 9.00079 6 9H12V12H6V42H36V27H39V42C38.9992 42.7954 38.6829 43.558 38.1204 44.1204C37.558 44.6829 36.7954 44.9992 36 45V45Z" fill="black"/>
</svg>
