<svg width="36" height="36" viewBox="0 0 36 36" fill="none" xmlns="http://www.w3.org/2000/svg">
<path d="M16.6155 0C8.8783 0 1.72815 4.81431 3.07261 16.2692C2.83307 16.4603 2.60184 16.6652 2.42323 16.9186C1.72677 17.9017 1.38477 19.1797 1.38477 20.5532C1.38477 22.2771 2.40107 23.6035 3.46169 24.5769C4.23707 25.29 5.03046 25.7871 5.92769 26.0488C6.63384 28.3195 7.934 30.2026 9.47646 31.5C9.61368 31.6299 9.77606 31.7304 9.95359 31.7952C10.1311 31.8601 10.32 31.8879 10.5087 31.8769C10.6974 31.866 10.8818 31.8165 11.0506 31.7316C11.2195 31.6467 11.3692 31.5281 11.4904 31.3832C11.6117 31.2382 11.702 31.07 11.7558 30.8888C11.8096 30.7076 11.8258 30.5174 11.8033 30.3297C11.7808 30.1421 11.7201 29.961 11.6249 29.7977C11.5298 29.6344 11.4023 29.4923 11.2501 29.3802C9.85723 28.2074 8.69276 26.6414 8.26492 24.6198C8.19639 24.3145 8.02645 24.0414 7.7828 23.845C7.53915 23.6486 7.23616 23.5406 6.92323 23.5385C7.09353 23.5385 6.02877 23.1923 5.32261 22.5429C4.61646 21.8949 4.154 21.0822 4.154 20.5532C4.154 19.9108 4.30769 19.3735 4.50015 18.9526C4.68821 19.1661 4.93746 19.3165 5.214 19.3833C5.49055 19.4501 5.78095 19.43 6.04572 19.326C6.31049 19.2219 6.53677 19.0387 6.69378 18.8015C6.85079 18.5642 6.9309 18.2844 6.92323 18V16.8314C6.92527 16.788 6.92527 16.7446 6.92323 16.7012C6.97861 15.714 7.10877 14.8071 7.3123 13.9763C9.22169 13.32 10.8112 14.3848 12.4617 9.51923C14.8709 16.6818 21.11 12.5848 25.3995 12.3757C25.9035 13.6011 26.2165 15.0411 26.3078 16.7012C26.3058 16.7446 26.3058 16.788 26.3078 16.8314V18C26.3078 18.3672 26.4537 18.7194 26.7134 18.9791C26.9731 19.2387 27.3252 19.3846 27.6925 19.3846V22.8032C27.0915 23.2754 26.4255 23.5385 26.3078 23.5385C25.9949 23.5406 25.6919 23.6486 25.4483 23.845C25.2046 24.0414 25.0347 24.3145 24.9661 24.6198C24.6837 25.9574 24.0551 27.0831 23.2797 28.0385C23.1632 28.1805 23.0759 28.344 23.0226 28.5198C22.9694 28.6956 22.9513 28.8801 22.9693 29.0629C22.9874 29.2456 23.0413 29.4231 23.1279 29.585C23.2145 29.7469 23.3322 29.8902 23.4742 30.0067C23.6162 30.1232 23.7798 30.2105 23.9556 30.2638C24.1313 30.317 24.3159 30.3351 24.4986 30.3171C24.6814 30.299 24.8588 30.2451 25.0208 30.1585C25.1827 30.0718 25.326 29.9542 25.4425 29.8122C26.2732 28.7889 26.8243 27.45 27.2605 26.0488C28.0832 25.841 28.8509 25.4569 29.5105 24.9231H30.4617C30.1225 26.6968 29.498 28.0357 28.8611 28.9911C27.9611 30.3411 27.1857 30.8132 27.1303 30.8506C27.0901 30.8714 26.5986 31.1414 25.1821 31.4571C24.1021 31.6966 22.5472 31.9528 20.4661 32.0622C20.1878 30.5183 18.5706 29.3372 16.6155 29.3372C14.4638 29.3372 12.7206 30.7703 12.7206 32.5385C12.7206 34.3066 14.4652 35.7411 16.6155 35.7411C17.96 35.7411 19.1605 35.1651 19.8611 34.3122C22.4226 34.2097 24.3694 33.9162 25.7028 33.6198C27.3449 33.2557 28.1674 32.8417 28.1674 32.8417C28.2132 32.8158 28.2572 32.7866 28.2989 32.7545C28.2989 32.7545 29.534 31.9168 30.6777 30.2026C31.6026 28.8152 32.5192 26.8034 32.8418 24.1449C33.8498 23.3903 34.4854 22.1566 34.4854 20.7692V18C34.4854 15.7057 32.7546 13.8462 30.4617 13.8462H30.2457C30.2512 4.15662 23.7795 0 16.6155 0ZM28.6008 13.6731C28.6423 13.7312 28.6908 13.7838 28.7309 13.8462H28.6008C28.5897 13.7894 28.6132 13.7298 28.6008 13.6731ZM11.0771 16.6154C10.3426 16.6154 9.63826 16.9071 9.11893 17.4265C8.5996 17.9458 8.30784 18.6502 8.30784 19.3846C8.30784 20.1191 8.5996 20.8234 9.11893 21.3428C9.63826 21.8621 10.3426 22.1538 11.0771 22.1538C11.8115 22.1538 12.5159 21.8621 13.0352 21.3428C13.5545 20.8234 13.8463 20.1191 13.8463 19.3846C13.8463 18.6502 13.5545 17.9458 13.0352 17.4265C12.5159 16.9071 11.8115 16.6154 11.0771 16.6154ZM22.154 16.6154C21.4195 16.6154 20.7152 16.9071 20.1959 17.4265C19.6765 17.9458 19.3848 18.6502 19.3848 19.3846C19.3848 20.1191 19.6765 20.8234 20.1959 21.3428C20.7152 21.8621 21.4195 22.1538 22.154 22.1538C22.8884 22.1538 23.5928 21.8621 24.1121 21.3428C24.6315 20.8234 24.9232 20.1191 24.9232 19.3846C24.9232 18.6502 24.6315 17.9458 24.1121 17.4265C23.5928 16.9071 22.8884 16.6154 22.154 16.6154Z" fill="black"/>
</svg>
