<svg width="29" height="29" viewBox="0 0 29 29" fill="none" xmlns="http://www.w3.org/2000/svg">
<path d="M14.8938 3.72473V3.72918H14.3938H5.68933C5.41668 3.72918 5.15359 3.72922 4.89185 3.7378L14.8938 3.72473ZM14.8938 3.72473H23.5919C23.9435 3.72473 24.1996 3.78299 24.4127 3.93928L24.4217 3.9459L24.431 3.95211C24.7474 4.16303 24.94 4.51682 24.9467 4.89477C24.952 5.51738 24.9526 6.13484 24.9531 6.75294C24.9534 7.16714 24.9538 7.58163 24.9556 7.99815C24.9556 7.99858 24.9556 7.99901 24.9556 7.99943L24.96 23.5336C24.96 23.5337 24.96 23.5337 24.96 23.5338C24.96 23.8564 24.9448 24.0554 24.8616 24.2218L24.8575 24.2301L24.8536 24.2385C24.6791 24.6225 24.3268 24.8841 23.919 24.937L23.919 24.937L23.9126 24.9379C23.7847 24.9562 23.6532 24.964 23.5165 24.964C23.5164 24.964 23.5164 24.964 23.5163 24.964L5.41814 24.9595H5.41802C5.23384 24.9595 5.04243 24.9476 4.8376 24.9343C4.17071 24.8752 3.67906 24.2936 3.73252 23.627L3.73412 23.607V23.587C3.73412 21.5296 3.73511 19.4725 3.7361 17.4153C3.73807 13.3003 3.74005 9.18485 3.73412 5.06581C3.73418 4.635 3.85311 4.31826 4.12907 4.06376L4.12918 4.06388L4.13817 4.05515C4.34051 3.85894 4.60842 3.74717 4.89176 3.73781L14.8938 3.72473Z" stroke="black"/>
<path d="M8.64236 6.5383H6.91659C6.61858 6.5383 6.54742 6.60502 6.54297 6.89413V7.82818C6.54297 8.0995 6.61413 8.16622 6.87656 8.17066L9.04266 8.2018C9.43852 8.21069 9.83438 8.2018 10.2258 8.2107C10.7417 8.21959 11.1999 8.39306 11.6135 8.70885C12.5565 9.4383 12.6365 10.875 11.8404 11.7245C11.4045 12.196 10.7907 12.4628 10.1502 12.4539C9.0738 12.4628 7.99742 12.4539 6.92104 12.4495C6.61413 12.4495 6.54742 12.5207 6.54742 12.8276V13.7616C6.55186 14.0463 6.63637 14.1263 6.92104 14.1263C7.89956 14.1263 8.87364 14.1308 9.85217 14.1263C10.1146 14.1263 10.377 14.1085 10.6394 14.0774C11.5824 13.984 12.4542 13.517 13.0457 12.7742C13.9753 11.68 14.1933 10.1455 13.6017 8.83339C12.9835 7.32557 11.7603 6.59612 10.1457 6.53385C9.64757 6.52051 9.14496 6.53385 8.64236 6.5383ZM18.2364 6.53385C20.3936 6.53385 22.146 8.23293 22.146 10.3323C22.146 12.4317 20.3936 14.1308 18.2319 14.1308C16.0703 14.1308 14.3223 12.4317 14.3223 10.3368C14.3223 8.24183 16.0703 6.53385 18.2364 6.53385ZM18.2364 12.6141C19.4462 12.6141 20.4292 11.5911 20.4292 10.3323C20.4292 9.07358 19.4462 8.05502 18.2319 8.05502C17.0221 8.05502 16.0347 9.07803 16.0347 10.3323C16.0347 11.5955 17.0221 12.6141 18.2364 12.6141ZM8.36659 17.7069C8.29542 17.6179 8.31766 17.5156 8.31766 17.4222V14.838C8.29987 14.669 8.2376 14.6023 8.08193 14.5667C8.0241 14.5533 7.96628 14.5444 7.90846 14.5444H6.8988C6.62748 14.5489 6.54297 14.6334 6.54297 14.9003V21.7811C6.54297 22.0435 6.61413 22.1191 6.87656 22.1236H7.83729C8.25539 22.1236 8.31321 22.0747 8.31321 21.6388V20.1043C8.31321 19.9308 8.3488 19.7796 8.47778 19.655C8.6557 19.4727 8.83361 19.2903 9.02042 19.1168C9.16275 18.9834 9.26505 18.9923 9.39404 19.148C9.51413 19.2947 9.62533 19.446 9.74097 19.5972L11.4756 21.8701C11.5957 22.0257 11.7514 22.1236 11.956 22.1236L13.4371 22.1191C13.5172 22.1191 13.6062 22.128 13.6551 21.9946C13.6195 21.9323 13.575 21.8434 13.5172 21.7678L11.4445 19.1035L10.6039 18.0093C10.466 17.827 10.4704 17.7247 10.6305 17.5556C10.6528 17.5289 10.675 17.5067 10.6973 17.4845L12.2051 15.99L13.3571 14.8469C13.4193 14.7802 13.5261 14.7312 13.4816 14.5934C13.446 14.5845 13.4105 14.5667 13.3704 14.5622C12.8812 14.5533 12.4008 14.5444 11.9115 14.5444C11.6313 14.5444 11.4 14.6556 11.1999 14.8647C10.3414 15.7631 9.46966 16.6438 8.59788 17.5289C8.53561 17.6001 8.48668 17.6935 8.36659 17.7069ZM14.3312 16.7061V17.4222C14.3445 17.9159 14.3 18.4052 14.3801 18.8944C14.6825 20.8515 16.435 22.2526 18.4098 22.1191C20.487 22.0613 22.1371 20.3489 22.1238 18.2717C22.1371 17.1687 22.1238 16.0701 22.1238 14.967V14.8202C22.106 14.6556 22.0393 14.5711 21.8747 14.5667C21.4789 14.5578 21.0874 14.5578 20.6916 14.5667C20.527 14.5756 20.4603 14.6556 20.4514 14.8202V15.0693C20.4381 16.1812 20.4336 17.2888 20.4158 18.4007C20.4069 18.8811 20.2424 19.3437 19.9532 19.7262C19.246 20.6691 17.9117 20.8648 16.9643 20.1621C16.3594 19.7084 16.0124 18.9923 16.0302 18.2406C16.0213 17.1375 16.0391 16.0389 16.048 14.9358C16.048 14.6289 15.9769 14.5622 15.67 14.5578H14.687C14.3934 14.5622 14.3312 14.6289 14.3312 14.9314V16.7061Z" stroke="black" stroke-width="0.5"/>
</svg>
