<svg width="24" height="20" viewBox="0 0 24 20" fill="none" xmlns="http://www.w3.org/2000/svg">
<path d="M0.495076 10.4159C0.26764 10.5473 0.101695 10.7636 0.0337341 11.0173C-0.0342265 11.271 0.00136305 11.5413 0.132676 11.7688L4.53428 19.3931C4.59932 19.5058 4.68592 19.6045 4.78913 19.6837C4.89233 19.7628 5.01013 19.8209 5.13578 19.8546C5.26143 19.8882 5.39248 19.8968 5.52144 19.8798C5.6504 19.8628 5.77476 19.8206 5.8874 19.7555L23.5048 9.58431C23.6175 9.51927 23.7162 9.43266 23.7954 9.32946C23.8746 9.22625 23.9326 9.10846 23.9663 8.98281C23.9999 8.85716 24.0085 8.72611 23.9915 8.59715C23.9745 8.46819 23.9323 8.34383 23.8672 8.23119L19.4656 0.606872C19.4006 0.494225 19.314 0.395494 19.2108 0.316317C19.1076 0.23714 18.9898 0.179067 18.8641 0.145415C18.7385 0.111762 18.6074 0.103189 18.4785 0.120186C18.3495 0.137182 18.2252 0.179415 18.1125 0.244472L0.495076 10.4159ZM2.34332 11.6361L18.2452 2.45511L21.6566 8.36391L20.5106 9.02559L19.2321 6.81063L18.3744 7.30599L19.6528 9.52071L18.3412 10.2782L17.0625 8.06319L16.2048 8.55855L17.4835 10.7733L16.1733 11.5298L14.8946 9.31479L14.0368 9.81015L15.3156 12.0249L14.004 12.7823L12.227 9.70479L11.3692 10.1999L13.1462 13.2774L11.8344 14.0349L10.5556 11.8199L9.69788 12.3153L10.9766 14.53L9.66644 15.2862L8.38796 13.0715L7.5302 13.5669L8.80868 15.7816L7.49708 16.5388L6.21836 14.3241L5.3606 14.8194L6.63932 17.0342L5.75468 17.5449L2.34332 11.6361Z" fill="#FFF3E5"/>
</svg>
