<svg
  width="38"
  height="38"
  viewBox="0 0 38 38"
  fill="none"
  xmlns="http://www.w3.org/2000/svg"
>
  <path
    fill-rule="evenodd"
    clip-rule="evenodd"
    d="M28.8954 7.54167C29.3742 7.54167 29.8483 7.44736 30.2906 7.26414C30.733 7.08092 31.1349 6.81237 31.4734 6.47383C31.812 6.13528 32.0805 5.73337 32.2637 5.29103C32.447 4.8487 32.5413 4.37461 32.5413 3.89583C32.5413 3.41706 32.447 2.94297 32.2637 2.50063C32.0805 2.0583 31.812 1.65639 31.4734 1.31784C31.1349 0.979293 30.733 0.710743 30.2906 0.527523C29.8483 0.344302 29.3742 0.25 28.8954 0.25C27.9285 0.25 27.0012 0.634114 26.3174 1.31784C25.6337 2.00157 25.2496 2.9289 25.2496 3.89583C25.2496 4.86277 25.6337 5.7901 26.3174 6.47383C27.0012 7.15755 27.9285 7.54167 28.8954 7.54167ZM34.259 14.8333C34.3111 15.2 34.3559 15.5927 34.3965 16.0021C34.6236 18.3406 34.6246 20.876 34.6246 21.6042C34.6246 22.0186 34.7892 22.416 35.0822 22.709C35.3753 23.002 35.7727 23.1667 36.1871 23.1667C36.6015 23.1667 36.9989 23.002 37.292 22.709C37.585 22.416 37.7496 22.0186 37.7496 21.6042V21.5969C37.7496 20.8604 37.7496 18.1969 37.5069 15.699C37.3861 14.4594 37.1975 13.1677 36.885 12.151C36.7309 11.6521 36.5152 11.1073 36.1861 10.6552C35.8559 10.2031 35.2392 9.625 34.3006 9.625H23.4892C22.5506 9.625 21.934 10.2031 21.6038 10.6562C21.2746 11.1073 21.059 11.6521 20.9059 12.151C20.5934 13.1677 20.4038 14.4604 20.2829 15.699C20.0413 18.1969 20.0413 20.8604 20.0413 21.5969V21.6042C20.0413 22.0186 20.2059 22.416 20.4989 22.709C20.7919 23.002 21.1894 23.1667 21.6038 23.1667C22.0182 23.1667 22.4156 23.002 22.7086 22.709C23.0016 22.416 23.1663 22.0186 23.1663 21.6042C23.1663 20.875 23.1663 18.3406 23.3954 16.0021C23.435 15.5927 23.4809 15.2 23.5319 14.8333H24.2079V36.1875C24.2086 36.5906 24.365 36.9779 24.6445 37.2684C24.9241 37.5589 25.3051 37.7302 25.7079 37.7463C26.1107 37.7624 26.5042 37.6223 26.8061 37.355C27.1079 37.0878 27.2948 36.7143 27.3277 36.3125L28.2131 25.25H29.5777L30.4631 36.3125C30.496 36.7143 30.6829 37.0878 30.9848 37.355C31.2867 37.6223 31.6802 37.7624 32.083 37.7463C32.4858 37.7302 32.8668 37.5589 33.1463 37.2684C33.4259 36.9779 33.5823 36.5906 33.5829 36.1875V14.8333H34.259ZM12.7496 3.89583C12.7496 4.37461 12.6553 4.8487 12.4721 5.29103C12.2889 5.73337 12.0203 6.13528 11.6818 6.47383C11.3432 6.81237 10.9413 7.08092 10.499 7.26414C10.0566 7.44736 9.58254 7.54167 9.10377 7.54167C8.62499 7.54167 8.1509 7.44736 7.70857 7.26414C7.26623 7.08092 6.86432 6.81237 6.52577 6.47383C6.18723 6.13528 5.91868 5.73337 5.73546 5.29103C5.55224 4.8487 5.45793 4.37461 5.45793 3.89583C5.45793 2.9289 5.84205 2.00157 6.52577 1.31784C7.2095 0.634114 8.13683 0.25 9.10377 0.25C10.0707 0.25 10.998 0.634114 11.6818 1.31784C12.3655 2.00157 12.7496 2.9289 12.7496 3.89583ZM13.6517 9.67292C13.527 9.64167 13.399 9.62593 13.2704 9.62604H4.93502C4.80689 9.62604 4.67981 9.64271 4.55585 9.67396C3.39543 9.96562 2.61627 10.6729 2.12564 11.6375C1.69543 12.4833 1.48606 13.5333 1.31314 14.5781L0.271475 20.8281C0.235076 21.0316 0.239431 21.2404 0.284287 21.4422C0.329144 21.644 0.413609 21.8349 0.53279 22.0039C0.65197 22.1728 0.803494 22.3164 0.978583 22.4264C1.15367 22.5364 1.34884 22.6105 1.55278 22.6445C1.75672 22.6784 1.96538 22.6716 2.16666 22.6244C2.36794 22.5771 2.55784 22.4904 2.72536 22.3692C2.89288 22.248 3.03468 22.0948 3.14255 21.9184C3.25042 21.742 3.32221 21.546 3.35377 21.3417L4.39543 15.0917C4.49127 14.5115 4.58085 14.0687 4.67148 13.7271L4.9371 16.9167C4.9371 18.8646 3.17252 27.7583 2.54856 30.8437C2.52041 30.9809 2.52052 31.1223 2.54887 31.2595C2.57722 31.3966 2.63322 31.5265 2.71345 31.6412C2.79368 31.7559 2.89646 31.8531 3.01551 31.9268C3.13455 32.0005 3.26737 32.0491 3.40585 32.0698C7.6996 32.7094 10.5079 32.6896 14.8006 32.0656C14.9392 32.0455 15.0722 31.9975 15.1915 31.9243C15.3109 31.8512 15.4141 31.7545 15.4949 31.6402C15.5757 31.5259 15.6324 31.3963 15.6615 31.2594C15.6906 31.1225 15.6915 30.981 15.6642 30.8437C15.0444 27.7083 13.2704 18.5896 13.2704 16.9167L13.5361 13.7271C13.6267 14.0687 13.7163 14.5104 13.8121 15.0917L14.8538 21.3417C14.922 21.7505 15.1499 22.1156 15.4872 22.3564C15.8246 22.5973 16.2438 22.6943 16.6527 22.626C17.0616 22.5578 17.4266 22.3299 17.6675 21.9926C17.9084 21.6552 18.0053 21.236 17.9371 20.8271L16.8954 14.5771C16.7215 13.5333 16.5121 12.4823 16.0829 11.6375C15.5923 10.6719 14.8121 9.96562 13.6517 9.67292ZM5.46627 36.8375L5.07356 33.699C6.17772 33.8344 7.22668 33.9229 8.26002 33.9625L7.51002 36.9615C7.45079 37.197 7.31111 37.4045 7.11513 37.548C6.91914 37.6915 6.67917 37.7619 6.43672 37.7472C6.19427 37.7325 5.96458 37.6336 5.78738 37.4674C5.61017 37.3013 5.49659 37.0785 5.46627 36.8375ZM10.6975 36.9604L9.95377 33.9844C11.0115 33.9704 12.068 33.9099 13.1204 33.8031L12.7413 36.8375C12.7108 37.0784 12.5971 37.3012 12.4198 37.4672C12.2425 37.6332 12.0128 37.732 11.7704 37.7466C11.5279 37.7612 11.288 37.6906 11.0921 37.547C10.8962 37.4035 10.7567 37.196 10.6975 36.9604Z"
    fill="#004441"
  />
</svg>
