<?xml version="1.0" encoding="UTF-8" standalone="no"?>
<svg
   width="33.003788"
   height="36"
   viewBox="0 0 33.003788 36"
   fill="none"
   version="1.1"
   id="svg6"
   sodipodi:docname="IconNotif.svg"
   inkscape:version="1.1.2 (b8e25be833, 2022-02-05)"
   xmlns:inkscape="http://www.inkscape.org/namespaces/inkscape"
   xmlns:sodipodi="http://sodipodi.sourceforge.net/DTD/sodipodi-0.dtd"
   xmlns="http://www.w3.org/2000/svg"
   xmlns:svg="http://www.w3.org/2000/svg">
  <defs
     id="defs10" />
  <sodipodi:namedview
     id="namedview8"
     pagecolor="#ffffff"
     bordercolor="#666666"
     borderopacity="1.0"
     inkscape:pageshadow="2"
     inkscape:pageopacity="0.0"
     inkscape:pagecheckerboard="0"
     showgrid="false"
     inkscape:zoom="11.083333"
     inkscape:cx="35.323308"
     inkscape:cy="14.571429"
     inkscape:window-width="1920"
     inkscape:window-height="991"
     inkscape:window-x="-9"
     inkscape:window-y="-9"
     inkscape:window-maximized="1"
     inkscape:current-layer="svg6" />
  <path
     d="M 32.627234,28.856145 C 31.559264,27.904019 30.624194,26.812569 29.847387,25.611144 28.999256,23.952759 28.49091,22.14154 28.35225,20.284026 V 14.812931 C 28.359584,11.89531 27.301224,9.075459 25.376041,6.8831457 23.450859,4.6908207 20.791398,3.2769638 17.897366,2.9072109 V 1.4785244 c 0,-0.3921246 -0.155826,-0.7681903 -0.433036,-1.0454773 C 17.18701,0.1557711 16.8109,0 16.418842,0 16.026673,0 15.650674,0.1557711 15.373353,0.4330471 15.096033,0.7103341 14.940318,1.0863998 14.940318,1.4785244 V 2.9293611 C 12.072091,3.3257717 9.444858,4.7481786 7.544937,6.9331276 5.6450726,9.11812 4.6014004,11.91746 4.6072371,14.812931 v 5.471095 C 4.4685326,22.14154 3.9602082,23.952759 3.1121,25.611144 2.3488935,26.809911 1.428908,27.90114 0.376553,28.856145 0.2584151,28.959918 0.1637341,29.087725 0.098812,29.230926 0.033879,29.374126 1.99e-4,29.52951 0,29.686776 v 1.506212 c 0,0.293712 0.1166872,0.575462 0.3243783,0.78312 0.2077022,0.207657 0.4894082,0.324389 0.7831306,0.324389 H 31.896279 c 0.293711,0 0.575461,-0.116732 0.783119,-0.324389 0.207658,-0.207658 0.32439,-0.489408 0.32439,-0.78312 v -1.506212 c -2.22e-4,-0.157266 -0.03389,-0.31265 -0.09879,-0.45585 -0.06501,-0.143201 -0.159703,-0.271008 -0.277764,-0.374781 z M 2.3036185,30.085479 c 1.0304374,-0.995428 1.9376976,-2.110911 2.7023217,-3.322526 1.0683142,-2.00293 1.6916422,-4.212964 1.8273895,-6.478927 v -5.471095 c -0.043922,-1.298 0.1738013,-2.59146 0.6401953,-3.803517 0.466339,-1.212058 1.171934,-2.317917 2.074553,-3.2516464 0.902731,-0.9337186 1.983992,-1.676248 3.179658,-2.1833652 1.195556,-0.5071283 2.480931,-0.7684671 3.779706,-0.7684671 1.298665,0 2.584151,0.2613388 3.779707,0.7684671 1.195555,0.5071172 2.276927,1.2496466 3.179547,2.1833652 0.90273,0.9337294 1.608214,2.0395884 2.074586,3.2516464 0.466483,1.212057 0.684108,2.505517 0.64025,3.803517 v 5.471095 c 0.135782,2.265963 0.759088,4.475997 1.827391,6.478927 0.764623,1.211615 1.671895,2.327098 2.702322,3.322526 z"
     fill="#000000"
     id="path2"
     style="stroke-width:1.10751" />
  <path
     d="m 16.556727,35.999688 c 0.697619,-0.01606 1.367219,-0.278317 1.890074,-0.74048 0.522966,-0.462053 0.865518,-1.09422 0.967298,-1.784641 h -5.825496 c 0.104659,0.709138 0.46327,1.356145 1.009273,1.820634 0.546002,0.46449 1.242071,0.714897 1.958851,0.704487 z"
     fill="#000000"
     id="path4"
     style="stroke-width:1.10751" />
</svg>
