<?xml version="1.0" encoding="utf-8"?>
<svg width="20" height="20" viewBox="0 0 20 20" fill="none" xmlns="http://www.w3.org/2000/svg">
  <path d="M5.08 9.25C5.19839 8.45142 5.51465 7.69513 6 7.05L2.43 3.49C1.0179 5.09637 0.165193 7.11759 0 9.25H5.08ZM7.05 6C7.69613 5.51822 8.45234 5.20543 9.25 5.09V0C7.11759 0.165193 5.09637 1.0179 3.49 2.43L7.05 6ZM10.75 0V5C11.5737 5.1338 12.3487 5.47828 13 6L16.56 2.44C14.9416 1.0143 12.9011 0.157362 10.75 0ZM6 13C5.51822 12.3539 5.20543 11.5977 5.09 10.8H0C0.153943 12.9277 0.992392 14.9484 2.39 16.56L6 13ZM9.25 14.92C8.45142 14.8016 7.69513 14.4853 7.05 14L3.49 17.57C5.09637 18.9821 7.11759 19.8348 9.25 20V14.92ZM14 7.05C14.4818 7.69613 14.7946 8.45234 14.91 9.25H19.91C19.7561 7.12233 18.9176 5.10163 17.52 3.49L14 7.05ZM13 14C12.3539 14.4818 11.5977 14.7946 10.8 14.91V19.91C12.9277 19.7561 14.9484 18.9176 16.56 17.52L13 14ZM14.92 10.75C14.8097 11.5661 14.4931 12.3405 14 13L17.56 16.56C18.9857 14.9416 19.8426 12.9011 20 10.75H14.92Z" style="fill: rgb(75, 150, 96);"/>
  <path d="M -0.499 9.211 C -0.314 7.001 0.6 4.834 2.054 3.16 L 2.404 2.758 L 6.664 7.006 L 6.4 7.351 C 5.945 7.942 5.676 8.585 5.575 9.323 L 5.516 9.75 L -0.543 9.75 Z M 4.667 8.75 C 4.812 8.114 4.969 7.739 5.355 7.113 L 2.462 4.228 C 1.304 5.685 0.789 6.906 0.552 8.75 Z M 3.16 2.054 C 4.834 0.6 7.001 -0.314 9.211 -0.499 L 9.75 -0.543 L 9.75 5.527 L 9.322 5.585 C 8.584 5.684 7.941 5.95 7.349 6.401 L 7.005 6.663 L 2.758 2.404 Z M 7.111 5.353 C 7.661 5.006 8.036 4.851 8.75 4.68 L 8.75 0.552 C 6.906 0.789 5.685 1.304 4.228 2.462 Z M 13.034 6.674 L 12.687 6.39 C 12.091 5.902 11.432 5.609 10.67 5.494 L 10.25 5.43 L 10.25 -0.541 L 10.786 -0.499 C 13.016 -0.322 15.204 0.596 16.891 2.065 L 17.292 2.415 Z M 11.25 0.55 L 11.25 4.593 C 11.915 4.753 12.311 4.93 12.946 5.347 L 15.823 2.47 C 14.404 1.322 13.113 0.78 11.25 0.55 Z M 2.012 16.888 C 0.573 15.208 -0.326 13.042 -0.499 10.836 L -0.541 10.3 L 5.527 10.3 L 5.585 10.728 C 5.684 11.466 5.95 12.109 6.401 12.701 L 6.664 13.047 L 2.359 17.292 Z M 5.352 12.937 C 5.005 12.388 4.851 12.014 4.68 11.3 L 0.549 11.3 C 0.775 13.141 1.282 14.361 2.427 15.822 Z M 9.211 20.499 C 7.001 20.314 4.834 19.4 3.16 17.946 L 2.758 17.596 L 7.006 13.336 L 7.351 13.6 C 7.942 14.055 8.585 14.324 9.323 14.425 L 9.75 14.484 L 9.75 20.543 Z M 8.75 15.333 C 8.114 15.188 7.739 15.031 7.113 14.645 L 4.228 17.538 C 5.685 18.696 6.906 19.211 8.75 19.448 Z M 17.898 3.162 C 19.337 4.842 20.236 7.008 20.409 9.214 L 20.451 9.75 L 14.473 9.75 L 14.415 9.322 C 14.316 8.584 14.05 7.941 13.599 7.349 L 13.339 7.007 L 17.546 2.752 Z M 14.645 7.109 C 14.994 7.659 15.149 8.036 15.32 8.75 L 19.361 8.75 C 19.135 6.909 18.63 5.694 17.488 4.234 Z M 16.888 17.898 C 15.208 19.337 13.042 20.236 10.836 20.409 L 10.3 20.451 L 10.3 14.473 L 10.728 14.415 C 11.466 14.316 12.109 14.05 12.701 13.599 L 13.043 13.339 L 17.298 17.546 Z M 12.941 14.645 C 12.391 14.994 12.014 15.149 11.3 15.32 L 11.3 19.361 C 13.141 19.135 14.357 18.63 15.816 17.488 Z M 20.499 10.786 C 20.322 13.016 19.404 15.204 17.935 16.891 L 17.585 17.292 L 13.337 13.044 L 13.6 12.701 C 14.061 12.096 14.331 11.438 14.425 10.683 L 14.478 10.25 L 20.541 10.25 Z M 15.338 11.25 C 15.197 11.904 15.037 12.295 14.644 12.937 L 17.529 15.822 C 18.7 14.352 19.22 13.113 19.45 11.25 Z" style=""/>
</svg>