<svg width="38" height="38" viewBox="0 0 38 38" fill="none" xmlns="http://www.w3.org/2000/svg">
<path d="M14.8333 0.25H2.33333C1.7808 0.25 1.25089 0.469493 0.860194 0.860194C0.469493 1.25089 0.25 1.7808 0.25 2.33333V14.8333C0.25 15.3859 0.469493 15.9158 0.860194 16.3065C1.25089 16.6972 1.7808 16.9167 2.33333 16.9167H14.8333C15.3859 16.9167 15.9158 16.6972 16.3065 16.3065C16.6972 15.9158 16.9167 15.3859 16.9167 14.8333V2.33333C16.9167 1.7808 16.6972 1.25089 16.3065 0.860194C15.9158 0.469493 15.3859 0.25 14.8333 0.25ZM12.75 12.75H4.41667V4.41667H12.75V12.75ZM35.6667 0.25H23.1667C22.6141 0.25 22.0842 0.469493 21.6935 0.860194C21.3028 1.25089 21.0833 1.7808 21.0833 2.33333V14.8333C21.0833 15.3859 21.3028 15.9158 21.6935 16.3065C22.0842 16.6972 22.6141 16.9167 23.1667 16.9167H35.6667C36.2192 16.9167 36.7491 16.6972 37.1398 16.3065C37.5305 15.9158 37.75 15.3859 37.75 14.8333V2.33333C37.75 1.7808 37.5305 1.25089 37.1398 0.860194C36.7491 0.469493 36.2192 0.25 35.6667 0.25ZM33.5833 12.75H25.25V4.41667H33.5833V12.75ZM14.8333 21.0833H2.33333C1.7808 21.0833 1.25089 21.3028 0.860194 21.6935C0.469493 22.0842 0.25 22.6141 0.25 23.1667V35.6667C0.25 36.2192 0.469493 36.7491 0.860194 37.1398C1.25089 37.5305 1.7808 37.75 2.33333 37.75H14.8333C15.3859 37.75 15.9158 37.5305 16.3065 37.1398C16.6972 36.7491 16.9167 36.2192 16.9167 35.6667V23.1667C16.9167 22.6141 16.6972 22.0842 16.3065 21.6935C15.9158 21.3028 15.3859 21.0833 14.8333 21.0833ZM12.75 33.5833H4.41667V25.25H12.75V33.5833ZM29.4167 21.0833C24.8208 21.0833 21.0833 24.8208 21.0833 29.4167C21.0833 34.0125 24.8208 37.75 29.4167 37.75C34.0125 37.75 37.75 34.0125 37.75 29.4167C37.75 24.8208 34.0125 21.0833 29.4167 21.0833ZM29.4167 33.5833C27.1187 33.5833 25.25 31.7146 25.25 29.4167C25.25 27.1187 27.1187 25.25 29.4167 25.25C31.7146 25.25 33.5833 27.1187 33.5833 29.4167C33.5833 31.7146 31.7146 33.5833 29.4167 33.5833Z" fill="#F50E0E"/>
</svg>
