<svg width="36" height="36" viewBox="0 0 36 36" fill="none" xmlns="http://www.w3.org/2000/svg">
<path d="M3.59961 18.9C3.59961 18.5454 3.66945 18.1943 3.80513 17.8667C3.94082 17.5392 4.1397 17.2415 4.39042 16.9908C4.64114 16.7401 4.93879 16.5412 5.26636 16.4055C5.59394 16.2698 5.94504 16.2 6.29961 16.2C6.65418 16.2 7.00528 16.2698 7.33285 16.4055C7.66043 16.5412 7.95808 16.7401 8.2088 16.9908C8.45952 17.2415 8.6584 17.5392 8.79408 17.8667C8.92977 18.1943 8.99961 18.5454 8.99961 18.9V29.7C8.99961 30.4161 8.71515 31.1028 8.2088 31.6092C7.70245 32.1155 7.01569 32.4 6.29961 32.4C5.58352 32.4 4.89677 32.1155 4.39042 31.6092C3.88407 31.1028 3.59961 30.4161 3.59961 29.7V18.9ZM10.7996 18.5994V28.3734C10.7993 29.0424 10.9854 29.6982 11.3371 30.2673C11.6887 30.8365 12.192 31.2963 12.7904 31.5954L12.8804 31.6404C13.8792 32.1396 14.9804 32.3996 16.097 32.4H25.8458C26.6784 32.4003 27.4853 32.1121 28.1292 31.5843C28.7731 31.0566 29.2142 30.322 29.3774 29.5056L31.5374 18.7056C31.6418 18.1833 31.629 17.6445 31.5 17.1278C31.3709 16.6111 31.1289 16.1294 30.7913 15.7176C30.4536 15.3057 30.0288 14.9739 29.5474 14.7461C29.0661 14.5182 28.5402 14.4 28.0076 14.4H21.5996V7.19998C21.5996 6.2452 21.2203 5.32952 20.5452 4.65439C19.8701 3.97926 18.9544 3.59998 17.9996 3.59998C17.5222 3.59998 17.0644 3.78962 16.7268 4.12718C16.3893 4.46475 16.1996 4.92259 16.1996 5.39998V6.60058C16.1996 8.15844 15.6943 9.67428 14.7596 10.9206L12.2396 14.2794C11.3049 15.5257 10.7996 17.0415 10.7996 18.5994Z" fill="black"/>
</svg>
