<svg width="16" height="16" viewBox="0 0 16 16" fill="none" xmlns="http://www.w3.org/2000/svg">
<path d="M7.99985 0.000732422C3.58898 0.000732422 0 3.58793 0 7.99993C0 12.4102 3.58898 15.9992 7.99985 15.9992C12.4112 15.9992 16 12.4102 16 7.99993C16 3.58793 12.4112 0.000732422 7.99985 0.000732422ZM7.99985 14.217C4.57127 14.217 1.78223 11.4281 1.78223 7.99997C1.78223 4.57039 4.57127 1.78153 7.99985 1.78153C11.4288 1.78153 14.2179 4.57044 14.2179 7.99997C14.2178 11.4281 11.4288 14.217 7.99985 14.217Z" fill="black"/>
<path d="M10.6248 9.44899C10.1137 10.326 9.16346 10.87 8.14485 10.87C6.56304 10.87 5.27456 9.58179 5.27456 7.99993C5.27456 6.41677 6.56304 5.12817 8.14485 5.12817C9.1635 5.12817 10.1137 5.67418 10.6248 6.5494L10.6908 6.66378H12.6189L12.5031 6.35338C12.1676 5.46457 11.579 4.70886 10.7997 4.16947C10.0185 3.62869 9.10084 3.3418 8.14485 3.3418C5.57674 3.3418 3.48828 5.43204 3.48828 7.99993C3.48828 10.568 5.57674 12.6563 8.14485 12.6563C9.10084 12.6563 10.0184 12.3704 10.7997 11.8287C11.579 11.2892 12.1676 10.5338 12.5031 9.64497L12.6189 9.33439H10.6908L10.6248 9.44899Z" fill="black"/>
</svg>
