<svg width="16" height="18" viewBox="0 0 16 18" fill="none" xmlns="http://www.w3.org/2000/svg">
<path fill-rule="evenodd" clip-rule="evenodd" d="M0.8 0H15.2C15.642 0 16 0.448 16 1C16 1.552 15.642 2 15.2 2H0.8C0.358 2 0 1.552 0 1C0 0.448 0.358 0 0.8 0ZM3 6C3 5.46957 3.21071 4.96086 3.58579 4.58579C3.96086 4.21071 4.46957 4 5 4C5.53043 4 6.03914 4.21071 6.41421 4.58579C6.78929 4.96086 7 5.46957 7 6V16C7 16.5304 6.78929 17.0391 6.41421 17.4142C6.03914 17.7893 5.53043 18 5 18C4.46957 18 3.96086 17.7893 3.58579 17.4142C3.21071 17.0391 3 16.5304 3 16V6ZM9 6C9 5.46957 9.21071 4.96086 9.58579 4.58579C9.96086 4.21071 10.4696 4 11 4C11.5304 4 12.0391 4.21071 12.4142 4.58579C12.7893 4.96086 13 5.46957 13 6V12C13 12.5304 12.7893 13.0391 12.4142 13.4142C12.0391 13.7893 11.5304 14 11 14C10.4696 14 9.96086 13.7893 9.58579 13.4142C9.21071 13.0391 9 12.5304 9 12V6Z" fill="#FFF3E5"/>
</svg>
