<svg width="24" height="25" viewBox="0 0 24 25" fill="none" xmlns="http://www.w3.org/2000/svg">
<g clip-path="url(#clip0_1201_1070)">
<path d="M17.0331 0.5H15.7343C12.1243 0.5 9.18749 3.43694 9.18749 7.04687V9.80985H6.96848C6.73998 9.80985 6.55469 9.99515 6.55469 10.2236V13.534C6.55469 13.7625 6.73998 13.9478 6.96848 13.9478H9.18732V24.0862C9.18732 24.3147 9.37262 24.5 9.60111 24.5H12.9115C13.14 24.5 13.3253 24.3147 13.3253 24.0862V13.9478H16.6179C16.8464 13.9478 17.0317 13.7625 17.0317 13.534V10.2236C17.0317 9.99515 16.8464 9.80985 16.6179 9.80985H13.3253V7.04687C13.3253 5.71859 14.4059 4.63793 15.7341 4.63793H17.0329C17.2614 4.63793 17.4467 4.45263 17.4467 4.22414V0.913793C17.4469 0.685297 17.2616 0.5 17.0331 0.5Z" stroke="black"/>
</g>
<defs>
<clipPath id="clip0_1201_1070">
<rect width="24" height="24" fill="white" transform="translate(0 0.5)"/>
</clipPath>
</defs>
</svg>
