<svg width="16" height="16" viewBox="0 0 16 16" fill="none" xmlns="http://www.w3.org/2000/svg">
<path fill-rule="evenodd" clip-rule="evenodd" d="M6.47667 4.95244L9.53908 3.93163C11.1949 3.3797 12.0228 3.10374 12.4598 3.54075C12.8968 3.97777 12.6208 4.80567 12.0689 6.46146L11.0481 9.52386C10.4214 11.4039 10.1081 12.3439 9.57254 12.4755C9.41572 12.5141 9.25191 12.5141 9.0951 12.4755C8.57922 12.3487 8.26953 11.4719 7.68739 9.72736L10.7076 6.70716C11.0981 6.31664 11.0981 5.68347 10.7076 5.29295C10.3171 4.90242 9.6839 4.90242 9.29338 5.29295L6.27317 8.31315C4.52866 7.731 3.65182 7.42132 3.525 6.90544C3.48646 6.74863 3.48646 6.58482 3.525 6.428C3.65666 5.89244 4.59666 5.57911 6.47667 4.95244Z" fill="#004441"/>
</svg>
