<svg width="22" height="16" viewBox="0 0 22 16" fill="none" xmlns="http://www.w3.org/2000/svg">
<path d="M7.81188 7.95898C7.81188 8.68419 8.09996 9.37969 8.61276 9.89248C9.12555 10.4053 9.82105 10.6934 10.5463 10.6934C11.2715 10.6934 11.967 10.4053 12.4797 9.89248C12.9925 9.37969 13.2806 8.68419 13.2806 7.95898C13.2806 7.23378 12.9925 6.53828 12.4797 6.02549C11.967 5.51269 11.2715 5.22461 10.5463 5.22461C9.82105 5.22461 9.12555 5.51269 8.61276 6.02549C8.09996 6.53828 7.81188 7.23378 7.81188 7.95898V7.95898ZM21.1468 7.3291C18.8324 2.45361 15.3339 0 10.6439 0C5.95153 0 2.45543 2.45361 0.14098 7.33154C0.0481461 7.52812 0 7.74281 0 7.9602C0 8.1776 0.0481461 8.39229 0.14098 8.58887C2.45543 13.4644 5.95397 15.918 10.6439 15.918C15.3363 15.918 18.8324 13.4644 21.1468 8.58643C21.3348 8.19092 21.3348 7.73193 21.1468 7.3291V7.3291ZM10.5463 12.2559C8.17321 12.2559 6.24938 10.332 6.24938 7.95898C6.24938 5.58594 8.17321 3.66211 10.5463 3.66211C12.9193 3.66211 14.8431 5.58594 14.8431 7.95898C14.8431 10.332 12.9193 12.2559 10.5463 12.2559Z" fill="white"/>
</svg>
