<?xml version="1.0" encoding="utf-8"?>
<svg width="50" height="50" viewBox="0 0 50 50" fill="none" xmlns="http://www.w3.org/2000/svg">
  <path fill-rule="evenodd" clip-rule="evenodd" d="M2.5 0H47.5C48.8813 0 50 1.24444 50 2.77778C50 4.31111 48.8813 5.55556 47.5 5.55556H2.5C1.11875 5.55556 0 4.31111 0 2.77778C0 1.24444 1.11875 0 2.5 0ZM9.375 16.6667C9.375 15.1932 10.0335 13.7802 11.2056 12.7383C12.3777 11.6964 13.9674 11.1111 15.625 11.1111C17.2826 11.1111 18.8723 11.6964 20.0444 12.7383C21.2165 13.7802 21.875 15.1932 21.875 16.6667V44.4444C21.875 45.9179 21.2165 47.3309 20.0444 48.3728C18.8723 49.4147 17.2826 50 15.625 50C13.9674 50 12.3777 49.4147 11.2056 48.3728C10.0335 47.3309 9.375 45.9179 9.375 44.4444V16.6667ZM28.125 16.6667C28.125 15.1932 28.7835 13.7802 29.9556 12.7383C31.1277 11.6964 32.7174 11.1111 34.375 11.1111C36.0326 11.1111 37.6223 11.6964 38.7944 12.7383C39.9665 13.7802 40.625 15.1932 40.625 16.6667V33.3333C40.625 34.8068 39.9665 36.2198 38.7944 37.2617C37.6223 38.3036 36.0326 38.8889 34.375 38.8889C32.7174 38.8889 31.1277 38.3036 29.9556 37.2617C28.7835 36.2198 28.125 34.8068 28.125 33.3333V16.6667Z" style="fill: rgb(255, 255, 255);"/>
</svg>