<svg width="30" height="30" viewBox="0 0 30 30" fill="none" xmlns="http://www.w3.org/2000/svg">
<path d="M9.375 25H23.75L27.5 28.75V15.625C27.5 14.25 26.375 13.125 25 13.125H9.375C8 13.125 6.875 14.25 6.875 15.625V22.5C6.875 23.875 8 25 9.375 25Z" fill="#004441"/>
<path d="M18 20.5H15.75L15.3125 21.8125H13.9375L16.25 15.5625H17.4375L19.75 21.8125H18.375L18 20.5V20.5ZM16.0625 19.5H17.625L16.875 17.125L16.0625 19.5V19.5Z" fill="white"/>
<path d="M20.625 15.625H6.25L2.5 19.375V5C2.5 3.625 3.625 2.5 5 2.5H20.625C22 2.5 23.125 3.625 23.125 5V13.125C23.125 14.5 22 15.625 20.625 15.625Z" fill="#8BC34A"/>
<path d="M15.875 8.875C15.875 9.5 15.75 10 15.5625 10.4375C15.375 10.875 15.125 11.25 14.75 11.5L15.8125 12.3125L15 13.0625L13.625 12C13.5 12 13.3125 12.0625 13.125 12.0625C12.75 12.0625 12.375 12 12 11.875C11.6875 11.75 11.375 11.5 11.125 11.25C10.875 11 10.6875 10.625 10.5625 10.25C10.4375 9.875 10.375 9.4375 10.375 8.9375V8.6875C10.375 8.1875 10.4375 7.75 10.5625 7.375C10.6875 7 10.875 6.625 11.125 6.375C11.375 6.125 11.625 5.875 12 5.75C12.3125 5.625 12.6875 5.5625 13.125 5.5625C13.5 5.5625 13.875 5.625 14.25 5.75C14.5625 5.875 14.875 6.125 15.125 6.375C15.375 6.625 15.5625 7 15.6875 7.375C15.8125 7.75 15.875 8.1875 15.875 8.6875V8.875V8.875ZM14.5 8.5625C14.5 7.875 14.375 7.375 14.125 7.0625C13.875 6.6875 13.5625 6.5625 13.125 6.5625C12.6875 6.5625 12.3125 6.75 12.125 7.0625C11.875 7.4375 11.75 7.9375 11.75 8.5625V8.875C11.75 9.1875 11.8125 9.5 11.875 9.75C11.9375 10 12 10.25 12.125 10.375C12.25 10.5625 12.375 10.6875 12.5625 10.75C12.75 10.8125 12.9375 10.875 13.125 10.875C13.5625 10.875 13.9375 10.6875 14.125 10.375C14.375 10 14.5 9.5 14.5 8.8125V8.5625V8.5625Z" fill="white"/>
</svg>
