<svg width="21" height="21" viewBox="0 0 21 21" fill="none" xmlns="http://www.w3.org/2000/svg">
<path d="M19.9131 7.42392L13.9175 6.51145L11.2373 0.821517C11.1641 0.66573 11.0437 0.539617 10.8949 0.46296C10.5218 0.27008 10.0684 0.430813 9.88189 0.821517L7.2017 6.51145L1.20609 7.42392C1.04079 7.44865 0.889658 7.53025 0.773949 7.65389C0.634063 7.80445 0.55698 8.00701 0.559637 8.21705C0.562293 8.42709 0.644473 8.62744 0.788118 8.77407L5.12602 13.2029L4.10117 19.4566C4.07714 19.6021 4.09251 19.7517 4.14555 19.8885C4.19858 20.0253 4.28716 20.1438 4.40123 20.2305C4.5153 20.3173 4.65031 20.3688 4.79094 20.3793C4.93156 20.3898 5.07219 20.3589 5.19686 20.2899L10.5596 17.3374L15.9224 20.2899C16.0688 20.3715 16.2388 20.3987 16.4017 20.3691C16.8126 20.2949 17.0889 19.8869 17.0181 19.4566L15.9932 13.2029L20.3311 8.77407C20.4492 8.6529 20.5271 8.49464 20.5507 8.32155C20.6145 7.8888 20.3264 7.48821 19.9131 7.42392Z" fill="#004441"/>
</svg>
