<svg width="12" height="12" viewBox="0 0 12 12" fill="none" xmlns="http://www.w3.org/2000/svg">
<path d="M2.5 10.5V4.5M9.5 1.5V3.5V1.5ZM9.5 10.5V5.5V10.5ZM6 1.5V7.5V1.5ZM6 10.5V9.5V10.5ZM2.5 1.5V2.5V1.5Z" stroke="black" stroke-linecap="round"/>
<path d="M8.5 4.5C8.5 5.05228 8.94772 5.5 9.5 5.5C10.0523 5.5 10.5 5.05228 10.5 4.5C10.5 3.94772 10.0523 3.5 9.5 3.5C8.94772 3.5 8.5 3.94772 8.5 4.5Z" stroke="black" stroke-linecap="round"/>
<path d="M5 8.5C5 9.05228 5.44772 9.5 6 9.5C6.55228 9.5 7 9.05228 7 8.5C7 7.94772 6.55228 7.5 6 7.5C5.44772 7.5 5 7.94772 5 8.5Z" stroke="black" stroke-linecap="round"/>
<path d="M1.5 3.5C1.5 4.05228 1.94772 4.5 2.5 4.5C3.05228 4.5 3.5 4.05228 3.5 3.5C3.5 2.94772 3.05228 2.5 2.5 2.5C1.94772 2.5 1.5 2.94772 1.5 3.5Z" stroke="black" stroke-linecap="round"/>
</svg>
