<svg width="29" height="24" viewBox="0 0 29 24" fill="none" xmlns="http://www.w3.org/2000/svg">
<path d="M23.0188 12.4395V10.5H21.3207V12.75C21.3208 12.9489 21.4103 13.1396 21.5695 13.2803L23.8679 15.3105V16.5H5.18865V15.3105L7.48705 13.2803C7.64629 13.1396 7.73577 12.9489 7.73582 12.75V9.75C7.73346 8.6961 8.04598 7.6603 8.64184 6.74724C9.2377 5.83417 10.0958 5.07618 11.1294 4.5498C12.1631 4.02343 13.3356 3.74733 14.5287 3.74938C15.7218 3.75144 16.8932 4.03157 17.9245 4.5615V2.88525C17.1163 2.56914 16.2567 2.36766 15.3773 2.28825V0.75H13.6792V2.2875C11.5859 2.4757 9.646 3.34284 8.23453 4.72124C6.82307 6.09964 6.04034 7.89138 6.03771 9.75V12.4395L3.73931 14.4697C3.58007 14.6104 3.49059 14.8011 3.49054 15V17.25C3.49054 17.4489 3.57999 17.6397 3.73922 17.7803C3.89845 17.921 4.11441 18 4.3396 18H10.283V18.75C10.283 19.7446 10.7303 20.6984 11.5264 21.4016C12.3226 22.1049 13.4024 22.5 14.5283 22.5C15.6542 22.5 16.734 22.1049 17.5301 21.4016C18.3263 20.6984 18.7736 19.7446 18.7736 18.75V18H24.717C24.9421 18 25.1581 17.921 25.3173 17.7803C25.4766 17.6397 25.566 17.4489 25.566 17.25V15C25.566 14.8011 25.4765 14.6104 25.3172 14.4697L23.0188 12.4395ZM17.0754 18.75C17.0754 19.3467 16.8071 19.919 16.3294 20.341C15.8517 20.7629 15.2038 21 14.5283 21C13.8527 21 13.2048 20.7629 12.7272 20.341C12.2495 19.919 11.9811 19.3467 11.9811 18.75V18H17.0754V18.75Z" fill="#FFF3E5"/>
<path d="M23.0188 9C24.8945 9 26.4151 7.65685 26.4151 6C26.4151 4.34315 24.8945 3 23.0188 3C21.1432 3 19.6226 4.34315 19.6226 6C19.6226 7.65685 21.1432 9 23.0188 9Z" fill="#FFF3E5"/>
</svg>
