<svg width="36" height="36" viewBox="0 0 36 36" fill="none" xmlns="http://www.w3.org/2000/svg">
<path d="M31.1449 18.763C31.7355 17.9825 32.0625 17.0263 32.0625 16.0314C32.0625 14.4529 31.1801 12.9587 29.7598 12.1255C29.3941 11.911 28.9778 11.7982 28.5539 11.7986H20.1234L20.3344 7.47786C20.3836 6.43372 20.0145 5.44231 19.2973 4.68645C18.9453 4.31389 18.5207 4.01747 18.0496 3.81551C17.5786 3.61354 17.0711 3.51033 16.5586 3.51223C14.7305 3.51223 13.1133 4.7427 12.6281 6.50403L9.6082 17.4376H5.0625C4.44023 17.4376 3.9375 17.9404 3.9375 18.5626V31.3595C3.9375 31.9818 4.44023 32.4845 5.0625 32.4845H26.202C26.5254 32.4845 26.8418 32.4212 27.1336 32.2947C28.807 31.581 29.8863 29.9462 29.8863 28.1322C29.8863 27.6892 29.823 27.2532 29.6965 26.8314C30.2871 26.0509 30.6141 25.0947 30.6141 24.0997C30.6141 23.6568 30.5508 23.2208 30.4242 22.799C31.0148 22.0185 31.3418 21.0622 31.3418 20.0673C31.3348 19.6243 31.2715 19.1849 31.1449 18.763ZM6.46875 29.9532V19.9689H9.31641V29.9532H6.46875ZM28.8422 17.5431L28.0723 18.2111L28.5609 19.104C28.7219 19.3982 28.8054 19.7285 28.8035 20.0638C28.8035 20.6439 28.5504 21.1958 28.1145 21.5755L27.3445 22.2435L27.8332 23.1364C27.9942 23.4306 28.0777 23.7609 28.0758 24.0962C28.0758 24.6763 27.8227 25.2282 27.3867 25.6079L26.6168 26.2759L27.1055 27.1689C27.2665 27.463 27.3499 27.7933 27.348 28.1286C27.348 28.9161 26.884 29.6263 26.1668 29.9497H11.5664V19.8564L15.0645 7.18255C15.1547 6.8577 15.3483 6.57111 15.616 6.3662C15.8837 6.1613 16.2109 6.04923 16.548 6.047C16.8152 6.047 17.0789 6.12434 17.2898 6.28255C17.6379 6.5427 17.8242 6.93645 17.8031 7.35481L17.4656 14.3298H28.5188C29.1445 14.713 29.5312 15.3599 29.5312 16.0314C29.5312 16.6115 29.2781 17.1599 28.8422 17.5431Z" fill="#004441"/>
</svg>
