<svg width="58" height="60" viewBox="0 0 58 60" fill="none" xmlns="http://www.w3.org/2000/svg">
<g filter="url(#filter0_dd_368_1102)">
<path d="M37.4375 35.3438C36.4355 35.3438 35.5109 35.6953 34.7867 36.2824L27.5023 31.0125C27.6243 30.343 27.6243 29.657 27.5023 28.9875L34.7867 23.7176C35.5109 24.3047 36.4355 24.6562 37.4375 24.6562C39.7648 24.6562 41.6562 22.7648 41.6562 20.4375C41.6562 18.1102 39.7648 16.2188 37.4375 16.2188C35.1102 16.2188 33.2188 18.1102 33.2188 20.4375C33.2188 20.8453 33.275 21.2355 33.384 21.6082L26.4652 26.618C25.4387 25.2574 23.8074 24.375 21.9688 24.375C18.8609 24.375 16.3438 26.8922 16.3438 30C16.3438 33.1078 18.8609 35.625 21.9688 35.625C23.8074 35.625 25.4387 34.7426 26.4652 33.382L33.384 38.3918C33.275 38.7645 33.2188 39.1582 33.2188 39.5625C33.2188 41.8898 35.1102 43.7812 37.4375 43.7812C39.7648 43.7812 41.6562 41.8898 41.6562 39.5625C41.6562 37.2352 39.7648 35.3438 37.4375 35.3438ZM37.4375 18.6094C38.4465 18.6094 39.2656 19.4285 39.2656 20.4375C39.2656 21.4465 38.4465 22.2656 37.4375 22.2656C36.4285 22.2656 35.6094 21.4465 35.6094 20.4375C35.6094 19.4285 36.4285 18.6094 37.4375 18.6094ZM21.9688 33.0938C20.2637 33.0938 18.875 31.7051 18.875 30C18.875 28.2949 20.2637 26.9062 21.9688 26.9062C23.6738 26.9062 25.0625 28.2949 25.0625 30C25.0625 31.7051 23.6738 33.0938 21.9688 33.0938ZM37.4375 41.3906C36.4285 41.3906 35.6094 40.5715 35.6094 39.5625C35.6094 38.5535 36.4285 37.7344 37.4375 37.7344C38.4465 37.7344 39.2656 38.5535 39.2656 39.5625C39.2656 40.5715 38.4465 41.3906 37.4375 41.3906Z" fill="#004441"/>
</g>
<defs>
<filter id="filter0_dd_368_1102" x="-5" y="-4" width="68" height="68" filterUnits="userSpaceOnUse" color-interpolation-filters="sRGB">
<feFlood flood-opacity="0" result="BackgroundImageFix"/>
<feColorMatrix in="SourceAlpha" type="matrix" values="0 0 0 0 0 0 0 0 0 0 0 0 0 0 0 0 0 0 127 0" result="hardAlpha"/>
<feOffset dx="4" dy="4"/>
<feGaussianBlur stdDeviation="6"/>
<feComposite in2="hardAlpha" operator="out"/>
<feColorMatrix type="matrix" values="0 0 0 0 0 0 0 0 0 0 0 0 0 0 0 0 0 0 0.1 0"/>
<feBlend mode="normal" in2="BackgroundImageFix" result="effect1_dropShadow_368_1102"/>
<feColorMatrix in="SourceAlpha" type="matrix" values="0 0 0 0 0 0 0 0 0 0 0 0 0 0 0 0 0 0 127 0" result="hardAlpha"/>
<feOffset dx="-4" dy="-4"/>
<feGaussianBlur stdDeviation="6"/>
<feComposite in2="hardAlpha" operator="out"/>
<feColorMatrix type="matrix" values="0 0 0 0 0.709804 0 0 0 0 0.662745 0 0 0 0 0.662745 0 0 0 0.09 0"/>
<feBlend mode="normal" in2="effect1_dropShadow_368_1102" result="effect2_dropShadow_368_1102"/>
<feBlend mode="normal" in="SourceGraphic" in2="effect2_dropShadow_368_1102" result="shape"/>
</filter>
</defs>
</svg>
