<svg width="21" height="16" viewBox="0 0 21 16" fill="none" xmlns="http://www.w3.org/2000/svg">
<g clip-path="url(#clip0_761_2666)">
<path d="M20.5332 10.6797V12.8225C20.5332 12.9193 20.4979 13.003 20.4272 13.0737C20.3565 13.1443 20.2728 13.1797 20.1761 13.1797H4.81892V15.3225C4.81892 15.4193 4.78358 15.503 4.71289 15.5737C4.64221 15.6443 4.5585 15.6797 4.46177 15.6797C4.37249 15.6797 4.2832 15.6425 4.19392 15.5681L0.63365 11.9967C0.566685 11.9297 0.533203 11.8478 0.533203 11.7511C0.533203 11.6469 0.566685 11.5614 0.63365 11.4944L4.20508 7.92299C4.27204 7.85603 4.35761 7.82255 4.46177 7.82255C4.5585 7.82255 4.64221 7.85789 4.71289 7.92857C4.78358 7.99926 4.81892 8.08296 4.81892 8.17969V10.3225H20.1761C20.2728 10.3225 20.3565 10.3579 20.4272 10.4286C20.4979 10.4993 20.5332 10.583 20.5332 10.6797ZM20.5332 4.60826C20.5332 4.71243 20.4997 4.79799 20.4328 4.86496L16.8613 8.43638C16.7944 8.50335 16.7088 8.53683 16.6046 8.53683C16.5079 8.53683 16.4242 8.50149 16.3535 8.4308C16.2828 8.36012 16.2475 8.27641 16.2475 8.17969V6.03683H0.890346C0.79362 6.03683 0.709914 6.00149 0.63923 5.9308C0.568545 5.86012 0.533203 5.77641 0.533203 5.67969V3.53683C0.533203 3.4401 0.568545 3.3564 0.63923 3.28571C0.709914 3.21503 0.79362 3.17969 0.890346 3.17969H16.2475V1.03683C16.2475 0.932664 16.281 0.847098 16.3479 0.780134C16.4149 0.71317 16.5005 0.679688 16.6046 0.679688C16.6939 0.679688 16.7832 0.71689 16.8725 0.791295L20.4328 4.35156C20.4997 4.41853 20.5332 4.50409 20.5332 4.60826Z" fill="black"/>
</g>
<defs>
<clipPath id="clip0_761_2666">
<rect width="20" height="15.3571" fill="white" transform="translate(0.533203 0.322266)"/>
</clipPath>
</defs>
</svg>
