<svg width="235" height="91" viewBox="0 0 235 91" fill="none" xmlns="http://www.w3.org/2000/svg">
<path d="M106.826 20.0175C108.045 20.0175 109.256 20.0129 110.46 20.003C111.664 19.9932 112.768 19.9812 113.772 19.9665C114.776 19.9517 115.634 19.9299 116.346 19.9007C117.057 19.8715 117.54 19.8324 117.793 19.7836L117.077 21.7286C116.755 21.6407 116.38 21.5627 115.951 21.4944C115.58 21.436 115.13 21.3801 114.598 21.3263C114.067 21.2728 113.455 21.246 112.763 21.246C112.529 21.246 112.249 21.2531 111.922 21.2679C111.596 21.2826 111.281 21.2996 110.979 21.3192C110.628 21.3386 110.272 21.358 109.912 21.3776V29.3616C110.915 29.3521 111.822 29.3226 112.631 29.274C113.44 29.2252 114.128 29.1766 114.693 29.1277C115.356 29.0693 115.941 29.0011 116.448 28.923L115.994 31.0433C115.322 30.9557 114.635 30.8727 113.933 30.7946C113.328 30.7264 112.67 30.6655 111.959 30.6121C111.247 30.5583 110.565 30.5315 109.912 30.5315V39.7002C111.062 39.7002 112.12 39.6513 113.085 39.5539C114.05 39.4564 114.893 39.3443 115.615 39.2176C116.453 39.0811 117.218 38.9204 117.91 38.735L117.486 41.1039C117.369 41.0941 117.193 41.0846 116.96 41.0748C116.726 41.0649 116.465 41.0554 116.177 41.0455C115.89 41.0357 115.588 41.0283 115.271 41.0234C114.954 41.0188 114.654 41.0139 114.372 41.0089C114.089 41.0041 113.838 40.9991 113.618 40.9942C113.399 40.9893 113.241 40.9871 113.143 40.9871H106.826V40.9284C106.884 40.7237 106.941 40.4704 106.994 40.168C107.048 39.8659 107.094 39.4906 107.133 39.0421C107.172 38.5936 107.201 38.06 107.221 37.4409C107.24 36.8219 107.25 36.098 107.25 35.2694V25.7497C107.25 24.9213 107.24 24.1974 107.221 23.5784C107.201 22.9593 107.172 22.423 107.133 21.9699C107.094 21.5166 107.048 21.1388 106.994 20.8366C106.941 20.5342 106.884 20.2809 106.826 20.0762V20.0175Z" fill="#004441"/>
<path d="M130.252 23.3621H129.93C129.852 23.138 129.728 22.8844 129.557 22.6016C129.387 22.3192 129.162 22.0533 128.885 21.8049C128.607 21.5563 128.271 21.3491 127.876 21.1834C127.481 21.0177 127.015 20.9347 126.479 20.9347C126.002 20.9347 125.578 21.0079 125.207 21.1542C124.837 21.3002 124.527 21.5049 124.278 21.7683C124.03 22.0315 123.842 22.3435 123.716 22.704C123.589 23.0648 123.526 23.4644 123.526 23.9034C123.526 24.6051 123.723 25.2755 124.118 25.9139C124.512 26.5523 125.007 27.1837 125.602 27.8076C126.196 28.4316 126.84 29.0553 127.532 29.6792C128.224 30.3032 128.868 30.9514 129.462 31.6243C130.057 32.2968 130.552 33.0013 130.947 33.7372C131.342 34.4733 131.539 35.2655 131.539 36.1135C131.539 36.747 131.429 37.3833 131.21 38.0217C130.99 38.6604 130.652 39.2331 130.193 39.7399C129.735 40.2468 129.145 40.6587 128.424 40.9756C127.703 41.2924 126.845 41.4507 125.851 41.4507C125.295 41.4507 124.766 41.3997 124.264 41.2973C123.762 41.195 123.299 41.0681 122.875 40.9171C122.451 40.7659 122.071 40.6027 121.734 40.4272C121.398 40.2517 121.123 40.0909 120.908 39.9446L121.245 36.7129H121.61C121.717 37.1712 121.893 37.6073 122.136 38.0217C122.38 38.436 122.68 38.8018 123.035 39.1184C123.391 39.4353 123.799 39.6888 124.256 39.8788C124.715 40.0691 125.217 40.1641 125.763 40.1641C126.26 40.1641 126.706 40.0885 127.101 39.9372C127.496 39.7863 127.834 39.5767 128.117 39.3086C128.4 39.0406 128.616 38.7213 128.768 38.3509C128.919 37.9802 128.994 37.5757 128.994 37.1371C128.994 36.5229 128.882 35.9549 128.658 35.4336C128.434 34.912 128.139 34.4171 127.773 33.9493C127.408 33.4814 126.994 33.0281 126.53 32.5894C126.067 32.1505 125.592 31.7095 125.105 31.2659C124.618 30.8224 124.142 30.3665 123.679 29.8987C123.216 29.4309 122.802 28.9311 122.436 28.3999C122.071 27.8685 121.775 27.2983 121.551 26.6888C121.327 26.0796 121.215 25.4095 121.215 24.6783C121.215 23.908 121.364 23.2136 121.661 22.5945C121.958 21.9755 122.353 21.4465 122.845 21.0079C123.338 20.5693 123.896 20.2327 124.52 19.9988C125.144 19.7649 125.787 19.6481 126.45 19.6481C126.938 19.6481 127.386 19.6868 127.795 19.7649C128.204 19.8429 128.573 19.9355 128.899 20.0427C129.226 20.15 129.511 20.2573 129.755 20.3645C129.999 20.4718 130.198 20.5594 130.354 20.6277L130.252 23.3621Z" fill="#004441"/>
<path d="M140.649 21.3126C139.498 21.3126 138.46 21.3636 137.534 21.466C136.608 21.5686 135.809 21.6781 135.136 21.7952C134.356 21.9414 133.659 22.1022 133.045 22.2777L133.469 19.9088C133.586 19.9186 133.762 19.9282 133.996 19.938C134.23 19.9478 134.49 19.9574 134.778 19.9672C135.065 19.9771 135.368 19.9844 135.684 19.9894C136.001 19.9939 136.301 19.9989 136.584 20.0038C136.866 20.0087 137.118 20.0136 137.337 20.0185C137.556 20.0235 137.714 20.0256 137.812 20.0256H146.162C146.259 20.0256 146.417 20.0235 146.637 20.0185C146.856 20.0136 147.107 20.0087 147.39 20.0038C147.673 19.9989 147.972 19.9939 148.289 19.9894C148.606 19.9844 148.908 19.9771 149.196 19.9672C149.483 19.9574 149.744 19.9478 149.978 19.938C150.212 19.9282 150.388 19.9186 150.505 19.9088L150.928 22.2777C150.305 22.1022 149.603 21.9414 148.823 21.7952C148.15 21.6781 147.351 21.5686 146.425 21.466C145.499 21.3636 144.46 21.3126 143.31 21.3126V35.2775C143.31 36.1062 143.323 36.83 143.346 37.4491C143.371 38.0681 143.4 38.6018 143.435 39.0502C143.469 39.4987 143.513 39.874 143.566 40.1762C143.619 40.4786 143.676 40.7319 143.734 40.9366V40.9952H140.239V40.9366C140.298 40.7319 140.351 40.4786 140.4 40.1762C140.449 39.874 140.493 39.4987 140.532 39.0502C140.571 38.6018 140.6 38.0681 140.62 37.4491C140.639 36.83 140.649 36.1062 140.649 35.2775V21.3126Z" fill="#004441"/>
<path d="M153.021 20.0309C154.24 20.0309 155.451 20.0263 156.655 20.0165C157.859 20.0066 158.963 19.9946 159.967 19.9799C160.971 19.9652 161.829 19.9433 162.541 19.9141C163.252 19.8849 163.735 19.8459 163.989 19.797L163.272 21.7421C162.95 21.6541 162.575 21.5761 162.146 21.5078C161.776 21.4494 161.325 21.3935 160.793 21.3397C160.262 21.2862 159.65 21.2595 158.958 21.2595C158.724 21.2595 158.444 21.2666 158.117 21.2813C157.791 21.2961 157.477 21.3129 157.174 21.3326C156.823 21.352 156.468 21.3714 156.107 21.391V29.3751C157.111 29.3655 158.017 29.336 158.827 29.2875C159.636 29.2386 160.323 29.19 160.888 29.1411C161.551 29.0827 162.136 29.0145 162.643 28.9364L162.19 31.0567C161.517 30.9691 160.83 30.8861 160.128 30.808C159.524 30.7398 158.866 30.679 158.154 30.6254C157.442 30.5717 156.76 30.5449 156.107 30.5449V39.7136C157.257 39.7136 158.315 39.6647 159.28 39.5673C160.245 39.4698 161.088 39.3576 161.809 39.231C162.648 39.0945 163.414 38.9338 164.105 38.7484L163.681 41.1174C163.564 41.1076 163.389 41.098 163.155 41.0881C162.921 41.0783 162.66 41.0688 162.373 41.059C162.085 41.0491 161.783 41.0417 161.466 41.0368C161.149 41.0322 160.849 41.0273 160.567 41.0224C160.284 41.0174 160.033 41.0126 159.814 41.0076C159.594 41.0027 159.436 41.0006 159.338 41.0006H153.021V40.9419C153.08 40.7371 153.136 40.4838 153.19 40.1814C153.243 39.8793 153.29 39.5039 153.328 39.0555C153.367 38.6071 153.397 38.0734 153.416 37.4544C153.436 36.8353 153.446 36.1115 153.446 35.2828V25.7631C153.446 24.9347 153.436 24.2109 153.416 23.5918C153.397 22.9728 153.367 22.4364 153.328 21.9833C153.29 21.5299 153.243 21.1522 153.19 20.8501C153.136 20.5476 153.08 20.2943 153.021 20.0896V20.0309Z" fill="#004441"/>
<path d="M173.211 21.3126C172.061 21.3126 171.022 21.3636 170.096 21.466C169.17 21.5686 168.371 21.6781 167.699 21.7952C166.918 21.9414 166.221 22.1022 165.607 22.2777L166.031 19.9088C166.148 19.9186 166.324 19.9282 166.558 19.938C166.792 19.9478 167.053 19.9574 167.34 19.9672C167.628 19.9771 167.93 19.9844 168.247 19.9894C168.563 19.9939 168.863 19.9989 169.146 20.0038C169.428 20.0087 169.68 20.0136 169.899 20.0185C170.118 20.0235 170.277 20.0256 170.374 20.0256H178.724C178.821 20.0256 178.979 20.0235 179.199 20.0185C179.418 20.0136 179.669 20.0087 179.952 20.0038C180.235 19.9989 180.534 19.9939 180.851 19.9894C181.168 19.9844 181.47 19.9771 181.758 19.9672C182.046 19.9574 182.306 19.9478 182.54 19.938C182.774 19.9282 182.95 19.9186 183.067 19.9088L183.491 22.2777C182.867 22.1022 182.165 21.9414 181.385 21.7952C180.713 21.6781 179.913 21.5686 178.987 21.466C178.061 21.3636 177.023 21.3126 175.872 21.3126V35.2775C175.872 36.1062 175.885 36.83 175.909 37.4491C175.933 38.0681 175.962 38.6018 175.997 39.0502C176.031 39.4987 176.075 39.874 176.128 40.1762C176.182 40.4786 176.238 40.7319 176.296 40.9366V40.9952H172.801V40.9366C172.86 40.7319 172.914 40.4786 172.962 40.1762C173.011 39.874 173.055 39.4987 173.094 39.0502C173.133 38.6018 173.163 38.0681 173.182 37.4491C173.201 36.83 173.211 36.1062 173.211 35.2775V21.3126Z" fill="#004441"/>
<path d="M185.717 40.939C185.775 40.7343 185.829 40.481 185.877 40.1786C185.926 39.8764 185.97 39.5011 186.009 39.0527C186.048 38.6042 186.077 38.0706 186.097 37.4515C186.116 36.8325 186.126 36.1086 186.126 35.28V25.7603C186.126 24.9319 186.116 24.208 186.097 23.589C186.077 22.97 186.048 22.4336 186.009 21.9805C185.97 21.5271 185.926 21.1494 185.877 20.8472C185.829 20.5448 185.775 20.2915 185.717 20.0868V20.0281H189.211V20.0868C189.153 20.2915 189.097 20.5448 189.043 20.8472C188.989 21.1494 188.946 21.5271 188.912 21.9805C188.877 22.4336 188.848 22.97 188.824 23.589C188.799 24.208 188.787 24.9319 188.787 25.7603V35.28C188.787 36.1086 188.799 36.8325 188.824 37.4515C188.848 38.0706 188.877 38.6042 188.912 39.0527C188.946 39.5011 188.989 39.8764 189.043 40.1786C189.097 40.481 189.153 40.7343 189.211 40.939V40.9977H185.717V40.939Z" fill="#004441"/>
<path d="M210.487 23.2459L210.355 23.3043C209.595 22.6022 208.681 22.0418 207.614 21.6226C206.546 21.2034 205.374 20.9937 204.097 20.9937C202.869 20.9937 201.742 21.1864 200.719 21.5715C199.695 21.9564 198.816 22.5146 198.08 23.2459C197.344 23.9768 196.771 24.8737 196.361 25.9363C195.952 26.9989 195.747 28.2078 195.747 29.563C195.747 31.0544 195.943 32.4461 196.332 33.7377C196.722 35.0294 197.302 36.1482 198.073 37.0937C198.842 38.0394 199.805 38.7827 200.961 39.3237C202.115 39.8649 203.463 40.1354 205.003 40.1354C205.559 40.1354 206.115 40.0767 206.67 39.9599C207.226 39.8428 207.76 39.6698 208.272 39.4408C208.784 39.2118 209.266 38.9339 209.719 38.6072C210.172 38.2807 210.584 37.9079 210.955 37.4886L211.116 37.591L209.946 40.574C209.215 40.8568 208.408 41.0735 207.526 41.2247C206.644 41.376 205.754 41.4513 204.857 41.4513C203.054 41.4513 201.404 41.1906 199.907 40.669C198.411 40.1474 197.124 39.4091 196.047 38.4538C194.97 37.4985 194.131 36.3504 193.532 35.0099C192.933 33.6695 192.633 32.1803 192.633 30.5426C192.633 29.6165 192.752 28.7051 192.991 27.8082C193.23 26.9113 193.578 26.0583 194.036 25.249C194.495 24.44 195.06 23.6967 195.733 23.019C196.405 22.3416 197.173 21.7542 198.036 21.2571C198.899 20.7598 199.849 20.3722 200.887 20.0946C201.925 19.8167 203.049 19.6779 204.258 19.6779C206.139 19.6779 207.884 19.9653 209.493 20.5406L210.487 23.2459Z" fill="#004441"/>
<path d="M223.354 19.6779C224.982 19.6779 226.485 19.9434 227.865 20.4746C229.244 21.006 230.436 21.7517 231.44 22.712C232.444 23.6722 233.229 24.8251 233.794 26.1705C234.36 27.5156 234.642 29.0024 234.642 30.6305C234.642 31.5566 234.535 32.468 234.321 33.3649C234.106 34.2618 233.792 35.1099 233.378 35.9093C232.963 36.7088 232.454 37.4472 231.849 38.1246C231.245 38.8023 230.555 39.387 229.78 39.8794C229.006 40.3718 228.15 40.7569 227.214 41.0345C226.278 41.3124 225.269 41.4513 224.187 41.4513C222.559 41.4513 221.055 41.1906 219.676 40.669C218.297 40.1474 217.105 39.4091 216.101 38.4538C215.097 37.4985 214.312 36.3504 213.746 35.0099C213.181 33.6695 212.898 32.1803 212.898 30.5426C212.898 29.6165 213.006 28.7051 213.22 27.8082C213.435 26.9113 213.749 26.0583 214.163 25.249C214.578 24.44 215.085 23.6967 215.684 23.019C216.284 22.3416 216.971 21.7542 217.746 21.2571C218.521 20.7598 219.379 20.3722 220.319 20.0946C221.26 19.8167 222.272 19.6779 223.354 19.6779ZM224.187 40.1354C225.269 40.1354 226.259 39.9403 227.156 39.5505C228.052 39.1604 228.825 38.5952 229.473 37.8541C230.121 37.1133 230.626 36.209 230.987 35.1415C231.347 34.074 231.528 32.863 231.528 31.5078C231.528 30.0065 231.355 28.6148 231.008 27.333C230.662 26.051 230.148 24.9395 229.466 23.9989C228.784 23.058 227.933 22.3222 226.914 21.7907C225.896 21.2596 224.709 20.9937 223.354 20.9937C222.272 20.9937 221.282 21.1864 220.385 21.5715C219.488 21.9564 218.716 22.5146 218.067 23.2459C217.419 23.9768 216.915 24.8737 216.554 25.9363C216.194 26.9989 216.013 28.2078 216.013 29.563C216.013 31.0544 216.184 32.4461 216.525 33.7377C216.866 35.0294 217.378 36.1482 218.06 37.0937C218.743 38.0394 219.596 38.7827 220.619 39.3237C221.643 39.8649 222.832 40.1354 224.187 40.1354Z" fill="#004441"/>
<path d="M121.332 60.9108C120.942 60.901 120.454 60.894 119.869 60.8888C119.284 60.8841 118.649 60.8766 117.961 60.8672C117.274 60.8574 116.558 60.8499 115.812 60.8447C115.066 60.84 114.337 60.8353 113.626 60.8306C112.914 60.8255 112.237 60.8278 111.593 60.8377C110.95 60.8475 110.389 60.8621 109.912 60.8813V65.2249C109.912 66.0533 109.924 66.7771 109.948 67.3958C109.973 68.0149 110.002 68.5487 110.036 68.9972C110.07 69.4456 110.114 69.8213 110.167 70.1234C110.221 70.4255 110.277 70.6788 110.336 70.8838V70.942H106.826V70.8838C106.884 70.6788 106.941 70.4255 106.994 70.1234C107.048 69.8213 107.094 69.4456 107.133 68.9972C107.172 68.5487 107.201 68.0149 107.221 67.3958C107.24 66.7771 107.25 66.0533 107.25 65.2249V55.7051C107.25 54.8762 107.24 54.1525 107.221 53.5333C107.201 52.9146 107.172 52.3784 107.133 51.9248C107.094 51.4717 107.048 51.0936 106.994 50.7916C106.941 50.4895 106.884 50.2357 106.826 50.0312V49.973H110.336V50.0312C110.277 50.2357 110.221 50.4895 110.167 50.7916C110.114 51.0936 110.07 51.4717 110.036 51.9248C110.002 52.3784 109.973 52.9146 109.948 53.5333C109.924 54.1525 109.912 54.8762 109.912 55.7051V59.4487C110.419 59.468 110.994 59.4802 111.637 59.4849C112.28 59.49 112.953 59.49 113.655 59.4849C114.357 59.4802 115.071 59.4727 115.797 59.4633C116.524 59.4534 117.225 59.4412 117.903 59.4267C118.58 59.4122 119.214 59.3948 119.804 59.3756C120.394 59.3559 120.903 59.3362 121.332 59.3169V55.7051C121.332 54.8762 121.32 54.1525 121.295 53.5333C121.271 52.9146 121.242 52.3784 121.208 51.9248C121.173 51.4717 121.129 51.0936 121.076 50.7916C121.022 50.4895 120.966 50.2357 120.908 50.0312V49.973H124.417V50.0312C124.359 50.2357 124.302 50.4895 124.249 50.7916C124.196 51.0936 124.149 51.4717 124.11 51.9248C124.071 52.3784 124.042 52.9146 124.022 53.5333C124.003 54.1525 123.993 54.8762 123.993 55.7051V65.2249C123.993 66.0533 124.003 66.7771 124.022 67.3958C124.042 68.0149 124.071 68.5487 124.11 68.9972C124.149 69.4456 124.196 69.8213 124.249 70.1234C124.302 70.4255 124.359 70.6788 124.417 70.8838V70.942H120.908V70.8838C120.966 70.6788 121.022 70.4255 121.076 70.1234C121.129 69.8213 121.173 69.4456 121.208 68.9972C121.242 68.5487 121.271 68.0149 121.295 67.3958C121.32 66.7771 121.332 66.0533 121.332 65.2249V60.9108Z" fill="#004441"/>
<path d="M138.162 49.6227C139.791 49.6227 141.294 49.8882 142.673 50.4196C144.053 50.9511 145.245 51.6969 146.249 52.6571C147.253 53.6173 148.038 54.7698 148.603 56.1151C149.168 57.4609 149.451 58.9474 149.451 60.5755C149.451 61.5015 149.343 62.4129 149.13 63.3097C148.915 64.2066 148.6 65.0552 148.186 65.854C147.772 66.6538 147.263 67.3921 146.658 68.0699C146.053 68.7472 145.364 69.3322 144.589 69.8247C143.814 70.3167 142.959 70.7018 142.023 70.9795C141.087 71.2572 140.078 71.3965 138.996 71.3965C137.368 71.3965 135.864 71.1353 134.485 70.6141C133.105 70.0925 131.914 69.3537 130.91 68.3987C129.906 67.4432 129.121 66.2954 128.555 64.9552C127.99 63.6146 127.707 62.1253 127.707 60.4878C127.707 59.5614 127.814 58.65 128.029 57.7531C128.243 56.8562 128.557 56.003 128.972 55.1943C129.386 54.3847 129.893 53.6417 130.493 52.9639C131.092 52.2865 131.779 51.6993 132.555 51.202C133.33 50.7048 134.188 50.3174 135.128 50.0392C136.069 49.7615 137.08 49.6227 138.162 49.6227ZM138.996 70.0803C140.078 70.0803 141.067 69.8852 141.964 69.4954C142.861 69.1056 143.634 68.5399 144.282 67.7992C144.93 67.0581 145.435 66.1542 145.795 65.0866C146.156 64.019 146.336 62.8078 146.336 61.4527C146.336 59.9512 146.163 58.5599 145.817 57.2779C145.471 55.996 144.957 54.8847 144.275 53.9438C143.592 53.0033 142.742 52.2668 141.723 51.7358C140.704 51.2044 139.518 50.9389 138.162 50.9389C137.08 50.9389 136.091 51.1312 135.194 51.5163C134.297 51.9014 133.524 52.4596 132.876 53.1904C132.228 53.9217 131.724 54.8186 131.363 55.8815C131.002 56.944 130.822 58.1528 130.822 59.5079C130.822 60.9996 130.992 62.3908 131.333 63.6826C131.675 64.9745 132.187 66.0927 132.869 67.0389C133.552 67.984 134.404 68.7275 135.428 69.2688C136.451 69.8097 137.641 70.0803 138.996 70.0803Z" fill="#004441"/>
<path d="M151.701 70.8838C151.809 70.7276 151.93 70.4963 152.067 70.1891C152.203 69.8819 152.31 69.4944 152.388 69.0267C152.496 68.3442 152.615 67.5764 152.747 66.7236C152.878 65.8703 153.015 64.9758 153.156 64.04C153.297 63.1042 153.439 62.1464 153.58 61.167C153.721 60.1871 153.858 59.2222 153.99 58.2714C154.121 57.321 154.248 56.4045 154.37 55.5221C154.492 54.6398 154.601 53.8335 154.698 53.1022C154.797 52.3709 154.877 51.7349 154.94 51.1935C155.003 50.6527 155.05 50.2456 155.079 49.973H156.936L166.134 67.1692L175.258 49.973H176.647L179.046 67.3451C179.114 67.8906 179.187 68.3588 179.265 68.7486C179.343 69.1388 179.421 69.4728 179.499 69.7505C179.577 70.0282 179.652 70.2571 179.725 70.4377C179.798 70.6183 179.869 70.7665 179.937 70.8838V70.942H176.252V70.8838C176.301 70.7764 176.348 70.6009 176.391 70.357C176.435 70.1136 176.457 69.8213 176.457 69.4799C176.457 69.3532 176.453 69.2237 176.443 69.0924C176.433 68.9606 176.418 68.8171 176.399 68.6613L174.542 54.652L165.915 70.8838L164.905 70.7665L156.22 54.5061C155.878 56.8163 155.581 58.9511 155.327 60.9108C155.22 61.7491 155.113 62.5854 155.006 63.4185C154.899 64.252 154.804 65.0293 154.721 65.7507C154.638 66.4722 154.572 67.1087 154.524 67.6594C154.475 68.2101 154.45 68.6172 154.45 68.8804C154.45 69.2115 154.46 69.5042 154.479 69.758C154.499 70.0113 154.518 70.2257 154.538 70.4011C154.567 70.6061 154.596 70.7862 154.626 70.942H151.701V70.8838Z" fill="#004441"/>
<path d="M183.229 49.9759C184.447 49.9759 185.658 49.9707 186.862 49.9609C188.066 49.9515 189.17 49.9393 190.174 49.9243C191.179 49.9102 192.037 49.8882 192.748 49.8586C193.46 49.8295 193.942 49.7906 194.196 49.7418L193.479 51.6866C193.157 51.5989 192.782 51.521 192.353 51.4525C191.983 51.3944 191.532 51.3381 191 51.2846C190.469 51.2307 189.857 51.2039 189.165 51.2039C188.931 51.2039 188.651 51.2114 188.324 51.226C187.998 51.2405 187.684 51.2579 187.381 51.2771C187.031 51.2968 186.675 51.316 186.314 51.3357V59.3198C187.318 59.31 188.224 59.2809 189.034 59.2321C189.843 59.1833 190.53 59.1345 191.096 59.0862C191.758 59.0271 192.343 58.9591 192.85 58.8812L192.397 61.0014C191.725 60.9137 191.037 60.8312 190.335 60.7528C189.731 60.6848 189.073 60.6238 188.361 60.5699C187.649 60.5164 186.967 60.4897 186.314 60.4897V69.6586C187.464 69.6586 188.522 69.6094 189.487 69.5123C190.452 69.4147 191.295 69.3026 192.017 69.176C192.855 69.0395 193.621 68.8786 194.312 68.6933L193.888 71.0621C193.772 71.0522 193.596 71.0424 193.362 71.033C193.128 71.0232 192.867 71.0133 192.58 71.0035C192.292 70.9941 191.99 70.9866 191.673 70.9819C191.356 70.9767 191.057 70.972 190.774 70.9669C190.491 70.9622 190.24 70.9575 190.021 70.9523C189.801 70.9476 189.643 70.9453 189.545 70.9453H183.229V70.8867C183.287 70.6821 183.343 70.4284 183.396 70.1263C183.45 69.8242 183.496 69.449 183.536 69.0005C183.575 68.5521 183.604 68.0178 183.623 67.3991C183.643 66.7799 183.653 66.0562 183.653 65.2278V55.708C183.653 54.8791 183.643 54.1553 183.623 53.5366C183.604 52.9174 183.575 52.3813 183.536 51.9277C183.496 51.4746 183.45 51.097 183.396 50.7944C183.343 50.4923 183.287 50.239 183.229 50.0341V49.9759Z" fill="#004441"/>
<path d="M45.323 90.7312C70.2928 90.7312 90.5347 70.4884 90.5347 45.5183C90.5347 20.5481 70.2928 0.305664 45.323 0.305664C20.3533 0.305664 0.111328 20.5481 0.111328 45.5183C0.111328 70.4884 20.3533 90.7312 45.323 90.7312Z" fill="#004441"/>
<path d="M32.58 26.2432C32.5534 26.4566 32.5277 26.6818 32.5029 26.9196C32.4783 27.1574 32.4602 27.3771 32.4488 27.5788C32.2091 27.5706 31.9085 27.5643 31.5471 27.5589C31.1855 27.5525 30.8946 27.5498 30.6738 27.5498C30.4532 27.5498 30.1393 27.5544 29.7322 27.5616C29.3251 27.5688 29.0207 27.5751 28.8191 27.5788C28.8077 27.5788 28.7972 27.5634 28.7877 27.5326C28.7781 27.5028 28.7734 27.4757 28.7734 27.4531C28.7734 27.4341 28.7781 27.4097 28.7877 27.3789C28.7972 27.3482 28.8077 27.331 28.8191 27.3274C29.0435 27.3012 29.191 27.2533 29.2614 27.1845C29.3318 27.1167 29.367 27.0046 29.367 26.8481V24.3424C29.367 24.1869 29.3318 24.0748 29.2614 24.0061C29.191 23.9374 29.0435 23.8904 28.8191 23.8632C28.8077 23.8596 28.7972 23.8424 28.7877 23.8116C28.7781 23.7818 28.7734 23.7565 28.7734 23.7375C28.7734 23.7149 28.7781 23.6887 28.7877 23.6579C28.7972 23.6272 28.8077 23.6118 28.8191 23.6118C29.0207 23.6163 29.3099 23.6218 29.6865 23.629C30.0632 23.6371 30.3733 23.6408 30.6168 23.6408C30.8223 23.6408 31.1133 23.638 31.4899 23.6317C31.8666 23.6263 32.171 23.62 32.4031 23.6118C32.3955 23.7683 32.3983 23.9699 32.4117 24.2168C32.425 24.4645 32.4355 24.687 32.4431 24.885C32.4431 24.9004 32.4288 24.9166 32.4002 24.9338C32.3718 24.9501 32.3327 24.9591 32.2832 24.9591C32.2566 24.9591 32.2338 24.9555 32.2148 24.9474C32.1958 24.9402 32.1863 24.932 32.1863 24.9248C32.1558 24.6851 32.0559 24.4573 31.8866 24.243C31.7174 24.0278 31.4785 23.9201 31.1704 23.9201H30.8279C30.7519 23.9201 30.6776 23.9392 30.6054 23.9771C30.5331 24.0151 30.497 24.1091 30.497 24.2574V25.4384H30.691C30.8812 25.4384 31.0344 25.3814 31.1504 25.2675C31.2664 25.1536 31.334 25.0025 31.353 24.8163C31.353 24.8054 31.3692 24.7946 31.4015 24.7846C31.4339 24.7756 31.4596 24.771 31.4785 24.771C31.5052 24.771 31.5328 24.7756 31.5613 24.7846C31.5898 24.7946 31.6041 24.8054 31.6041 24.8163C31.6041 24.9574 31.5993 25.0885 31.5898 25.2106C31.5804 25.3317 31.5756 25.4574 31.5756 25.5867C31.5756 25.7196 31.5804 25.8444 31.5898 25.9611C31.5993 26.0768 31.6041 26.2034 31.6041 26.3399C31.6041 26.3517 31.5898 26.3617 31.5613 26.3716C31.5328 26.3807 31.5052 26.3861 31.4785 26.3861C31.4596 26.3861 31.4348 26.3807 31.4044 26.3716C31.3739 26.3617 31.3568 26.3517 31.353 26.3399C31.3302 26.1428 31.2664 25.9891 31.1618 25.8806C31.0572 25.7721 30.9003 25.7178 30.691 25.7178H30.497V26.9341C30.497 27.0706 30.5331 27.161 30.6054 27.2053C30.6776 27.2487 30.7519 27.2704 30.8279 27.2704H31.1247C31.4139 27.2704 31.6707 27.1656 31.8952 26.9566C32.1196 26.7478 32.2604 26.49 32.3175 26.1862C32.3175 26.1781 32.3261 26.1727 32.3432 26.1691C32.3604 26.1654 32.3802 26.1636 32.4031 26.1636C32.445 26.1636 32.4859 26.1708 32.5258 26.1862C32.5658 26.2016 32.5839 26.2206 32.58 26.2432Z" fill="#FFF3E5" stroke="#FFF3E5" stroke-width="3.88889e-05" stroke-miterlimit="2" stroke-linejoin="round"/>
<path d="M31.3358 30.908C31.5602 31.041 31.7714 31.2001 31.9692 31.3846C32.1671 31.569 32.266 31.8023 32.266 32.0836C32.266 32.4868 32.1205 32.8034 31.8294 33.0339C31.5384 33.2645 31.1721 33.3793 30.7308 33.3793C30.4607 33.3793 30.2296 33.3423 30.0374 33.2681C29.8453 33.194 29.6256 33.1334 29.3783 33.0882C29.3745 32.9516 29.3725 32.769 29.3725 32.5402C29.3725 32.3123 29.3669 32.1107 29.3555 31.9353C29.3555 31.9235 29.3716 31.9135 29.4039 31.9036C29.4363 31.8946 29.4639 31.89 29.4867 31.89C29.5134 31.89 29.539 31.8936 29.5637 31.9009C29.5885 31.909 29.6028 31.9199 29.6066 31.9353C29.6788 32.2743 29.8301 32.5538 30.0602 32.7744C30.2905 32.995 30.514 33.1054 30.7308 33.1054C30.9515 33.1054 31.1103 33.0565 31.2073 32.9598C31.3044 32.863 31.3529 32.7301 31.3529 32.5628C31.3529 32.3576 31.254 32.1848 31.0561 32.0438C30.8583 31.9027 30.6452 31.7661 30.417 31.6332C30.1848 31.4994 29.9699 31.3421 29.772 31.1594C29.5742 30.9768 29.4753 30.7516 29.4753 30.4857C29.4753 30.1322 29.6094 29.8338 29.8777 29.5923C30.1458 29.3509 30.514 29.2297 30.9819 29.2297C31.1911 29.2297 31.3719 29.256 31.5241 29.3075C31.6762 29.3581 31.8399 29.4015 32.0149 29.4359C32.0187 29.5724 32.0254 29.7433 32.0349 29.9495C32.0444 30.1547 32.0567 30.3239 32.0719 30.4568C32.0719 30.4686 32.0558 30.4785 32.0235 30.4884C31.9911 30.4984 31.9654 30.5029 31.9465 30.5029C31.9198 30.5029 31.8932 30.4993 31.8665 30.4912C31.8399 30.4839 31.8227 30.4722 31.8151 30.4568C31.7429 30.1602 31.6363 29.9269 31.4956 29.7578C31.3548 29.5887 31.1817 29.5037 30.9762 29.5037C30.7975 29.5037 30.6566 29.5517 30.5539 29.6466C30.4512 29.7415 30.3998 29.8618 30.3998 30.0065C30.3998 30.1964 30.4959 30.3591 30.688 30.4939C30.8802 30.6295 31.0961 30.767 31.3358 30.908Z" fill="#FFF3E5" stroke="#FFF3E5" stroke-width="3.88889e-05" stroke-miterlimit="2" stroke-linejoin="round"/>
<path d="M32.8397 36.3615C32.8397 36.3805 32.8254 36.3976 32.7968 36.413C32.7684 36.4284 32.735 36.4356 32.697 36.4356C32.6817 36.4356 32.6608 36.4329 32.6342 36.4275C32.6076 36.4212 32.5924 36.4148 32.5886 36.4076C32.5352 36.1978 32.4087 35.9672 32.209 35.714C32.0092 35.4608 31.8219 35.3342 31.6469 35.3342H31.5613C31.4737 35.3342 31.411 35.3523 31.3729 35.3885C31.3349 35.4247 31.3159 35.4807 31.3159 35.5567V38.2622C31.3159 38.4141 31.3521 38.5263 31.4243 38.5986C31.4966 38.6709 31.6431 38.7189 31.8638 38.7415C31.8752 38.7415 31.8856 38.7578 31.8952 38.7903C31.9046 38.8219 31.9094 38.8482 31.9094 38.8671C31.9094 38.8898 31.9046 38.9169 31.8952 38.9467C31.8856 38.9775 31.8752 38.9929 31.8638 38.9929C31.6811 38.9929 31.4937 38.9874 31.3016 38.9784C31.1094 38.9684 30.9278 38.9639 30.7566 38.9639C30.5815 38.9639 30.3989 38.9684 30.2087 38.9784C30.0185 38.9874 29.8302 38.9929 29.6437 38.9929C29.6323 38.9929 29.6218 38.9775 29.6123 38.9467C29.6028 38.9169 29.598 38.8898 29.598 38.8671C29.598 38.8482 29.6028 38.8229 29.6123 38.793C29.6218 38.7623 29.6323 38.7451 29.6437 38.7415C29.8682 38.7152 30.0156 38.6673 30.086 38.5986C30.1564 38.5299 30.1916 38.4178 30.1916 38.2622V35.5567C30.1916 35.4735 30.1744 35.4147 30.1402 35.3831C30.106 35.3505 30.0413 35.3342 29.9462 35.3342H29.9005C29.7445 35.3342 29.5523 35.4509 29.3241 35.6851C29.0958 35.9193 28.9341 36.1599 28.839 36.4076C28.8352 36.4185 28.8209 36.4266 28.7962 36.4302C28.7714 36.4338 28.7515 36.4356 28.7363 36.4356C28.702 36.4356 28.6688 36.4284 28.6364 36.413C28.6041 36.3976 28.5879 36.3805 28.5879 36.3615C28.626 36.1716 28.6668 35.9383 28.7106 35.6625C28.7544 35.3867 28.7857 35.157 28.8047 34.9744C28.9379 34.9979 29.1453 35.0169 29.4269 35.0313C29.7084 35.0467 30.1517 35.0548 30.7566 35.0548C31.274 35.0548 31.7049 35.0467 32.0492 35.0313C32.3935 35.0169 32.6209 34.9979 32.7312 34.9744C32.7427 35.157 32.7579 35.374 32.7768 35.6254C32.7959 35.8768 32.8168 36.1219 32.8397 36.3615Z" fill="#FFF3E5" stroke="#FFF3E5" stroke-width="3.88889e-05" stroke-miterlimit="2" stroke-linejoin="round"/>
<path d="M32.58 43.3652C32.5534 43.5786 32.5277 43.8037 32.5029 44.0416C32.4783 44.2794 32.4602 44.4991 32.4488 44.7008C32.2091 44.6926 31.9085 44.6863 31.5471 44.6809C31.1855 44.6754 30.8946 44.6718 30.6738 44.6718C30.4532 44.6718 30.1393 44.6764 29.7322 44.6836C29.3251 44.6908 29.0207 44.6971 28.8191 44.7008C28.8077 44.7008 28.7972 44.6854 28.7877 44.6546C28.7781 44.6248 28.7734 44.5976 28.7734 44.575C28.7734 44.556 28.7781 44.5317 28.7877 44.5009C28.7972 44.4702 28.8077 44.453 28.8191 44.4494C29.0435 44.4232 29.191 44.3752 29.2614 44.3065C29.3318 44.2387 29.367 44.1266 29.367 43.9701V41.4644C29.367 41.3089 29.3318 41.1967 29.2614 41.128C29.191 41.0593 29.0435 41.0123 28.8191 40.9851C28.8077 40.9815 28.7972 40.9644 28.7877 40.9336C28.7781 40.9038 28.7734 40.8785 28.7734 40.8595C28.7734 40.8369 28.7781 40.8106 28.7877 40.7799C28.7972 40.7491 28.8077 40.7338 28.8191 40.7338C29.0207 40.7383 29.3099 40.7438 29.6865 40.751C30.0632 40.7591 30.3733 40.7627 30.6168 40.7627C30.8223 40.7627 31.1133 40.76 31.4899 40.7537C31.8666 40.7482 32.171 40.7419 32.4031 40.7338C32.3955 40.8902 32.3983 41.0919 32.4117 41.3387C32.425 41.5865 32.4355 41.8089 32.4431 42.007C32.4431 42.0223 32.4288 42.0386 32.4002 42.0549C32.3718 42.0721 32.3327 42.0811 32.2832 42.0811C32.2566 42.0811 32.2338 42.0775 32.2148 42.0694C32.1958 42.0621 32.1863 42.0549 32.1863 42.0467C32.1558 41.8071 32.0559 41.5802 31.8866 41.3649C31.7174 41.1497 31.4785 41.0421 31.1704 41.0421H30.8279C30.7519 41.0421 30.6776 41.0611 30.6054 41.0991C30.5331 41.1371 30.497 41.2302 30.497 41.3794V42.5604H30.691C30.8812 42.5604 31.0344 42.5034 31.1504 42.3894C31.2664 42.2755 31.334 42.1245 31.353 41.9382C31.353 41.9274 31.3692 41.9165 31.4015 41.9066C31.4339 41.8975 31.4596 41.893 31.4785 41.893C31.5052 41.893 31.5328 41.8975 31.5613 41.9066C31.5898 41.9165 31.6041 41.9274 31.6041 41.9382C31.6041 42.0793 31.5993 42.2104 31.5898 42.3325C31.5804 42.4537 31.5756 42.5794 31.5756 42.7087C31.5756 42.8425 31.5804 42.9664 31.5898 43.083C31.5993 43.1988 31.6041 43.3254 31.6041 43.4619C31.6041 43.4737 31.5898 43.4845 31.5613 43.4936C31.5328 43.5035 31.5052 43.508 31.4785 43.508C31.4596 43.508 31.4348 43.5035 31.4044 43.4936C31.3739 43.4845 31.3568 43.4737 31.353 43.4619C31.3302 43.2648 31.2664 43.1111 31.1618 43.0026C31.0572 42.894 30.9003 42.8398 30.691 42.8398H30.497V44.056C30.497 44.1926 30.5331 44.283 30.6054 44.3273C30.6776 44.3707 30.7519 44.3924 30.8279 44.3924H31.1247C31.4139 44.3924 31.6707 44.2875 31.8952 44.0786C32.1196 43.8697 32.2604 43.6129 32.3175 43.3082C32.3175 43.3001 32.3261 43.2946 32.3432 43.291C32.3604 43.2874 32.3802 43.2856 32.4031 43.2856C32.445 43.2856 32.4859 43.2928 32.5258 43.3082C32.5658 43.3236 32.5839 43.3426 32.58 43.3652Z" fill="#FFF3E5" stroke="#FFF3E5" stroke-width="3.88889e-05" stroke-miterlimit="2" stroke-linejoin="round"/>
<path d="M32.8397 47.7759C32.8397 47.7952 32.8254 47.8125 32.7968 47.8275C32.7684 47.843 32.735 47.8501 32.697 47.8501C32.6817 47.8501 32.6608 47.8477 32.6342 47.8421C32.6076 47.836 32.5924 47.8294 32.5886 47.8224C32.5352 47.6127 32.4087 47.3819 32.209 47.1286C32.0092 46.8755 31.8219 46.7489 31.6469 46.7489H31.5613C31.4737 46.7489 31.411 46.767 31.3729 46.8032C31.3349 46.8393 31.3159 46.8954 31.3159 46.9715V49.6771C31.3159 49.8286 31.3521 49.9407 31.4243 50.0134C31.4966 50.0857 31.6431 50.1335 31.8638 50.156C31.8752 50.156 31.8856 50.1724 31.8952 50.2039C31.9046 50.2367 31.9094 50.263 31.9094 50.2817C31.9094 50.3042 31.9046 50.3305 31.8952 50.3615C31.8856 50.392 31.8752 50.4074 31.8638 50.4074C31.6811 50.4074 31.4937 50.4023 31.3016 50.3929C31.1094 50.383 30.9278 50.3788 30.7566 50.3788C30.5815 50.3788 30.3989 50.383 30.2087 50.3929C30.0185 50.4023 29.8302 50.4074 29.6437 50.4074C29.6323 50.4074 29.6218 50.392 29.6123 50.3615C29.6028 50.3305 29.598 50.3042 29.598 50.2817C29.598 50.263 29.6028 50.2376 29.6123 50.2076C29.6218 50.1771 29.6323 50.1598 29.6437 50.156C29.8682 50.1288 30.0156 50.0819 30.086 50.0134C30.1564 49.9445 30.1916 49.8324 30.1916 49.6771V46.9715C30.1916 46.8882 30.1744 46.8294 30.1402 46.7977C30.106 46.7652 30.0413 46.7489 29.9462 46.7489H29.9005C29.7445 46.7489 29.5523 46.8656 29.3241 47.0995C29.0958 47.3341 28.9341 47.5747 28.839 47.8224C28.8352 47.8332 28.8209 47.8411 28.7962 47.8449C28.7714 47.8486 28.7515 47.8501 28.7363 47.8501C28.702 47.8501 28.6688 47.843 28.6364 47.8275C28.6041 47.8125 28.5879 47.7952 28.5879 47.7759C28.626 47.5864 28.6668 47.3528 28.7106 47.077C28.7544 46.8014 28.7857 46.5717 28.8047 46.389C28.9379 46.4125 29.1453 46.4315 29.4269 46.446C29.7084 46.4614 30.1517 46.4695 30.7566 46.4695C31.274 46.4695 31.7049 46.4614 32.0492 46.446C32.3935 46.4315 32.6209 46.4125 32.7312 46.389C32.7427 46.5717 32.7579 46.7887 32.7768 47.04C32.7959 47.2914 32.8168 47.5367 32.8397 47.7759Z" fill="#FFF3E5" stroke="#FFF3E5" stroke-width="3.88889e-05" stroke-miterlimit="2" stroke-linejoin="round"/>
<path d="M31.8641 55.9899C31.8641 56.0171 31.8593 56.0439 31.8498 56.0729C31.8403 56.1011 31.8298 56.1156 31.8184 56.1156C31.632 56.1156 31.4446 56.1109 31.2563 56.1011C31.0679 56.0922 30.8863 56.0865 30.7112 56.0865C30.5363 56.0865 30.3536 56.0922 30.1634 56.1011C29.9731 56.1109 29.7848 56.1156 29.5984 56.1156C29.587 56.1156 29.5765 56.1001 29.567 56.0692C29.5575 56.0396 29.5527 56.0124 29.5527 55.9899C29.5527 55.9707 29.5575 55.9463 29.567 55.9158C29.5765 55.8848 29.587 55.8675 29.5984 55.8642C29.8228 55.8379 29.9703 55.7901 30.0407 55.7211C30.1111 55.6536 30.1463 55.5405 30.1463 55.3848V52.879C30.1463 52.7238 30.1111 52.6117 30.0407 52.5427C29.9703 52.4742 29.8228 52.4268 29.5984 52.4001C29.587 52.3963 29.5765 52.379 29.567 52.3485C29.5575 52.3185 29.5527 52.2932 29.5527 52.2744C29.5527 52.2514 29.5575 52.2251 29.567 52.1947C29.5765 52.1637 29.587 52.1487 29.5984 52.1487C29.7848 52.1487 29.9731 52.1538 30.1634 52.1628C30.3536 52.1731 30.5363 52.1773 30.7112 52.1773C30.8863 52.1773 31.0679 52.1731 31.2563 52.1628C31.4446 52.1538 31.632 52.1487 31.8184 52.1487C31.8298 52.1487 31.8403 52.1628 31.8498 52.1918C31.8593 52.22 31.8641 52.2481 31.8641 52.2744C31.8641 52.2932 31.8593 52.3194 31.8498 52.3509C31.8403 52.3837 31.8298 52.4001 31.8184 52.4001C31.6015 52.4226 31.4569 52.4705 31.3847 52.5427C31.3124 52.6149 31.2763 52.727 31.2763 52.879V55.3848C31.2763 55.5368 31.3124 55.6489 31.3847 55.7211C31.4569 55.7934 31.6015 55.8417 31.8184 55.8642C31.8298 55.8642 31.8403 55.8801 31.8498 55.913C31.8593 55.9453 31.8641 55.9707 31.8641 55.9899Z" fill="#FFF3E5" stroke="#FFF3E5" stroke-width="3.88889e-05" stroke-miterlimit="2" stroke-linejoin="round"/>
<path d="M32.6539 60.4259C32.631 60.6013 32.6035 60.8185 32.5712 61.0798C32.5388 61.3401 32.515 61.5371 32.4998 61.6699C32.3286 61.6699 32.1165 61.7107 31.8635 61.7932C31.6104 61.8744 31.3393 61.9152 31.0503 61.9152C30.6622 61.9152 30.3187 61.8575 30.0201 61.7416C29.7214 61.6248 29.4732 61.4719 29.2753 61.2819C29.0775 61.0915 28.93 60.8743 28.8331 60.6285C28.736 60.3832 28.6875 60.1275 28.6875 59.8606C28.6875 59.309 28.9053 58.8216 29.341 58.3995C29.7767 57.9773 30.3616 57.7662 31.0959 57.7662C31.4193 57.7662 31.6856 57.7953 31.8949 57.8525C32.1041 57.9093 32.2963 57.9374 32.4713 57.9374C32.4788 58.1199 32.4903 58.3254 32.5055 58.5538C32.5207 58.7818 32.536 58.9915 32.5512 59.1814C32.5512 59.1932 32.5341 59.2035 32.4998 59.2133C32.4656 59.2222 32.4352 59.2279 32.4085 59.2279C32.3895 59.2279 32.3676 59.2232 32.3429 59.2161C32.3182 59.2086 32.302 59.1969 32.2944 59.1814C32.2449 58.9037 32.1032 58.6443 31.8692 58.4032C31.6352 58.1607 31.3698 58.0406 31.0731 58.0406C30.6241 58.0406 30.3102 58.2123 30.1314 58.5566C29.9526 58.9014 29.8632 59.3362 29.8632 59.8606C29.8632 60.3743 29.9516 60.7993 30.1286 61.1365C30.3054 61.4728 30.6127 61.6412 31.0503 61.6412C31.4003 61.6412 31.6856 61.5198 31.9063 61.2768C32.1269 61.0324 32.2925 60.7495 32.4028 60.4259C32.4066 60.4104 32.4228 60.3996 32.4513 60.3916C32.4799 60.3841 32.5036 60.3804 32.5226 60.3804C32.5417 60.3804 32.5683 60.3851 32.6026 60.394C32.6368 60.4043 32.6539 60.4142 32.6539 60.4259Z" fill="#FFF3E5" stroke="#FFF3E5" stroke-width="3.88889e-05" stroke-miterlimit="2" stroke-linejoin="round"/>
<path d="M32.9488 65.5678C32.9488 66.1387 32.7538 66.6242 32.3638 67.0229C31.9738 67.4225 31.4231 67.6224 30.7116 67.6224C30.0001 67.6224 29.4485 67.4216 29.0566 67.0201C28.6647 66.619 28.4688 66.1349 28.4688 65.5678C28.4688 65.0012 28.6647 64.5101 29.0566 64.0959C29.4485 63.6807 30.0001 63.4739 30.7116 63.4739C31.4078 63.4739 31.9548 63.6779 32.3524 64.087C32.75 64.4955 32.9488 64.9895 32.9488 65.5678ZM31.7732 65.5678C31.7732 65.0425 31.697 64.6086 31.5449 64.2643C31.3926 63.9195 31.1149 63.7478 30.7116 63.7478C30.3045 63.7478 30.0258 63.9214 29.8756 64.2694C29.7253 64.6175 29.6501 65.0509 29.6501 65.5678C29.6501 66.0969 29.7253 66.5257 29.8756 66.855C30.0258 67.1838 30.3045 67.3484 30.7116 67.3484C31.1149 67.3484 31.3926 67.1828 31.5449 66.8521C31.697 66.521 31.7732 66.0932 31.7732 65.5678Z" fill="#FFF3E5" stroke="#FFF3E5" stroke-width="3.88889e-05" stroke-miterlimit="2" stroke-linejoin="round"/>
<path d="M23.2027 69.3462C25.2612 69.0985 50.882 68.5647 50.882 68.5647C53.8333 68.5647 56.7598 67.6036 59.6619 65.6813C62.564 63.7596 64.6968 61.3598 66.0608 58.4825C66.1603 58.2592 66.3709 58.148 66.6931 58.148C67.0407 58.148 67.3508 58.2409 67.6233 58.4262C67.8963 58.6124 68.0328 58.8423 68.0328 59.1153C66.0238 63.4059 64.3868 67.4976 63.1217 71.3923C53.7714 71.0949 47.1122 70.9457 43.1437 70.9457C39.2249 70.9457 32.5779 71.0949 23.2027 71.3923C22.8059 71.3923 22.6074 71.0452 22.6074 70.351C22.6074 69.7304 22.8059 69.3959 23.2027 69.3462ZM37.7612 43.9104C37.7612 43.7992 37.8056 43.6916 37.8846 43.6129C37.9637 43.5333 38.0708 43.489 38.1826 43.489H47.8312C50.3116 43.489 51.9918 42.9193 52.8722 41.7781C53.7527 40.637 54.3667 38.616 54.7138 35.7133C54.7138 35.3173 55.0609 35.1183 55.7556 35.1183C56.4498 35.1183 56.7973 35.3173 56.7973 35.7133C56.7973 36.954 56.7228 38.5165 56.5741 40.401C56.4254 42.2122 56.3508 43.6879 56.3508 44.8291C56.3508 45.9947 56.4254 47.4823 56.5741 49.2934C56.7228 51.2274 56.7973 52.8156 56.7973 54.0554C56.7973 54.4522 56.4498 54.6502 55.7556 54.6502C55.0609 54.6502 54.7138 54.4522 54.7138 54.0554C54.3418 51.0294 53.6907 48.9083 52.7606 47.6929C51.8304 46.4775 50.1873 45.8708 47.8312 45.8708H38.1826C38.0708 45.8708 37.9637 45.8256 37.8846 45.7469C37.8056 45.6682 37.7612 45.5606 37.7612 45.4494V43.9104ZM42.7716 22.4687C41.699 22.4687 25.3109 21.9732 23.2027 21.7245C22.8059 21.7245 22.6074 21.3773 22.6074 20.6828C22.6074 19.9884 22.8059 19.6411 23.2027 19.6411C29.4528 19.9395 35.8518 20.0878 42.3995 20.0878C48.9968 20.0878 55.4084 19.9395 61.6338 19.6411C62.2042 23.486 63.0349 27.2812 64.1264 31.0257C64.1264 31.5221 63.6921 31.7699 62.8243 31.7699C62.4026 31.7699 62.1423 31.5963 62.0429 31.249C60.2074 25.3958 56.2889 22.4687 50.2868 22.4687H42.7716Z" fill="#FFF3E5"/>
</svg>
