{
    "asset" : {
        "generator" : "Khronos glTF Blender I/O v1.7.33",
        "version" : "2.0"
    },
    "scene" : 0,
    "scenes" : [
        {
            "name" : "Scene",
            "nodes" : [
                0
            ]
        }
    ],
    "nodes" : [
        {
            "mesh" : 0,
            "name" : "Plane.007"
        }
    ],
    "materials" : [
        {
            "doubleSided" : true,
            "name" : "besi hitam.016",
            "pbrMetallicRoughness" : {
                "baseColorFactor" : [
                    0,
                    0,
                    0,
                    1
                ],
                "roughnessFactor" : 0.3499999940395355
            }
        }
    ],
    "meshes" : [
        {
            "name" : "Plane.034",
            "primitives" : [
                {
                    "attributes" : {
                        "POSITION" : 0,
                        "NORMAL" : 1,
                        "TEXCOORD_0" : 2
                    },
                    "indices" : 3,
                    "material" : 0
                }
            ]
        }
    ],
    "accessors" : [
        {
            "bufferView" : 0,
            "componentType" : 5126,
            "count" : 2160,
            "max" : [
                0.8999999761581421,
                0.7399966716766357,
                0.28350400924682617
            ],
            "min" : [
                -0.8999999761581421,
                -3.3783594517444726e-06,
                -0.2834959626197815
            ],
            "type" : "VEC3"
        },
        {
            "bufferView" : 1,
            "componentType" : 5126,
            "count" : 2160,
            "type" : "VEC3"
        },
        {
            "bufferView" : 2,
            "componentType" : 5126,
            "count" : 2160,
            "type" : "VEC2"
        },
        {
            "bufferView" : 3,
            "componentType" : 5123,
            "count" : 9222,
            "type" : "SCALAR"
        }
    ],
    "bufferViews" : [
        {
            "buffer" : 0,
            "byteLength" : 25920,
            "byteOffset" : 0
        },
        {
            "buffer" : 0,
            "byteLength" : 25920,
            "byteOffset" : 25920
        },
        {
            "buffer" : 0,
            "byteLength" : 17280,
            "byteOffset" : 51840
        },
        {
            "buffer" : 0,
            "byteLength" : 18444,
            "byteOffset" : 69120
        }
    ],
    "buffers" : [
        {
            "byteLength" : 87564,
            "uri" : "data:application/octet-stream;base64,"
        }
    ]
}
