{
    "asset" : {
        "generator" : "Khronos glTF Blender I/O v1.7.33",
        "version" : "2.0"
    },
    "scene" : 0,
    "scenes" : [
        {
            "name" : "Scene",
            "nodes" : [
                0
            ]
        }
    ],
    "nodes" : [
        {
            "mesh" : 0,
            "name" : "Curve.007"
        }
    ],
    "materials" : [
        {
            "doubleSided" : true,
            "name" : "cf2be1de-b81c-4d69-9418-dde91d266086",
            "pbrMetallicRoughness" : {
                "baseColorFactor" : [
                    0.9803919792175293,
                    0.9803919792175293,
                    0.9803919792175293,
                    1
                ],
                "roughnessFactor" : 0.5
            }
        }
    ],
    "meshes" : [
        {
            "name" : "mesh-da30a0b0-84ea-46e1-94d0-0fe5f195f9ea",
            "primitives" : [
                {
                    "attributes" : {
                        "POSITION" : 0,
                        "NORMAL" : 1,
                        "TEXCOORD_0" : 2,
                        "TEXCOORD_1" : 3,
                        "TEXCOORD_2" : 4,
                        "TEXCOORD_3" : 5,
                        "TEXCOORD_4" : 6,
                        "TEXCOORD_5" : 7,
                        "TEXCOORD_6" : 8,
                        "TEXCOORD_7" : 9,
                        "TEXCOORD_8" : 10,
                        "TEXCOORD_9" : 11,
                        "TEXCOORD_10" : 12,
                        "TEXCOORD_11" : 13,
                        "TEXCOORD_12" : 14,
                        "TEXCOORD_13" : 15,
                        "TEXCOORD_14" : 16,
                        "TEXCOORD_15" : 17
                    },
                    "indices" : 18,
                    "material" : 0
                }
            ]
        }
    ],
    "accessors" : [
        {
            "bufferView" : 0,
            "componentType" : 5126,
            "count" : 794,
            "max" : [
                0.8999999165534973,
                0.7251105308532715,
                0.39999932050704956
            ],
            "min" : [
                -0.9000000953674316,
                -0.014889403246343136,
                -0.4000006318092346
            ],
            "type" : "VEC3"
        },
        {
            "bufferView" : 1,
            "componentType" : 5126,
            "count" : 794,
            "type" : "VEC3"
        },
        {
            "bufferView" : 2,
            "componentType" : 5126,
            "count" : 794,
            "type" : "VEC2"
        },
        {
            "bufferView" : 3,
            "componentType" : 5126,
            "count" : 794,
            "type" : "VEC2"
        },
        {
            "bufferView" : 4,
            "componentType" : 5126,
            "count" : 794,
            "type" : "VEC2"
        },
        {
            "bufferView" : 5,
            "componentType" : 5126,
            "count" : 794,
            "type" : "VEC2"
        },
        {
            "bufferView" : 6,
            "componentType" : 5126,
            "count" : 794,
            "type" : "VEC2"
        },
        {
            "bufferView" : 7,
            "componentType" : 5126,
            "count" : 794,
            "type" : "VEC2"
        },
        {
            "bufferView" : 8,
            "componentType" : 5126,
            "count" : 794,
            "type" : "VEC2"
        },
        {
            "bufferView" : 9,
            "componentType" : 5126,
            "count" : 794,
            "type" : "VEC2"
        },
        {
            "bufferView" : 10,
            "componentType" : 5126,
            "count" : 794,
            "type" : "VEC2"
        },
        {
            "bufferView" : 11,
            "componentType" : 5126,
            "count" : 794,
            "type" : "VEC2"
        },
        {
            "bufferView" : 12,
            "componentType" : 5126,
            "count" : 794,
            "type" : "VEC2"
        },
        {
            "bufferView" : 13,
            "componentType" : 5126,
            "count" : 794,
            "type" : "VEC2"
        },
        {
            "bufferView" : 14,
            "componentType" : 5126,
            "count" : 794,
            "type" : "VEC2"
        },
        {
            "bufferView" : 15,
            "componentType" : 5126,
            "count" : 794,
            "type" : "VEC2"
        },
        {
            "bufferView" : 16,
            "componentType" : 5126,
            "count" : 794,
            "type" : "VEC2"
        },
        {
            "bufferView" : 17,
            "componentType" : 5126,
            "count" : 794,
            "type" : "VEC2"
        },
        {
            "bufferView" : 18,
            "componentType" : 5123,
            "count" : 1440,
            "type" : "SCALAR"
        }
    ],
    "bufferViews" : [
        {
            "buffer" : 0,
            "byteLength" : 9528,
            "byteOffset" : 0
        },
        {
            "buffer" : 0,
            "byteLength" : 9528,
            "byteOffset" : 9528
        },
        {
            "buffer" : 0,
            "byteLength" : 6352,
            "byteOffset" : 19056
        },
        {
            "buffer" : 0,
            "byteLength" : 6352,
            "byteOffset" : 25408
        },
        {
            "buffer" : 0,
            "byteLength" : 6352,
            "byteOffset" : 31760
        },
        {
            "buffer" : 0,
            "byteLength" : 6352,
            "byteOffset" : 38112
        },
        {
            "buffer" : 0,
            "byteLength" : 6352,
            "byteOffset" : 44464
        },
        {
            "buffer" : 0,
            "byteLength" : 6352,
            "byteOffset" : 50816
        },
        {
            "buffer" : 0,
            "byteLength" : 6352,
            "byteOffset" : 57168
        },
        {
            "buffer" : 0,
            "byteLength" : 6352,
            "byteOffset" : 63520
        },
        {
            "buffer" : 0,
            "byteLength" : 6352,
            "byteOffset" : 69872
        },
        {
            "buffer" : 0,
            "byteLength" : 6352,
            "byteOffset" : 76224
        },
        {
            "buffer" : 0,
            "byteLength" : 6352,
            "byteOffset" : 82576
        },
        {
            "buffer" : 0,
            "byteLength" : 6352,
            "byteOffset" : 88928
        },
        {
            "buffer" : 0,
            "byteLength" : 6352,
            "byteOffset" : 95280
        },
        {
            "buffer" : 0,
            "byteLength" : 6352,
            "byteOffset" : 101632
        },
        {
            "buffer" : 0,
            "byteLength" : 6352,
            "byteOffset" : 107984
        },
        {
            "buffer" : 0,
            "byteLength" : 6352,
            "byteOffset" : 114336
        },
        {
            "buffer" : 0,
            "byteLength" : 2880,
            "byteOffset" : 120688
        }
    ],
    "buffers" : [
        {
            "byteLength" : 123568,
            "uri" : "data:application/octet-stream;base64,"
        }
    ]
}
