{
    "asset" : {
        "generator" : "Khronos glTF Blender I/O v1.7.33",
        "version" : "2.0"
    },
    "scene" : 0,
    "scenes" : [
        {
            "name" : "Scene",
            "nodes" : [
                0
            ]
        }
    ],
    "nodes" : [
        {
            "mesh" : 0,
            "name" : "Extrusion.018"
        }
    ],
    "materials" : [
        {
            "doubleSided" : true,
            "name" : "cf2be1de-b81c-4d69-9418-dde91d266086.002",
            "pbrMetallicRoughness" : {
                "baseColorFactor" : [
                    0.9803919792175293,
                    0.9803919792175293,
                    0.9803919792175293,
                    1
                ],
                "roughnessFactor" : 0.5
            }
        },
        {
            "doubleSided" : true,
            "name" : "cf2be1de-b81c-4d69-9418-dde91d266086.005",
            "pbrMetallicRoughness" : {
                "baseColorFactor" : [
                    0.9803919792175293,
                    0.9803919792175293,
                    0.9803919792175293,
                    1
                ],
                "roughnessFactor" : 0.5
            }
        }
    ],
    "meshes" : [
        {
            "name" : "mesh-af07cd6b-b3bd-4451-979a-988a5c25f248.001",
            "primitives" : [
                {
                    "attributes" : {
                        "POSITION" : 0,
                        "NORMAL" : 1,
                        "TEXCOORD_0" : 2,
                        "TEXCOORD_1" : 3,
                        "TEXCOORD_2" : 4,
                        "TEXCOORD_3" : 5,
                        "TEXCOORD_4" : 6,
                        "TEXCOORD_5" : 7,
                        "TEXCOORD_6" : 8,
                        "TEXCOORD_7" : 9
                    },
                    "indices" : 10,
                    "material" : 0
                },
                {
                    "attributes" : {
                        "POSITION" : 11,
                        "NORMAL" : 12,
                        "TEXCOORD_0" : 13,
                        "TEXCOORD_1" : 14,
                        "TEXCOORD_2" : 15,
                        "TEXCOORD_3" : 16,
                        "TEXCOORD_4" : 17,
                        "TEXCOORD_5" : 18,
                        "TEXCOORD_6" : 19,
                        "TEXCOORD_7" : 20
                    },
                    "indices" : 21,
                    "material" : 1
                }
            ]
        }
    ],
    "accessors" : [
        {
            "bufferView" : 0,
            "componentType" : 5126,
            "count" : 628,
            "max" : [
                0.8999999761581421,
                0.7200000286102295,
                0.2000001072883606
            ],
            "min" : [
                -0.8999999761581421,
                -0.01999993994832039,
                -0.1999998390674591
            ],
            "type" : "VEC3"
        },
        {
            "bufferView" : 1,
            "componentType" : 5126,
            "count" : 628,
            "type" : "VEC3"
        },
        {
            "bufferView" : 2,
            "componentType" : 5126,
            "count" : 628,
            "type" : "VEC2"
        },
        {
            "bufferView" : 3,
            "componentType" : 5126,
            "count" : 628,
            "type" : "VEC2"
        },
        {
            "bufferView" : 4,
            "componentType" : 5126,
            "count" : 628,
            "type" : "VEC2"
        },
        {
            "bufferView" : 5,
            "componentType" : 5126,
            "count" : 628,
            "type" : "VEC2"
        },
        {
            "bufferView" : 6,
            "componentType" : 5126,
            "count" : 628,
            "type" : "VEC2"
        },
        {
            "bufferView" : 7,
            "componentType" : 5126,
            "count" : 628,
            "type" : "VEC2"
        },
        {
            "bufferView" : 8,
            "componentType" : 5126,
            "count" : 628,
            "type" : "VEC2"
        },
        {
            "bufferView" : 9,
            "componentType" : 5126,
            "count" : 628,
            "type" : "VEC2"
        },
        {
            "bufferView" : 10,
            "componentType" : 5123,
            "count" : 828,
            "type" : "SCALAR"
        },
        {
            "bufferView" : 11,
            "componentType" : 5126,
            "count" : 114,
            "max" : [
                0.8999999761581421,
                0.7400000095367432,
                0.39999961853027344
            ],
            "min" : [
                -0.8999999761581421,
                0.7200000286102295,
                -0.40000033378601074
            ],
            "type" : "VEC3"
        },
        {
            "bufferView" : 12,
            "componentType" : 5126,
            "count" : 114,
            "type" : "VEC3"
        },
        {
            "bufferView" : 13,
            "componentType" : 5126,
            "count" : 114,
            "type" : "VEC2"
        },
        {
            "bufferView" : 14,
            "componentType" : 5126,
            "count" : 114,
            "type" : "VEC2"
        },
        {
            "bufferView" : 15,
            "componentType" : 5126,
            "count" : 114,
            "type" : "VEC2"
        },
        {
            "bufferView" : 16,
            "componentType" : 5126,
            "count" : 114,
            "type" : "VEC2"
        },
        {
            "bufferView" : 17,
            "componentType" : 5126,
            "count" : 114,
            "type" : "VEC2"
        },
        {
            "bufferView" : 18,
            "componentType" : 5126,
            "count" : 114,
            "type" : "VEC2"
        },
        {
            "bufferView" : 19,
            "componentType" : 5126,
            "count" : 114,
            "type" : "VEC2"
        },
        {
            "bufferView" : 20,
            "componentType" : 5126,
            "count" : 114,
            "type" : "VEC2"
        },
        {
            "bufferView" : 21,
            "componentType" : 5123,
            "count" : 156,
            "type" : "SCALAR"
        }
    ],
    "bufferViews" : [
        {
            "buffer" : 0,
            "byteLength" : 7536,
            "byteOffset" : 0
        },
        {
            "buffer" : 0,
            "byteLength" : 7536,
            "byteOffset" : 7536
        },
        {
            "buffer" : 0,
            "byteLength" : 5024,
            "byteOffset" : 15072
        },
        {
            "buffer" : 0,
            "byteLength" : 5024,
            "byteOffset" : 20096
        },
        {
            "buffer" : 0,
            "byteLength" : 5024,
            "byteOffset" : 25120
        },
        {
            "buffer" : 0,
            "byteLength" : 5024,
            "byteOffset" : 30144
        },
        {
            "buffer" : 0,
            "byteLength" : 5024,
            "byteOffset" : 35168
        },
        {
            "buffer" : 0,
            "byteLength" : 5024,
            "byteOffset" : 40192
        },
        {
            "buffer" : 0,
            "byteLength" : 5024,
            "byteOffset" : 45216
        },
        {
            "buffer" : 0,
            "byteLength" : 5024,
            "byteOffset" : 50240
        },
        {
            "buffer" : 0,
            "byteLength" : 1656,
            "byteOffset" : 55264
        },
        {
            "buffer" : 0,
            "byteLength" : 1368,
            "byteOffset" : 56920
        },
        {
            "buffer" : 0,
            "byteLength" : 1368,
            "byteOffset" : 58288
        },
        {
            "buffer" : 0,
            "byteLength" : 912,
            "byteOffset" : 59656
        },
        {
            "buffer" : 0,
            "byteLength" : 912,
            "byteOffset" : 60568
        },
        {
            "buffer" : 0,
            "byteLength" : 912,
            "byteOffset" : 61480
        },
        {
            "buffer" : 0,
            "byteLength" : 912,
            "byteOffset" : 62392
        },
        {
            "buffer" : 0,
            "byteLength" : 912,
            "byteOffset" : 63304
        },
        {
            "buffer" : 0,
            "byteLength" : 912,
            "byteOffset" : 64216
        },
        {
            "buffer" : 0,
            "byteLength" : 912,
            "byteOffset" : 65128
        },
        {
            "buffer" : 0,
            "byteLength" : 912,
            "byteOffset" : 66040
        },
        {
            "buffer" : 0,
            "byteLength" : 312,
            "byteOffset" : 66952
        }
    ],
    "buffers" : [
        {
            "byteLength" : 67264,
            "uri" : "data:application/octet-stream;base64,"
        }
    ]
}
