{
    "asset" : {
        "generator" : "Khronos glTF Blender I/O v1.7.33",
        "version" : "2.0"
    },
    "scene" : 0,
    "scenes" : [
        {
            "name" : "Scene",
            "nodes" : [
                0
            ]
        }
    ],
    "nodes" : [
        {
            "mesh" : 0,
            "name" : "Curve.030"
        }
    ],
    "materials" : [
        {
            "doubleSided" : true,
            "name" : "cf2be1de-b81c-4d69-9418-dde91d266086.005",
            "pbrMetallicRoughness" : {
                "baseColorFactor" : [
                    0.9803919792175293,
                    0.9803919792175293,
                    0.9803919792175293,
                    1
                ],
                "roughnessFactor" : 0.5
            }
        }
    ],
    "meshes" : [
        {
            "name" : "mesh-f2509e43-bc00-4d7e-9e07-add84f465071.001",
            "primitives" : [
                {
                    "attributes" : {
                        "POSITION" : 0,
                        "NORMAL" : 1,
                        "TEXCOORD_0" : 2,
                        "TEXCOORD_1" : 3,
                        "TEXCOORD_2" : 4,
                        "TEXCOORD_3" : 5,
                        "TEXCOORD_4" : 6,
                        "TEXCOORD_5" : 7,
                        "TEXCOORD_6" : 8,
                        "TEXCOORD_7" : 9
                    },
                    "indices" : 10,
                    "material" : 0
                }
            ]
        }
    ],
    "accessors" : [
        {
            "bufferView" : 0,
            "componentType" : 5126,
            "count" : 878,
            "max" : [
                0.9045239686965942,
                0.7365097403526306,
                0.4007211923599243
            ],
            "min" : [
                -0.8954759836196899,
                -0.0034902989864349365,
                -0.3992787301540375
            ],
            "type" : "VEC3"
        },
        {
            "bufferView" : 1,
            "componentType" : 5126,
            "count" : 878,
            "type" : "VEC3"
        },
        {
            "bufferView" : 2,
            "componentType" : 5126,
            "count" : 878,
            "type" : "VEC2"
        },
        {
            "bufferView" : 3,
            "componentType" : 5126,
            "count" : 878,
            "type" : "VEC2"
        },
        {
            "bufferView" : 4,
            "componentType" : 5126,
            "count" : 878,
            "type" : "VEC2"
        },
        {
            "bufferView" : 5,
            "componentType" : 5126,
            "count" : 878,
            "type" : "VEC2"
        },
        {
            "bufferView" : 6,
            "componentType" : 5126,
            "count" : 878,
            "type" : "VEC2"
        },
        {
            "bufferView" : 7,
            "componentType" : 5126,
            "count" : 878,
            "type" : "VEC2"
        },
        {
            "bufferView" : 8,
            "componentType" : 5126,
            "count" : 878,
            "type" : "VEC2"
        },
        {
            "bufferView" : 9,
            "componentType" : 5126,
            "count" : 878,
            "type" : "VEC2"
        },
        {
            "bufferView" : 10,
            "componentType" : 5123,
            "count" : 942,
            "type" : "SCALAR"
        }
    ],
    "bufferViews" : [
        {
            "buffer" : 0,
            "byteLength" : 10536,
            "byteOffset" : 0
        },
        {
            "buffer" : 0,
            "byteLength" : 10536,
            "byteOffset" : 10536
        },
        {
            "buffer" : 0,
            "byteLength" : 7024,
            "byteOffset" : 21072
        },
        {
            "buffer" : 0,
            "byteLength" : 7024,
            "byteOffset" : 28096
        },
        {
            "buffer" : 0,
            "byteLength" : 7024,
            "byteOffset" : 35120
        },
        {
            "buffer" : 0,
            "byteLength" : 7024,
            "byteOffset" : 42144
        },
        {
            "buffer" : 0,
            "byteLength" : 7024,
            "byteOffset" : 49168
        },
        {
            "buffer" : 0,
            "byteLength" : 7024,
            "byteOffset" : 56192
        },
        {
            "buffer" : 0,
            "byteLength" : 7024,
            "byteOffset" : 63216
        },
        {
            "buffer" : 0,
            "byteLength" : 7024,
            "byteOffset" : 70240
        },
        {
            "buffer" : 0,
            "byteLength" : 1884,
            "byteOffset" : 77264
        }
    ],
    "buffers" : [
        {
            "byteLength" : 79148,
            "uri" : "data:application/octet-stream;base64,"
        }
    ]
}
