{
    "asset" : {
        "generator" : "Khronos glTF Blender I/O v1.7.33",
        "version" : "2.0"
    },
    "scene" : 0,
    "scenes" : [
        {
            "name" : "Scene",
            "nodes" : [
                0
            ]
        }
    ],
    "nodes" : [
        {
            "mesh" : 0,
            "name" : "Cavallo Slim Z. 0.4"
        }
    ],
    "materials" : [
        {
            "doubleSided" : true,
            "name" : "cf2be1de-b81c-4d69-9418-dde91d266086.002",
            "pbrMetallicRoughness" : {
                "baseColorFactor" : [
                    0.9803919792175293,
                    0.9803919792175293,
                    0.9803919792175293,
                    1
                ],
                "roughnessFactor" : 0.5
            }
        }
    ],
    "meshes" : [
        {
            "name" : "mesh-a0dd5632-33a5-4826-bd05-0760c8f1c09c",
            "primitives" : [
                {
                    "attributes" : {
                        "POSITION" : 0,
                        "NORMAL" : 1,
                        "TEXCOORD_0" : 2,
                        "TEXCOORD_1" : 3,
                        "TEXCOORD_2" : 4,
                        "TEXCOORD_3" : 5,
                        "TEXCOORD_4" : 6,
                        "TEXCOORD_5" : 7,
                        "TEXCOORD_6" : 8,
                        "TEXCOORD_7" : 9
                    },
                    "indices" : 10,
                    "material" : 0
                }
            ]
        }
    ],
    "accessors" : [
        {
            "bufferView" : 0,
            "componentType" : 5126,
            "count" : 557,
            "max" : [
                0.8901787996292114,
                0.7349262237548828,
                0.4000001549720764
            ],
            "min" : [
                -0.9098211526870728,
                -0.0050738053396344185,
                -0.39999982714653015
            ],
            "type" : "VEC3"
        },
        {
            "bufferView" : 1,
            "componentType" : 5126,
            "count" : 557,
            "type" : "VEC3"
        },
        {
            "bufferView" : 2,
            "componentType" : 5126,
            "count" : 557,
            "type" : "VEC2"
        },
        {
            "bufferView" : 3,
            "componentType" : 5126,
            "count" : 557,
            "type" : "VEC2"
        },
        {
            "bufferView" : 4,
            "componentType" : 5126,
            "count" : 557,
            "type" : "VEC2"
        },
        {
            "bufferView" : 5,
            "componentType" : 5126,
            "count" : 557,
            "type" : "VEC2"
        },
        {
            "bufferView" : 6,
            "componentType" : 5126,
            "count" : 557,
            "type" : "VEC2"
        },
        {
            "bufferView" : 7,
            "componentType" : 5126,
            "count" : 557,
            "type" : "VEC2"
        },
        {
            "bufferView" : 8,
            "componentType" : 5126,
            "count" : 557,
            "type" : "VEC2"
        },
        {
            "bufferView" : 9,
            "componentType" : 5126,
            "count" : 557,
            "type" : "VEC2"
        },
        {
            "bufferView" : 10,
            "componentType" : 5123,
            "count" : 624,
            "type" : "SCALAR"
        }
    ],
    "bufferViews" : [
        {
            "buffer" : 0,
            "byteLength" : 6684,
            "byteOffset" : 0
        },
        {
            "buffer" : 0,
            "byteLength" : 6684,
            "byteOffset" : 6684
        },
        {
            "buffer" : 0,
            "byteLength" : 4456,
            "byteOffset" : 13368
        },
        {
            "buffer" : 0,
            "byteLength" : 4456,
            "byteOffset" : 17824
        },
        {
            "buffer" : 0,
            "byteLength" : 4456,
            "byteOffset" : 22280
        },
        {
            "buffer" : 0,
            "byteLength" : 4456,
            "byteOffset" : 26736
        },
        {
            "buffer" : 0,
            "byteLength" : 4456,
            "byteOffset" : 31192
        },
        {
            "buffer" : 0,
            "byteLength" : 4456,
            "byteOffset" : 35648
        },
        {
            "buffer" : 0,
            "byteLength" : 4456,
            "byteOffset" : 40104
        },
        {
            "buffer" : 0,
            "byteLength" : 4456,
            "byteOffset" : 44560
        },
        {
            "buffer" : 0,
            "byteLength" : 1248,
            "byteOffset" : 49016
        }
    ],
    "buffers" : [
        {
            "byteLength" : 50264,
            "uri" : "data:application/octet-stream;base64,"
        }
    ]
}
