{
    "asset" : {
        "generator" : "Khronos glTF Blender I/O v1.7.33",
        "version" : "2.0"
    },
    "scene" : 0,
    "scenes" : [
        {
            "name" : "Scene",
            "nodes" : [
                0
            ]
        }
    ],
    "nodes" : [
        {
            "mesh" : 0,
            "name" : "Plane.015"
        }
    ],
    "materials" : [
        {
            "doubleSided" : true,
            "name" : "kaki.002",
            "pbrMetallicRoughness" : {
                "baseColorFactor" : [
                    0,
                    0,
                    0,
                    1
                ],
                "metallicFactor" : 0,
                "roughnessFactor" : 0.5
            }
        }
    ],
    "meshes" : [
        {
            "name" : "Plane.017",
            "primitives" : [
                {
                    "attributes" : {
                        "POSITION" : 0,
                        "NORMAL" : 1,
                        "TEXCOORD_0" : 2,
                        "TEXCOORD_1" : 3
                    },
                    "indices" : 4,
                    "material" : 0
                }
            ]
        }
    ],
    "accessors" : [
        {
            "bufferView" : 0,
            "componentType" : 5126,
            "count" : 3394,
            "max" : [
                0.8999999761581421,
                0.7397769093513489,
                0.28349989652633667
            ],
            "min" : [
                -0.8999999761581421,
                -0.0002230440586572513,
                -0.2835000157356262
            ],
            "type" : "VEC3"
        },
        {
            "bufferView" : 1,
            "componentType" : 5126,
            "count" : 3394,
            "type" : "VEC3"
        },
        {
            "bufferView" : 2,
            "componentType" : 5126,
            "count" : 3394,
            "type" : "VEC2"
        },
        {
            "bufferView" : 3,
            "componentType" : 5126,
            "count" : 3394,
            "type" : "VEC2"
        },
        {
            "bufferView" : 4,
            "componentType" : 5123,
            "count" : 12246,
            "type" : "SCALAR"
        }
    ],
    "bufferViews" : [
        {
            "buffer" : 0,
            "byteLength" : 40728,
            "byteOffset" : 0
        },
        {
            "buffer" : 0,
            "byteLength" : 40728,
            "byteOffset" : 40728
        },
        {
            "buffer" : 0,
            "byteLength" : 27152,
            "byteOffset" : 81456
        },
        {
            "buffer" : 0,
            "byteLength" : 27152,
            "byteOffset" : 108608
        },
        {
            "buffer" : 0,
            "byteLength" : 24492,
            "byteOffset" : 135760
        }
    ],
    "buffers" : [
        {
            "byteLength" : 160252,
            "uri" : "data:application/octet-stream;base64,"
        }
    ]
}
