{
    "asset" : {
        "generator" : "Khronos glTF Blender I/O v1.7.33",
        "version" : "2.0"
    },
    "scene" : 0,
    "scenes" : [
        {
            "name" : "Scene",
            "nodes" : [
                0
            ]
        }
    ],
    "nodes" : [
        {
            "mesh" : 0,
            "name" : "Cube.004"
        }
    ],
    "materials" : [
        {
            "doubleSided" : true,
            "name" : "Material.010",
            "pbrMetallicRoughness" : {
                "baseColorFactor" : [
                    0,
                    0,
                    0,
                    1
                ],
                "metallicFactor" : 0,
                "roughnessFactor" : 0.5
            }
        }
    ],
    "meshes" : [
        {
            "name" : "Cube.006",
            "primitives" : [
                {
                    "attributes" : {
                        "POSITION" : 0,
                        "NORMAL" : 1,
                        "TEXCOORD_0" : 2
                    },
                    "indices" : 3,
                    "material" : 0
                }
            ]
        }
    ],
    "accessors" : [
        {
            "bufferView" : 0,
            "componentType" : 5126,
            "count" : 3138,
            "max" : [
                0.8999999761581421,
                0.7441483736038208,
                0.28349998593330383
            ],
            "min" : [
                -0.8999999761581421,
                0.004148384090512991,
                -0.28349998593330383
            ],
            "type" : "VEC3"
        },
        {
            "bufferView" : 1,
            "componentType" : 5126,
            "count" : 3138,
            "type" : "VEC3"
        },
        {
            "bufferView" : 2,
            "componentType" : 5126,
            "count" : 3138,
            "type" : "VEC2"
        },
        {
            "bufferView" : 3,
            "componentType" : 5123,
            "count" : 13488,
            "type" : "SCALAR"
        }
    ],
    "bufferViews" : [
        {
            "buffer" : 0,
            "byteLength" : 37656,
            "byteOffset" : 0
        },
        {
            "buffer" : 0,
            "byteLength" : 37656,
            "byteOffset" : 37656
        },
        {
            "buffer" : 0,
            "byteLength" : 25104,
            "byteOffset" : 75312
        },
        {
            "buffer" : 0,
            "byteLength" : 26976,
            "byteOffset" : 100416
        }
    ],
    "buffers" : [
        {
            "byteLength" : 127392,
            "uri" : "data:application/octet-stream;base64,"
        }
    ]
}
