{
    "asset" : {
        "generator" : "Khronos glTF Blender I/O v1.7.33",
        "version" : "2.0"
    },
    "scene" : 0,
    "scenes" : [
        {
            "name" : "Scene",
            "nodes" : [
                0
            ]
        }
    ],
    "nodes" : [
        {
            "mesh" : 0,
            "name" : "Brep.008"
        }
    ],
    "materials" : [
        {
            "doubleSided" : true,
            "name" : "cf2be1de-b81c-4d69-9418-dde91d266086.008",
            "pbrMetallicRoughness" : {
                "baseColorFactor" : [
                    0.9803919792175293,
                    0.9803919792175293,
                    0.9803919792175293,
                    1
                ],
                "roughnessFactor" : 0.5
            }
        }
    ],
    "meshes" : [
        {
            "name" : "mesh-d061b536-1627-4b62-ad39-e22673998605",
            "primitives" : [
                {
                    "attributes" : {
                        "POSITION" : 0,
                        "NORMAL" : 1,
                        "TEXCOORD_0" : 2,
                        "TEXCOORD_1" : 3,
                        "TEXCOORD_2" : 4,
                        "TEXCOORD_3" : 5,
                        "TEXCOORD_4" : 6,
                        "TEXCOORD_5" : 7,
                        "TEXCOORD_6" : 8,
                        "TEXCOORD_7" : 9,
                        "TEXCOORD_8" : 10,
                        "TEXCOORD_9" : 11
                    },
                    "indices" : 12,
                    "material" : 0
                }
            ]
        }
    ],
    "accessors" : [
        {
            "bufferView" : 0,
            "componentType" : 5126,
            "count" : 506,
            "max" : [
                0.9118146300315857,
                0.7363753914833069,
                0.3999994993209839
            ],
            "min" : [
                -0.8881852626800537,
                -0.0036246255040168762,
                -0.4000004529953003
            ],
            "type" : "VEC3"
        },
        {
            "bufferView" : 1,
            "componentType" : 5126,
            "count" : 506,
            "type" : "VEC3"
        },
        {
            "bufferView" : 2,
            "componentType" : 5126,
            "count" : 506,
            "type" : "VEC2"
        },
        {
            "bufferView" : 3,
            "componentType" : 5126,
            "count" : 506,
            "type" : "VEC2"
        },
        {
            "bufferView" : 4,
            "componentType" : 5126,
            "count" : 506,
            "type" : "VEC2"
        },
        {
            "bufferView" : 5,
            "componentType" : 5126,
            "count" : 506,
            "type" : "VEC2"
        },
        {
            "bufferView" : 6,
            "componentType" : 5126,
            "count" : 506,
            "type" : "VEC2"
        },
        {
            "bufferView" : 7,
            "componentType" : 5126,
            "count" : 506,
            "type" : "VEC2"
        },
        {
            "bufferView" : 8,
            "componentType" : 5126,
            "count" : 506,
            "type" : "VEC2"
        },
        {
            "bufferView" : 9,
            "componentType" : 5126,
            "count" : 506,
            "type" : "VEC2"
        },
        {
            "bufferView" : 10,
            "componentType" : 5126,
            "count" : 506,
            "type" : "VEC2"
        },
        {
            "bufferView" : 11,
            "componentType" : 5126,
            "count" : 506,
            "type" : "VEC2"
        },
        {
            "bufferView" : 12,
            "componentType" : 5123,
            "count" : 576,
            "type" : "SCALAR"
        }
    ],
    "bufferViews" : [
        {
            "buffer" : 0,
            "byteLength" : 6072,
            "byteOffset" : 0
        },
        {
            "buffer" : 0,
            "byteLength" : 6072,
            "byteOffset" : 6072
        },
        {
            "buffer" : 0,
            "byteLength" : 4048,
            "byteOffset" : 12144
        },
        {
            "buffer" : 0,
            "byteLength" : 4048,
            "byteOffset" : 16192
        },
        {
            "buffer" : 0,
            "byteLength" : 4048,
            "byteOffset" : 20240
        },
        {
            "buffer" : 0,
            "byteLength" : 4048,
            "byteOffset" : 24288
        },
        {
            "buffer" : 0,
            "byteLength" : 4048,
            "byteOffset" : 28336
        },
        {
            "buffer" : 0,
            "byteLength" : 4048,
            "byteOffset" : 32384
        },
        {
            "buffer" : 0,
            "byteLength" : 4048,
            "byteOffset" : 36432
        },
        {
            "buffer" : 0,
            "byteLength" : 4048,
            "byteOffset" : 40480
        },
        {
            "buffer" : 0,
            "byteLength" : 4048,
            "byteOffset" : 44528
        },
        {
            "buffer" : 0,
            "byteLength" : 4048,
            "byteOffset" : 48576
        },
        {
            "buffer" : 0,
            "byteLength" : 1152,
            "byteOffset" : 52624
        }
    ],
    "buffers" : [
        {
            "byteLength" : 53776,
            "uri" : "data:application/octet-stream;base64,"
        }
    ]
}
