{
    "asset" : {
        "generator" : "Khronos glTF Blender I/O v1.7.33",
        "version" : "2.0"
    },
    "scene" : 0,
    "scenes" : [
        {
            "name" : "Scene",
            "nodes" : [
                0
            ]
        }
    ],
    "nodes" : [
        {
            "mesh" : 0,
            "name" : "Curve.022"
        }
    ],
    "materials" : [
        {
            "doubleSided" : true,
            "name" : "cf2be1de-b81c-4d69-9418-dde91d266086.002",
            "pbrMetallicRoughness" : {
                "baseColorFactor" : [
                    0.9803919792175293,
                    0.9803919792175293,
                    0.9803919792175293,
                    1
                ],
                "roughnessFactor" : 0.5
            }
        }
    ],
    "meshes" : [
        {
            "name" : "mesh-a0dd5632-33a5-4826-bd05-0760c8f1c09c",
            "primitives" : [
                {
                    "attributes" : {
                        "POSITION" : 0,
                        "NORMAL" : 1,
                        "TEXCOORD_0" : 2,
                        "TEXCOORD_1" : 3,
                        "TEXCOORD_2" : 4,
                        "TEXCOORD_3" : 5,
                        "TEXCOORD_4" : 6,
                        "TEXCOORD_5" : 7,
                        "TEXCOORD_6" : 8,
                        "TEXCOORD_7" : 9,
                        "TEXCOORD_8" : 10,
                        "TEXCOORD_9" : 11,
                        "TEXCOORD_10" : 12,
                        "TEXCOORD_11" : 13,
                        "TEXCOORD_12" : 14
                    },
                    "indices" : 15,
                    "material" : 0
                }
            ]
        }
    ],
    "accessors" : [
        {
            "bufferView" : 0,
            "componentType" : 5126,
            "count" : 568,
            "max" : [
                0.9643607139587402,
                0.7309262752532959,
                0.5500000715255737
            ],
            "min" : [
                -0.985639214515686,
                -0.009073711931705475,
                -0.5499998927116394
            ],
            "type" : "VEC3"
        },
        {
            "bufferView" : 1,
            "componentType" : 5126,
            "count" : 568,
            "type" : "VEC3"
        },
        {
            "bufferView" : 2,
            "componentType" : 5126,
            "count" : 568,
            "type" : "VEC2"
        },
        {
            "bufferView" : 3,
            "componentType" : 5126,
            "count" : 568,
            "type" : "VEC2"
        },
        {
            "bufferView" : 4,
            "componentType" : 5126,
            "count" : 568,
            "type" : "VEC2"
        },
        {
            "bufferView" : 5,
            "componentType" : 5126,
            "count" : 568,
            "type" : "VEC2"
        },
        {
            "bufferView" : 6,
            "componentType" : 5126,
            "count" : 568,
            "type" : "VEC2"
        },
        {
            "bufferView" : 7,
            "componentType" : 5126,
            "count" : 568,
            "type" : "VEC2"
        },
        {
            "bufferView" : 8,
            "componentType" : 5126,
            "count" : 568,
            "type" : "VEC2"
        },
        {
            "bufferView" : 9,
            "componentType" : 5126,
            "count" : 568,
            "type" : "VEC2"
        },
        {
            "bufferView" : 10,
            "componentType" : 5126,
            "count" : 568,
            "type" : "VEC2"
        },
        {
            "bufferView" : 11,
            "componentType" : 5126,
            "count" : 568,
            "type" : "VEC2"
        },
        {
            "bufferView" : 12,
            "componentType" : 5126,
            "count" : 568,
            "type" : "VEC2"
        },
        {
            "bufferView" : 13,
            "componentType" : 5126,
            "count" : 568,
            "type" : "VEC2"
        },
        {
            "bufferView" : 14,
            "componentType" : 5126,
            "count" : 568,
            "type" : "VEC2"
        },
        {
            "bufferView" : 15,
            "componentType" : 5123,
            "count" : 624,
            "type" : "SCALAR"
        }
    ],
    "bufferViews" : [
        {
            "buffer" : 0,
            "byteLength" : 6816,
            "byteOffset" : 0
        },
        {
            "buffer" : 0,
            "byteLength" : 6816,
            "byteOffset" : 6816
        },
        {
            "buffer" : 0,
            "byteLength" : 4544,
            "byteOffset" : 13632
        },
        {
            "buffer" : 0,
            "byteLength" : 4544,
            "byteOffset" : 18176
        },
        {
            "buffer" : 0,
            "byteLength" : 4544,
            "byteOffset" : 22720
        },
        {
            "buffer" : 0,
            "byteLength" : 4544,
            "byteOffset" : 27264
        },
        {
            "buffer" : 0,
            "byteLength" : 4544,
            "byteOffset" : 31808
        },
        {
            "buffer" : 0,
            "byteLength" : 4544,
            "byteOffset" : 36352
        },
        {
            "buffer" : 0,
            "byteLength" : 4544,
            "byteOffset" : 40896
        },
        {
            "buffer" : 0,
            "byteLength" : 4544,
            "byteOffset" : 45440
        },
        {
            "buffer" : 0,
            "byteLength" : 4544,
            "byteOffset" : 49984
        },
        {
            "buffer" : 0,
            "byteLength" : 4544,
            "byteOffset" : 54528
        },
        {
            "buffer" : 0,
            "byteLength" : 4544,
            "byteOffset" : 59072
        },
        {
            "buffer" : 0,
            "byteLength" : 4544,
            "byteOffset" : 63616
        },
        {
            "buffer" : 0,
            "byteLength" : 4544,
            "byteOffset" : 68160
        },
        {
            "buffer" : 0,
            "byteLength" : 1248,
            "byteOffset" : 72704
        }
    ],
    "buffers" : [
        {
            "byteLength" : 73952,
            "uri" : "data:application/octet-stream;base64,"
        }
    ]
}
