{
    "asset" : {
        "generator" : "Khronos glTF Blender I/O v1.7.33",
        "version" : "2.0"
    },
    "scene" : 0,
    "scenes" : [
        {
            "name" : "Scene",
            "nodes" : [
                0
            ]
        }
    ],
    "nodes" : [
        {
            "mesh" : 0,
            "name" : "Curve.013"
        }
    ],
    "materials" : [
        {
            "doubleSided" : true,
            "name" : "cf2be1de-b81c-4d69-9418-dde91d266086.001",
            "pbrMetallicRoughness" : {
                "baseColorFactor" : [
                    0.9803919792175293,
                    0.9803919792175293,
                    0.9803919792175293,
                    1
                ],
                "roughnessFactor" : 0.5
            }
        }
    ],
    "meshes" : [
        {
            "name" : "mesh-fe370b67-6ba9-4e44-a2a0-9c10bf5ca644",
            "primitives" : [
                {
                    "attributes" : {
                        "POSITION" : 0,
                        "NORMAL" : 1,
                        "TEXCOORD_0" : 2,
                        "TEXCOORD_1" : 3,
                        "TEXCOORD_2" : 4,
                        "TEXCOORD_3" : 5,
                        "TEXCOORD_4" : 6,
                        "TEXCOORD_5" : 7,
                        "TEXCOORD_6" : 8,
                        "TEXCOORD_7" : 9,
                        "TEXCOORD_8" : 10,
                        "TEXCOORD_9" : 11,
                        "TEXCOORD_10" : 12,
                        "TEXCOORD_11" : 13,
                        "TEXCOORD_12" : 14
                    },
                    "indices" : 15,
                    "material" : 0
                }
            ]
        }
    ],
    "accessors" : [
        {
            "bufferView" : 0,
            "componentType" : 5126,
            "count" : 493,
            "max" : [
                0.9708954095840454,
                0.7389726638793945,
                0.4767032265663147
            ],
            "min" : [
                -0.9791045188903809,
                -0.0010273037478327751,
                -0.47329676151275635
            ],
            "type" : "VEC3"
        },
        {
            "bufferView" : 1,
            "componentType" : 5126,
            "count" : 493,
            "type" : "VEC3"
        },
        {
            "bufferView" : 2,
            "componentType" : 5126,
            "count" : 493,
            "type" : "VEC2"
        },
        {
            "bufferView" : 3,
            "componentType" : 5126,
            "count" : 493,
            "type" : "VEC2"
        },
        {
            "bufferView" : 4,
            "componentType" : 5126,
            "count" : 493,
            "type" : "VEC2"
        },
        {
            "bufferView" : 5,
            "componentType" : 5126,
            "count" : 493,
            "type" : "VEC2"
        },
        {
            "bufferView" : 6,
            "componentType" : 5126,
            "count" : 493,
            "type" : "VEC2"
        },
        {
            "bufferView" : 7,
            "componentType" : 5126,
            "count" : 493,
            "type" : "VEC2"
        },
        {
            "bufferView" : 8,
            "componentType" : 5126,
            "count" : 493,
            "type" : "VEC2"
        },
        {
            "bufferView" : 9,
            "componentType" : 5126,
            "count" : 493,
            "type" : "VEC2"
        },
        {
            "bufferView" : 10,
            "componentType" : 5126,
            "count" : 493,
            "type" : "VEC2"
        },
        {
            "bufferView" : 11,
            "componentType" : 5126,
            "count" : 493,
            "type" : "VEC2"
        },
        {
            "bufferView" : 12,
            "componentType" : 5126,
            "count" : 493,
            "type" : "VEC2"
        },
        {
            "bufferView" : 13,
            "componentType" : 5126,
            "count" : 493,
            "type" : "VEC2"
        },
        {
            "bufferView" : 14,
            "componentType" : 5126,
            "count" : 493,
            "type" : "VEC2"
        },
        {
            "bufferView" : 15,
            "componentType" : 5123,
            "count" : 576,
            "type" : "SCALAR"
        }
    ],
    "bufferViews" : [
        {
            "buffer" : 0,
            "byteLength" : 5916,
            "byteOffset" : 0
        },
        {
            "buffer" : 0,
            "byteLength" : 5916,
            "byteOffset" : 5916
        },
        {
            "buffer" : 0,
            "byteLength" : 3944,
            "byteOffset" : 11832
        },
        {
            "buffer" : 0,
            "byteLength" : 3944,
            "byteOffset" : 15776
        },
        {
            "buffer" : 0,
            "byteLength" : 3944,
            "byteOffset" : 19720
        },
        {
            "buffer" : 0,
            "byteLength" : 3944,
            "byteOffset" : 23664
        },
        {
            "buffer" : 0,
            "byteLength" : 3944,
            "byteOffset" : 27608
        },
        {
            "buffer" : 0,
            "byteLength" : 3944,
            "byteOffset" : 31552
        },
        {
            "buffer" : 0,
            "byteLength" : 3944,
            "byteOffset" : 35496
        },
        {
            "buffer" : 0,
            "byteLength" : 3944,
            "byteOffset" : 39440
        },
        {
            "buffer" : 0,
            "byteLength" : 3944,
            "byteOffset" : 43384
        },
        {
            "buffer" : 0,
            "byteLength" : 3944,
            "byteOffset" : 47328
        },
        {
            "buffer" : 0,
            "byteLength" : 3944,
            "byteOffset" : 51272
        },
        {
            "buffer" : 0,
            "byteLength" : 3944,
            "byteOffset" : 55216
        },
        {
            "buffer" : 0,
            "byteLength" : 3944,
            "byteOffset" : 59160
        },
        {
            "buffer" : 0,
            "byteLength" : 1152,
            "byteOffset" : 63104
        }
    ],
    "buffers" : [
        {
            "byteLength" : 64256,
            "uri" : "data:application/octet-stream;base64,"
        }
    ]
}
