{
    "asset" : {
        "generator" : "Khronos glTF Blender I/O v1.7.33",
        "version" : "2.0"
    },
    "scene" : 0,
    "scenes" : [
        {
            "name" : "Scene",
            "nodes" : [
                0
            ]
        }
    ],
    "nodes" : [
        {
            "mesh" : 0,
            "name" : "BezierCircle.004"
        }
    ],
    "materials" : [
        {
            "doubleSided" : true,
            "name" : "besi hitam.001",
            "pbrMetallicRoughness" : {
                "baseColorFactor" : [
                    0,
                    0,
                    0,
                    1
                ],
                "roughnessFactor" : 0.3499999940395355
            }
        }
    ],
    "meshes" : [
        {
            "name" : "BezierCircle.004",
            "primitives" : [
                {
                    "attributes" : {
                        "POSITION" : 0,
                        "NORMAL" : 1,
                        "TEXCOORD_0" : 2
                    },
                    "indices" : 3,
                    "material" : 0
                }
            ]
        }
    ],
    "accessors" : [
        {
            "bufferView" : 0,
            "componentType" : 5126,
            "count" : 16367,
            "max" : [
                1.940000057220459,
                0.3614557683467865,
                1.940000057220459
            ],
            "min" : [
                -1.940000057220459,
                -0.3785442113876343,
                -1.9399998188018799
            ],
            "type" : "VEC3"
        },
        {
            "bufferView" : 1,
            "componentType" : 5126,
            "count" : 16367,
            "type" : "VEC3"
        },
        {
            "bufferView" : 2,
            "componentType" : 5126,
            "count" : 16367,
            "type" : "VEC2"
        },
        {
            "bufferView" : 3,
            "componentType" : 5123,
            "count" : 86916,
            "type" : "SCALAR"
        }
    ],
    "bufferViews" : [
        {
            "buffer" : 0,
            "byteLength" : 196404,
            "byteOffset" : 0
        },
        {
            "buffer" : 0,
            "byteLength" : 196404,
            "byteOffset" : 196404
        },
        {
            "buffer" : 0,
            "byteLength" : 130936,
            "byteOffset" : 392808
        },
        {
            "buffer" : 0,
            "byteLength" : 173832,
            "byteOffset" : 523744
        }
    ],
    "buffers" : [
        {
            "byteLength" : 697576,
            "uri" : "data:application/octet-stream;base64,"
        }
    ]
}
