{
    "asset" : {
        "generator" : "Khronos glTF Blender I/O v1.7.33",
        "version" : "2.0"
    },
    "scene" : 0,
    "scenes" : [
        {
            "name" : "Scene",
            "nodes" : [
                0
            ]
        }
    ],
    "nodes" : [
        {
            "mesh" : 0,
            "name" : "Curve.022"
        }
    ],
    "materials" : [
        {
            "doubleSided" : true,
            "name" : "cf2be1de-b81c-4d69-9418-dde91d266086.002",
            "pbrMetallicRoughness" : {
                "baseColorFactor" : [
                    0.9803919792175293,
                    0.9803919792175293,
                    0.9803919792175293,
                    1
                ],
                "roughnessFactor" : 0.5
            }
        }
    ],
    "meshes" : [
        {
            "name" : "mesh-a0dd5632-33a5-4826-bd05-0760c8f1c09c",
            "primitives" : [
                {
                    "attributes" : {
                        "POSITION" : 0,
                        "NORMAL" : 1,
                        "TEXCOORD_0" : 2,
                        "TEXCOORD_1" : 3,
                        "TEXCOORD_2" : 4,
                        "TEXCOORD_3" : 5,
                        "TEXCOORD_4" : 6,
                        "TEXCOORD_5" : 7,
                        "TEXCOORD_6" : 8,
                        "TEXCOORD_7" : 9,
                        "TEXCOORD_8" : 10,
                        "TEXCOORD_9" : 11,
                        "TEXCOORD_10" : 12,
                        "TEXCOORD_11" : 13,
                        "TEXCOORD_12" : 14
                    },
                    "indices" : 15,
                    "material" : 0
                }
            ]
        }
    ],
    "accessors" : [
        {
            "bufferView" : 0,
            "componentType" : 5126,
            "count" : 554,
            "max" : [
                0.8901787996292114,
                0.7309262156486511,
                0.4000001549720764
            ],
            "min" : [
                -0.9098211526870728,
                -0.009073805063962936,
                -0.39999982714653015
            ],
            "type" : "VEC3"
        },
        {
            "bufferView" : 1,
            "componentType" : 5126,
            "count" : 554,
            "type" : "VEC3"
        },
        {
            "bufferView" : 2,
            "componentType" : 5126,
            "count" : 554,
            "type" : "VEC2"
        },
        {
            "bufferView" : 3,
            "componentType" : 5126,
            "count" : 554,
            "type" : "VEC2"
        },
        {
            "bufferView" : 4,
            "componentType" : 5126,
            "count" : 554,
            "type" : "VEC2"
        },
        {
            "bufferView" : 5,
            "componentType" : 5126,
            "count" : 554,
            "type" : "VEC2"
        },
        {
            "bufferView" : 6,
            "componentType" : 5126,
            "count" : 554,
            "type" : "VEC2"
        },
        {
            "bufferView" : 7,
            "componentType" : 5126,
            "count" : 554,
            "type" : "VEC2"
        },
        {
            "bufferView" : 8,
            "componentType" : 5126,
            "count" : 554,
            "type" : "VEC2"
        },
        {
            "bufferView" : 9,
            "componentType" : 5126,
            "count" : 554,
            "type" : "VEC2"
        },
        {
            "bufferView" : 10,
            "componentType" : 5126,
            "count" : 554,
            "type" : "VEC2"
        },
        {
            "bufferView" : 11,
            "componentType" : 5126,
            "count" : 554,
            "type" : "VEC2"
        },
        {
            "bufferView" : 12,
            "componentType" : 5126,
            "count" : 554,
            "type" : "VEC2"
        },
        {
            "bufferView" : 13,
            "componentType" : 5126,
            "count" : 554,
            "type" : "VEC2"
        },
        {
            "bufferView" : 14,
            "componentType" : 5126,
            "count" : 554,
            "type" : "VEC2"
        },
        {
            "bufferView" : 15,
            "componentType" : 5123,
            "count" : 624,
            "type" : "SCALAR"
        }
    ],
    "bufferViews" : [
        {
            "buffer" : 0,
            "byteLength" : 6648,
            "byteOffset" : 0
        },
        {
            "buffer" : 0,
            "byteLength" : 6648,
            "byteOffset" : 6648
        },
        {
            "buffer" : 0,
            "byteLength" : 4432,
            "byteOffset" : 13296
        },
        {
            "buffer" : 0,
            "byteLength" : 4432,
            "byteOffset" : 17728
        },
        {
            "buffer" : 0,
            "byteLength" : 4432,
            "byteOffset" : 22160
        },
        {
            "buffer" : 0,
            "byteLength" : 4432,
            "byteOffset" : 26592
        },
        {
            "buffer" : 0,
            "byteLength" : 4432,
            "byteOffset" : 31024
        },
        {
            "buffer" : 0,
            "byteLength" : 4432,
            "byteOffset" : 35456
        },
        {
            "buffer" : 0,
            "byteLength" : 4432,
            "byteOffset" : 39888
        },
        {
            "buffer" : 0,
            "byteLength" : 4432,
            "byteOffset" : 44320
        },
        {
            "buffer" : 0,
            "byteLength" : 4432,
            "byteOffset" : 48752
        },
        {
            "buffer" : 0,
            "byteLength" : 4432,
            "byteOffset" : 53184
        },
        {
            "buffer" : 0,
            "byteLength" : 4432,
            "byteOffset" : 57616
        },
        {
            "buffer" : 0,
            "byteLength" : 4432,
            "byteOffset" : 62048
        },
        {
            "buffer" : 0,
            "byteLength" : 4432,
            "byteOffset" : 66480
        },
        {
            "buffer" : 0,
            "byteLength" : 1248,
            "byteOffset" : 70912
        }
    ],
    "buffers" : [
        {
            "byteLength" : 72160,
            "uri" : "data:application/octet-stream;base64,"
        }
    ]
}
