{
    "asset" : {
        "generator" : "Khronos glTF Blender I/O v1.7.33",
        "version" : "2.0"
    },
    "scene" : 0,
    "scenes" : [
        {
            "name" : "Scene",
            "nodes" : [
                0
            ]
        }
    ],
    "nodes" : [
        {
            "mesh" : 0,
            "name" : "Extrusion.018"
        }
    ],
    "materials" : [
        {
            "doubleSided" : true,
            "name" : "cf2be1de-b81c-4d69-9418-dde91d266086.004",
            "pbrMetallicRoughness" : {
                "baseColorFactor" : [
                    0.9803919792175293,
                    0.9803919792175293,
                    0.9803919792175293,
                    1
                ],
                "roughnessFactor" : 0.5
            }
        }
    ],
    "meshes" : [
        {
            "name" : "mesh-af07cd6b-b3bd-4451-979a-988a5c25f248",
            "primitives" : [
                {
                    "attributes" : {
                        "POSITION" : 0,
                        "NORMAL" : 1,
                        "TEXCOORD_0" : 2,
                        "TEXCOORD_1" : 3,
                        "TEXCOORD_2" : 4,
                        "TEXCOORD_3" : 5,
                        "TEXCOORD_4" : 6,
                        "TEXCOORD_5" : 7,
                        "TEXCOORD_6" : 8,
                        "TEXCOORD_7" : 9,
                        "TEXCOORD_8" : 10,
                        "TEXCOORD_9" : 11,
                        "TEXCOORD_10" : 12,
                        "TEXCOORD_11" : 13,
                        "TEXCOORD_12" : 14,
                        "TEXCOORD_13" : 15,
                        "TEXCOORD_14" : 16,
                        "TEXCOORD_15" : 17,
                        "TEXCOORD_16" : 18,
                        "TEXCOORD_17" : 19,
                        "TEXCOORD_18" : 20,
                        "TEXCOORD_19" : 21,
                        "TEXCOORD_20" : 22,
                        "TEXCOORD_21" : 23,
                        "TEXCOORD_22" : 24
                    },
                    "indices" : 25,
                    "material" : 0
                }
            ]
        }
    ],
    "accessors" : [
        {
            "bufferView" : 0,
            "componentType" : 5126,
            "count" : 580,
            "max" : [
                0.800000011920929,
                0.7378260493278503,
                0.2000001072883606
            ],
            "min" : [
                -0.800000011920929,
                -0.0021739196963608265,
                -0.1999998390674591
            ],
            "type" : "VEC3"
        },
        {
            "bufferView" : 1,
            "componentType" : 5126,
            "count" : 580,
            "type" : "VEC3"
        },
        {
            "bufferView" : 2,
            "componentType" : 5126,
            "count" : 580,
            "type" : "VEC2"
        },
        {
            "bufferView" : 3,
            "componentType" : 5126,
            "count" : 580,
            "type" : "VEC2"
        },
        {
            "bufferView" : 4,
            "componentType" : 5126,
            "count" : 580,
            "type" : "VEC2"
        },
        {
            "bufferView" : 5,
            "componentType" : 5126,
            "count" : 580,
            "type" : "VEC2"
        },
        {
            "bufferView" : 6,
            "componentType" : 5126,
            "count" : 580,
            "type" : "VEC2"
        },
        {
            "bufferView" : 7,
            "componentType" : 5126,
            "count" : 580,
            "type" : "VEC2"
        },
        {
            "bufferView" : 8,
            "componentType" : 5126,
            "count" : 580,
            "type" : "VEC2"
        },
        {
            "bufferView" : 9,
            "componentType" : 5126,
            "count" : 580,
            "type" : "VEC2"
        },
        {
            "bufferView" : 10,
            "componentType" : 5126,
            "count" : 580,
            "type" : "VEC2"
        },
        {
            "bufferView" : 11,
            "componentType" : 5126,
            "count" : 580,
            "type" : "VEC2"
        },
        {
            "bufferView" : 12,
            "componentType" : 5126,
            "count" : 580,
            "type" : "VEC2"
        },
        {
            "bufferView" : 13,
            "componentType" : 5126,
            "count" : 580,
            "type" : "VEC2"
        },
        {
            "bufferView" : 14,
            "componentType" : 5126,
            "count" : 580,
            "type" : "VEC2"
        },
        {
            "bufferView" : 15,
            "componentType" : 5126,
            "count" : 580,
            "type" : "VEC2"
        },
        {
            "bufferView" : 16,
            "componentType" : 5126,
            "count" : 580,
            "type" : "VEC2"
        },
        {
            "bufferView" : 17,
            "componentType" : 5126,
            "count" : 580,
            "type" : "VEC2"
        },
        {
            "bufferView" : 18,
            "componentType" : 5126,
            "count" : 580,
            "type" : "VEC2"
        },
        {
            "bufferView" : 19,
            "componentType" : 5126,
            "count" : 580,
            "type" : "VEC2"
        },
        {
            "bufferView" : 20,
            "componentType" : 5126,
            "count" : 580,
            "type" : "VEC2"
        },
        {
            "bufferView" : 21,
            "componentType" : 5126,
            "count" : 580,
            "type" : "VEC2"
        },
        {
            "bufferView" : 22,
            "componentType" : 5126,
            "count" : 580,
            "type" : "VEC2"
        },
        {
            "bufferView" : 23,
            "componentType" : 5126,
            "count" : 580,
            "type" : "VEC2"
        },
        {
            "bufferView" : 24,
            "componentType" : 5126,
            "count" : 580,
            "type" : "VEC2"
        },
        {
            "bufferView" : 25,
            "componentType" : 5123,
            "count" : 828,
            "type" : "SCALAR"
        }
    ],
    "bufferViews" : [
        {
            "buffer" : 0,
            "byteLength" : 6960,
            "byteOffset" : 0
        },
        {
            "buffer" : 0,
            "byteLength" : 6960,
            "byteOffset" : 6960
        },
        {
            "buffer" : 0,
            "byteLength" : 4640,
            "byteOffset" : 13920
        },
        {
            "buffer" : 0,
            "byteLength" : 4640,
            "byteOffset" : 18560
        },
        {
            "buffer" : 0,
            "byteLength" : 4640,
            "byteOffset" : 23200
        },
        {
            "buffer" : 0,
            "byteLength" : 4640,
            "byteOffset" : 27840
        },
        {
            "buffer" : 0,
            "byteLength" : 4640,
            "byteOffset" : 32480
        },
        {
            "buffer" : 0,
            "byteLength" : 4640,
            "byteOffset" : 37120
        },
        {
            "buffer" : 0,
            "byteLength" : 4640,
            "byteOffset" : 41760
        },
        {
            "buffer" : 0,
            "byteLength" : 4640,
            "byteOffset" : 46400
        },
        {
            "buffer" : 0,
            "byteLength" : 4640,
            "byteOffset" : 51040
        },
        {
            "buffer" : 0,
            "byteLength" : 4640,
            "byteOffset" : 55680
        },
        {
            "buffer" : 0,
            "byteLength" : 4640,
            "byteOffset" : 60320
        },
        {
            "buffer" : 0,
            "byteLength" : 4640,
            "byteOffset" : 64960
        },
        {
            "buffer" : 0,
            "byteLength" : 4640,
            "byteOffset" : 69600
        },
        {
            "buffer" : 0,
            "byteLength" : 4640,
            "byteOffset" : 74240
        },
        {
            "buffer" : 0,
            "byteLength" : 4640,
            "byteOffset" : 78880
        },
        {
            "buffer" : 0,
            "byteLength" : 4640,
            "byteOffset" : 83520
        },
        {
            "buffer" : 0,
            "byteLength" : 4640,
            "byteOffset" : 88160
        },
        {
            "buffer" : 0,
            "byteLength" : 4640,
            "byteOffset" : 92800
        },
        {
            "buffer" : 0,
            "byteLength" : 4640,
            "byteOffset" : 97440
        },
        {
            "buffer" : 0,
            "byteLength" : 4640,
            "byteOffset" : 102080
        },
        {
            "buffer" : 0,
            "byteLength" : 4640,
            "byteOffset" : 106720
        },
        {
            "buffer" : 0,
            "byteLength" : 4640,
            "byteOffset" : 111360
        },
        {
            "buffer" : 0,
            "byteLength" : 4640,
            "byteOffset" : 116000
        },
        {
            "buffer" : 0,
            "byteLength" : 1656,
            "byteOffset" : 120640
        }
    ],
    "buffers" : [
        {
            "byteLength" : 122296,
            "uri" : "data:application/octet-stream;base64,"
        }
    ]
}
