{
    "asset" : {
        "generator" : "Khronos glTF Blender I/O v1.7.33",
        "version" : "2.0"
    },
    "scene" : 0,
    "scenes" : [
        {
            "name" : "Scene",
            "nodes" : [
                0
            ]
        }
    ],
    "nodes" : [
        {
            "mesh" : 0,
            "name" : "Brep.011"
        }
    ],
    "materials" : [
        {
            "doubleSided" : true,
            "name" : "cf2be1de-b81c-4d69-9418-dde91d266086",
            "pbrMetallicRoughness" : {
                "baseColorFactor" : [
                    0.9803919792175293,
                    0.9803919792175293,
                    0.9803919792175293,
                    1
                ],
                "roughnessFactor" : 0.5
            }
        }
    ],
    "meshes" : [
        {
            "name" : "mesh-bc96ef29-76e7-4981-b543-60658f07929f",
            "primitives" : [
                {
                    "attributes" : {
                        "POSITION" : 0,
                        "NORMAL" : 1,
                        "TEXCOORD_0" : 2,
                        "TEXCOORD_1" : 3,
                        "TEXCOORD_2" : 4,
                        "TEXCOORD_3" : 5,
                        "TEXCOORD_4" : 6,
                        "TEXCOORD_5" : 7,
                        "TEXCOORD_6" : 8,
                        "TEXCOORD_7" : 9,
                        "TEXCOORD_8" : 10,
                        "TEXCOORD_9" : 11,
                        "TEXCOORD_10" : 12,
                        "TEXCOORD_11" : 13,
                        "TEXCOORD_12" : 14
                    },
                    "indices" : 15,
                    "material" : 0
                }
            ]
        }
    ],
    "accessors" : [
        {
            "bufferView" : 0,
            "componentType" : 5126,
            "count" : 551,
            "max" : [
                0.9749987125396729,
                0.7399996519088745,
                0.47494420409202576
            ],
            "min" : [
                -0.9750011563301086,
                -3.28711507791013e-07,
                -0.4750558137893677
            ],
            "type" : "VEC3"
        },
        {
            "bufferView" : 1,
            "componentType" : 5126,
            "count" : 551,
            "type" : "VEC3"
        },
        {
            "bufferView" : 2,
            "componentType" : 5126,
            "count" : 551,
            "type" : "VEC2"
        },
        {
            "bufferView" : 3,
            "componentType" : 5126,
            "count" : 551,
            "type" : "VEC2"
        },
        {
            "bufferView" : 4,
            "componentType" : 5126,
            "count" : 551,
            "type" : "VEC2"
        },
        {
            "bufferView" : 5,
            "componentType" : 5126,
            "count" : 551,
            "type" : "VEC2"
        },
        {
            "bufferView" : 6,
            "componentType" : 5126,
            "count" : 551,
            "type" : "VEC2"
        },
        {
            "bufferView" : 7,
            "componentType" : 5126,
            "count" : 551,
            "type" : "VEC2"
        },
        {
            "bufferView" : 8,
            "componentType" : 5126,
            "count" : 551,
            "type" : "VEC2"
        },
        {
            "bufferView" : 9,
            "componentType" : 5126,
            "count" : 551,
            "type" : "VEC2"
        },
        {
            "bufferView" : 10,
            "componentType" : 5126,
            "count" : 551,
            "type" : "VEC2"
        },
        {
            "bufferView" : 11,
            "componentType" : 5126,
            "count" : 551,
            "type" : "VEC2"
        },
        {
            "bufferView" : 12,
            "componentType" : 5126,
            "count" : 551,
            "type" : "VEC2"
        },
        {
            "bufferView" : 13,
            "componentType" : 5126,
            "count" : 551,
            "type" : "VEC2"
        },
        {
            "bufferView" : 14,
            "componentType" : 5126,
            "count" : 551,
            "type" : "VEC2"
        },
        {
            "bufferView" : 15,
            "componentType" : 5123,
            "count" : 624,
            "type" : "SCALAR"
        }
    ],
    "bufferViews" : [
        {
            "buffer" : 0,
            "byteLength" : 6612,
            "byteOffset" : 0
        },
        {
            "buffer" : 0,
            "byteLength" : 6612,
            "byteOffset" : 6612
        },
        {
            "buffer" : 0,
            "byteLength" : 4408,
            "byteOffset" : 13224
        },
        {
            "buffer" : 0,
            "byteLength" : 4408,
            "byteOffset" : 17632
        },
        {
            "buffer" : 0,
            "byteLength" : 4408,
            "byteOffset" : 22040
        },
        {
            "buffer" : 0,
            "byteLength" : 4408,
            "byteOffset" : 26448
        },
        {
            "buffer" : 0,
            "byteLength" : 4408,
            "byteOffset" : 30856
        },
        {
            "buffer" : 0,
            "byteLength" : 4408,
            "byteOffset" : 35264
        },
        {
            "buffer" : 0,
            "byteLength" : 4408,
            "byteOffset" : 39672
        },
        {
            "buffer" : 0,
            "byteLength" : 4408,
            "byteOffset" : 44080
        },
        {
            "buffer" : 0,
            "byteLength" : 4408,
            "byteOffset" : 48488
        },
        {
            "buffer" : 0,
            "byteLength" : 4408,
            "byteOffset" : 52896
        },
        {
            "buffer" : 0,
            "byteLength" : 4408,
            "byteOffset" : 57304
        },
        {
            "buffer" : 0,
            "byteLength" : 4408,
            "byteOffset" : 61712
        },
        {
            "buffer" : 0,
            "byteLength" : 4408,
            "byteOffset" : 66120
        },
        {
            "buffer" : 0,
            "byteLength" : 1248,
            "byteOffset" : 70528
        }
    ],
    "buffers" : [
        {
            "byteLength" : 71776,
            "uri" : "data:application/octet-stream;base64,"
        }
    ]
}
