{
    "asset" : {
        "generator" : "Khronos glTF Blender I/O v1.7.33",
        "version" : "2.0"
    },
    "scene" : 0,
    "scenes" : [
        {
            "name" : "Scene",
            "nodes" : [
                0
            ]
        }
    ],
    "nodes" : [
        {
            "mesh" : 0,
            "name" : "Brep.011"
        }
    ],
    "materials" : [
        {
            "doubleSided" : true,
            "name" : "cf2be1de-b81c-4d69-9418-dde91d266086",
            "pbrMetallicRoughness" : {
                "baseColorFactor" : [
                    0.9803919792175293,
                    0.9803919792175293,
                    0.9803919792175293,
                    1
                ],
                "roughnessFactor" : 0.5
            }
        }
    ],
    "meshes" : [
        {
            "name" : "mesh-bc96ef29-76e7-4981-b543-60658f07929f",
            "primitives" : [
                {
                    "attributes" : {
                        "POSITION" : 0,
                        "NORMAL" : 1,
                        "TEXCOORD_0" : 2,
                        "TEXCOORD_1" : 3,
                        "TEXCOORD_2" : 4,
                        "TEXCOORD_3" : 5,
                        "TEXCOORD_4" : 6,
                        "TEXCOORD_5" : 7,
                        "TEXCOORD_6" : 8,
                        "TEXCOORD_7" : 9,
                        "TEXCOORD_8" : 10,
                        "TEXCOORD_9" : 11,
                        "TEXCOORD_10" : 12,
                        "TEXCOORD_11" : 13,
                        "TEXCOORD_12" : 14
                    },
                    "indices" : 15,
                    "material" : 0
                }
            ]
        }
    ],
    "accessors" : [
        {
            "bufferView" : 0,
            "componentType" : 5126,
            "count" : 532,
            "max" : [
                0.8999989032745361,
                0.7361975312232971,
                0.3999529778957367
            ],
            "min" : [
                -0.9000011086463928,
                -0.0038024182431399822,
                -0.4000469744205475
            ],
            "type" : "VEC3"
        },
        {
            "bufferView" : 1,
            "componentType" : 5126,
            "count" : 532,
            "type" : "VEC3"
        },
        {
            "bufferView" : 2,
            "componentType" : 5126,
            "count" : 532,
            "type" : "VEC2"
        },
        {
            "bufferView" : 3,
            "componentType" : 5126,
            "count" : 532,
            "type" : "VEC2"
        },
        {
            "bufferView" : 4,
            "componentType" : 5126,
            "count" : 532,
            "type" : "VEC2"
        },
        {
            "bufferView" : 5,
            "componentType" : 5126,
            "count" : 532,
            "type" : "VEC2"
        },
        {
            "bufferView" : 6,
            "componentType" : 5126,
            "count" : 532,
            "type" : "VEC2"
        },
        {
            "bufferView" : 7,
            "componentType" : 5126,
            "count" : 532,
            "type" : "VEC2"
        },
        {
            "bufferView" : 8,
            "componentType" : 5126,
            "count" : 532,
            "type" : "VEC2"
        },
        {
            "bufferView" : 9,
            "componentType" : 5126,
            "count" : 532,
            "type" : "VEC2"
        },
        {
            "bufferView" : 10,
            "componentType" : 5126,
            "count" : 532,
            "type" : "VEC2"
        },
        {
            "bufferView" : 11,
            "componentType" : 5126,
            "count" : 532,
            "type" : "VEC2"
        },
        {
            "bufferView" : 12,
            "componentType" : 5126,
            "count" : 532,
            "type" : "VEC2"
        },
        {
            "bufferView" : 13,
            "componentType" : 5126,
            "count" : 532,
            "type" : "VEC2"
        },
        {
            "bufferView" : 14,
            "componentType" : 5126,
            "count" : 532,
            "type" : "VEC2"
        },
        {
            "bufferView" : 15,
            "componentType" : 5123,
            "count" : 624,
            "type" : "SCALAR"
        }
    ],
    "bufferViews" : [
        {
            "buffer" : 0,
            "byteLength" : 6384,
            "byteOffset" : 0
        },
        {
            "buffer" : 0,
            "byteLength" : 6384,
            "byteOffset" : 6384
        },
        {
            "buffer" : 0,
            "byteLength" : 4256,
            "byteOffset" : 12768
        },
        {
            "buffer" : 0,
            "byteLength" : 4256,
            "byteOffset" : 17024
        },
        {
            "buffer" : 0,
            "byteLength" : 4256,
            "byteOffset" : 21280
        },
        {
            "buffer" : 0,
            "byteLength" : 4256,
            "byteOffset" : 25536
        },
        {
            "buffer" : 0,
            "byteLength" : 4256,
            "byteOffset" : 29792
        },
        {
            "buffer" : 0,
            "byteLength" : 4256,
            "byteOffset" : 34048
        },
        {
            "buffer" : 0,
            "byteLength" : 4256,
            "byteOffset" : 38304
        },
        {
            "buffer" : 0,
            "byteLength" : 4256,
            "byteOffset" : 42560
        },
        {
            "buffer" : 0,
            "byteLength" : 4256,
            "byteOffset" : 46816
        },
        {
            "buffer" : 0,
            "byteLength" : 4256,
            "byteOffset" : 51072
        },
        {
            "buffer" : 0,
            "byteLength" : 4256,
            "byteOffset" : 55328
        },
        {
            "buffer" : 0,
            "byteLength" : 4256,
            "byteOffset" : 59584
        },
        {
            "buffer" : 0,
            "byteLength" : 4256,
            "byteOffset" : 63840
        },
        {
            "buffer" : 0,
            "byteLength" : 1248,
            "byteOffset" : 68096
        }
    ],
    "buffers" : [
        {
            "byteLength" : 69344,
            "uri" : "data:application/octet-stream;base64,"
        }
    ]
}
