{
    "asset" : {
        "generator" : "Khronos glTF Blender I/O v1.7.33",
        "version" : "2.0"
    },
    "scene" : 0,
    "scenes" : [
        {
            "name" : "Scene",
            "nodes" : [
                0
            ]
        }
    ],
    "nodes" : [
        {
            "mesh" : 0,
            "name" : "Plane.019"
        }
    ],
    "materials" : [
        {
            "doubleSided" : true,
            "name" : "gold new.003",
            "pbrMetallicRoughness" : {
                "baseColorFactor" : [
                    0,
                    0,
                    0,
                    1
                ],
                "roughnessFactor" : 0.10000000149011612
            }
        }
    ],
    "meshes" : [
        {
            "name" : "Plane.019",
            "primitives" : [
                {
                    "attributes" : {
                        "POSITION" : 0,
                        "NORMAL" : 1,
                        "TEXCOORD_0" : 2
                    },
                    "indices" : 3,
                    "material" : 0
                }
            ]
        }
    ],
    "accessors" : [
        {
            "bufferView" : 0,
            "componentType" : 5126,
            "count" : 2825,
            "max" : [
                0.8999999761581421,
                0.7400000095367432,
                0.28349998593330383
            ],
            "min" : [
                -0.8999999761581421,
                0,
                -0.28349998593330383
            ],
            "type" : "VEC3"
        },
        {
            "bufferView" : 1,
            "componentType" : 5126,
            "count" : 2825,
            "type" : "VEC3"
        },
        {
            "bufferView" : 2,
            "componentType" : 5126,
            "count" : 2825,
            "type" : "VEC2"
        },
        {
            "bufferView" : 3,
            "componentType" : 5123,
            "count" : 10536,
            "type" : "SCALAR"
        }
    ],
    "bufferViews" : [
        {
            "buffer" : 0,
            "byteLength" : 33900,
            "byteOffset" : 0
        },
        {
            "buffer" : 0,
            "byteLength" : 33900,
            "byteOffset" : 33900
        },
        {
            "buffer" : 0,
            "byteLength" : 22600,
            "byteOffset" : 67800
        },
        {
            "buffer" : 0,
            "byteLength" : 21072,
            "byteOffset" : 90400
        }
    ],
    "buffers" : [
        {
            "byteLength" : 111472,
            "uri" : "data:application/octet-stream;base64,"
        }
    ]
}
