{
    "asset" : {
        "generator" : "Khronos glTF Blender I/O v1.7.33",
        "version" : "2.0"
    },
    "scene" : 0,
    "scenes" : [
        {
            "name" : "Scene",
            "nodes" : [
                0
            ]
        }
    ],
    "nodes" : [
        {
            "mesh" : 0,
            "name" : "Curve.096"
        }
    ],
    "materials" : [
        {
            "doubleSided" : true,
            "name" : "cf2be1de-b81c-4d69-9418-dde91d266086.010",
            "pbrMetallicRoughness" : {
                "baseColorFactor" : [
                    0.9803919792175293,
                    0.9803919792175293,
                    0.9803919792175293,
                    1
                ],
                "roughnessFactor" : 0.5
            }
        }
    ],
    "meshes" : [
        {
            "name" : "mesh-ae183d0f-4ab2-46f7-ae68-76bb9d1c3829",
            "primitives" : [
                {
                    "attributes" : {
                        "POSITION" : 0,
                        "NORMAL" : 1,
                        "TEXCOORD_0" : 2,
                        "TEXCOORD_1" : 3,
                        "TEXCOORD_2" : 4,
                        "TEXCOORD_3" : 5,
                        "TEXCOORD_4" : 6,
                        "TEXCOORD_5" : 7,
                        "TEXCOORD_6" : 8,
                        "TEXCOORD_7" : 9,
                        "TEXCOORD_8" : 10,
                        "TEXCOORD_9" : 11,
                        "TEXCOORD_10" : 12,
                        "TEXCOORD_11" : 13
                    },
                    "indices" : 14,
                    "material" : 0
                }
            ]
        }
    ],
    "accessors" : [
        {
            "bufferView" : 0,
            "componentType" : 5126,
            "count" : 5434,
            "max" : [
                0.8999991416931152,
                0.7318528294563293,
                0.3999985456466675
            ],
            "min" : [
                -0.900000810623169,
                -0.00814717635512352,
                -0.4000013768672943
            ],
            "type" : "VEC3"
        },
        {
            "bufferView" : 1,
            "componentType" : 5126,
            "count" : 5434,
            "type" : "VEC3"
        },
        {
            "bufferView" : 2,
            "componentType" : 5126,
            "count" : 5434,
            "type" : "VEC2"
        },
        {
            "bufferView" : 3,
            "componentType" : 5126,
            "count" : 5434,
            "type" : "VEC2"
        },
        {
            "bufferView" : 4,
            "componentType" : 5126,
            "count" : 5434,
            "type" : "VEC2"
        },
        {
            "bufferView" : 5,
            "componentType" : 5126,
            "count" : 5434,
            "type" : "VEC2"
        },
        {
            "bufferView" : 6,
            "componentType" : 5126,
            "count" : 5434,
            "type" : "VEC2"
        },
        {
            "bufferView" : 7,
            "componentType" : 5126,
            "count" : 5434,
            "type" : "VEC2"
        },
        {
            "bufferView" : 8,
            "componentType" : 5126,
            "count" : 5434,
            "type" : "VEC2"
        },
        {
            "bufferView" : 9,
            "componentType" : 5126,
            "count" : 5434,
            "type" : "VEC2"
        },
        {
            "bufferView" : 10,
            "componentType" : 5126,
            "count" : 5434,
            "type" : "VEC2"
        },
        {
            "bufferView" : 11,
            "componentType" : 5126,
            "count" : 5434,
            "type" : "VEC2"
        },
        {
            "bufferView" : 12,
            "componentType" : 5126,
            "count" : 5434,
            "type" : "VEC2"
        },
        {
            "bufferView" : 13,
            "componentType" : 5126,
            "count" : 5434,
            "type" : "VEC2"
        },
        {
            "bufferView" : 14,
            "componentType" : 5123,
            "count" : 8028,
            "type" : "SCALAR"
        }
    ],
    "bufferViews" : [
        {
            "buffer" : 0,
            "byteLength" : 65208,
            "byteOffset" : 0
        },
        {
            "buffer" : 0,
            "byteLength" : 65208,
            "byteOffset" : 65208
        },
        {
            "buffer" : 0,
            "byteLength" : 43472,
            "byteOffset" : 130416
        },
        {
            "buffer" : 0,
            "byteLength" : 43472,
            "byteOffset" : 173888
        },
        {
            "buffer" : 0,
            "byteLength" : 43472,
            "byteOffset" : 217360
        },
        {
            "buffer" : 0,
            "byteLength" : 43472,
            "byteOffset" : 260832
        },
        {
            "buffer" : 0,
            "byteLength" : 43472,
            "byteOffset" : 304304
        },
        {
            "buffer" : 0,
            "byteLength" : 43472,
            "byteOffset" : 347776
        },
        {
            "buffer" : 0,
            "byteLength" : 43472,
            "byteOffset" : 391248
        },
        {
            "buffer" : 0,
            "byteLength" : 43472,
            "byteOffset" : 434720
        },
        {
            "buffer" : 0,
            "byteLength" : 43472,
            "byteOffset" : 478192
        },
        {
            "buffer" : 0,
            "byteLength" : 43472,
            "byteOffset" : 521664
        },
        {
            "buffer" : 0,
            "byteLength" : 43472,
            "byteOffset" : 565136
        },
        {
            "buffer" : 0,
            "byteLength" : 43472,
            "byteOffset" : 608608
        },
        {
            "buffer" : 0,
            "byteLength" : 16056,
            "byteOffset" : 652080
        }
    ],
    "buffers" : [
        {
            "byteLength" : 668136,
            "uri" : "data:application/octet-stream;base64,"
        }
    ]
}
