{
    "asset" : {
        "generator" : "Khronos glTF Blender I/O v1.7.33",
        "version" : "2.0"
    },
    "scene" : 0,
    "scenes" : [
        {
            "name" : "Scene",
            "nodes" : [
                0
            ]
        }
    ],
    "nodes" : [
        {
            "mesh" : 0,
            "name" : "Brep.003"
        }
    ],
    "materials" : [
        {
            "doubleSided" : true,
            "name" : "cf2be1de-b81c-4d69-9418-dde91d266086.009",
            "pbrMetallicRoughness" : {
                "baseColorFactor" : [
                    0.9803919792175293,
                    0.9803919792175293,
                    0.9803919792175293,
                    1
                ],
                "roughnessFactor" : 0.5
            }
        }
    ],
    "meshes" : [
        {
            "name" : "mesh-a64fe19b-395f-415a-bd3e-c98aca855a9a",
            "primitives" : [
                {
                    "attributes" : {
                        "POSITION" : 0,
                        "NORMAL" : 1,
                        "TEXCOORD_0" : 2,
                        "TEXCOORD_1" : 3,
                        "TEXCOORD_2" : 4,
                        "TEXCOORD_3" : 5,
                        "TEXCOORD_4" : 6,
                        "TEXCOORD_5" : 7,
                        "TEXCOORD_6" : 8
                    },
                    "indices" : 9,
                    "material" : 0
                }
            ]
        }
    ],
    "accessors" : [
        {
            "bufferView" : 0,
            "componentType" : 5126,
            "count" : 721,
            "max" : [
                0.8976954221725464,
                0.73722904920578,
                0.3918636441230774
            ],
            "min" : [
                -0.902304470539093,
                -0.0027709659188985825,
                -0.408136248588562
            ],
            "type" : "VEC3"
        },
        {
            "bufferView" : 1,
            "componentType" : 5126,
            "count" : 721,
            "type" : "VEC3"
        },
        {
            "bufferView" : 2,
            "componentType" : 5126,
            "count" : 721,
            "type" : "VEC2"
        },
        {
            "bufferView" : 3,
            "componentType" : 5126,
            "count" : 721,
            "type" : "VEC2"
        },
        {
            "bufferView" : 4,
            "componentType" : 5126,
            "count" : 721,
            "type" : "VEC2"
        },
        {
            "bufferView" : 5,
            "componentType" : 5126,
            "count" : 721,
            "type" : "VEC2"
        },
        {
            "bufferView" : 6,
            "componentType" : 5126,
            "count" : 721,
            "type" : "VEC2"
        },
        {
            "bufferView" : 7,
            "componentType" : 5126,
            "count" : 721,
            "type" : "VEC2"
        },
        {
            "bufferView" : 8,
            "componentType" : 5126,
            "count" : 721,
            "type" : "VEC2"
        },
        {
            "bufferView" : 9,
            "componentType" : 5123,
            "count" : 1596,
            "type" : "SCALAR"
        }
    ],
    "bufferViews" : [
        {
            "buffer" : 0,
            "byteLength" : 8652,
            "byteOffset" : 0
        },
        {
            "buffer" : 0,
            "byteLength" : 8652,
            "byteOffset" : 8652
        },
        {
            "buffer" : 0,
            "byteLength" : 5768,
            "byteOffset" : 17304
        },
        {
            "buffer" : 0,
            "byteLength" : 5768,
            "byteOffset" : 23072
        },
        {
            "buffer" : 0,
            "byteLength" : 5768,
            "byteOffset" : 28840
        },
        {
            "buffer" : 0,
            "byteLength" : 5768,
            "byteOffset" : 34608
        },
        {
            "buffer" : 0,
            "byteLength" : 5768,
            "byteOffset" : 40376
        },
        {
            "buffer" : 0,
            "byteLength" : 5768,
            "byteOffset" : 46144
        },
        {
            "buffer" : 0,
            "byteLength" : 5768,
            "byteOffset" : 51912
        },
        {
            "buffer" : 0,
            "byteLength" : 3192,
            "byteOffset" : 57680
        }
    ],
    "buffers" : [
        {
            "byteLength" : 60872,
            "uri" : "data:application/octet-stream;base64,"
        }
    ]
}
