{
    "asset" : {
        "generator" : "Khronos glTF Blender I/O v1.7.33",
        "version" : "2.0"
    },
    "scene" : 0,
    "scenes" : [
        {
            "name" : "Scene",
            "nodes" : [
                0
            ]
        }
    ],
    "nodes" : [
        {
            "mesh" : 0,
            "name" : "Plane.003"
        }
    ],
    "materials" : [
        {
            "doubleSided" : true,
            "name" : "bronze.002",
            "pbrMetallicRoughness" : {
                "baseColorFactor" : [
                    0,
                    0,
                    0,
                    1
                ],
                "metallicFactor" : 0.25,
                "roughnessFactor" : 0.4000000059604645
            }
        }
    ],
    "meshes" : [
        {
            "name" : "Plane.016",
            "primitives" : [
                {
                    "attributes" : {
                        "POSITION" : 0,
                        "NORMAL" : 1,
                        "TEXCOORD_0" : 2,
                        "TEXCOORD_1" : 3
                    },
                    "indices" : 4,
                    "material" : 0
                }
            ]
        }
    ],
    "accessors" : [
        {
            "bufferView" : 0,
            "componentType" : 5126,
            "count" : 590,
            "max" : [
                0.8999999761581421,
                0.7399967312812805,
                0.2863130271434784
            ],
            "min" : [
                -0.8999999761581421,
                -3.314681634947192e-06,
                -0.2806869447231293
            ],
            "type" : "VEC3"
        },
        {
            "bufferView" : 1,
            "componentType" : 5126,
            "count" : 590,
            "type" : "VEC3"
        },
        {
            "bufferView" : 2,
            "componentType" : 5126,
            "count" : 590,
            "type" : "VEC2"
        },
        {
            "bufferView" : 3,
            "componentType" : 5126,
            "count" : 590,
            "type" : "VEC2"
        },
        {
            "bufferView" : 4,
            "componentType" : 5123,
            "count" : 684,
            "type" : "SCALAR"
        }
    ],
    "bufferViews" : [
        {
            "buffer" : 0,
            "byteLength" : 7080,
            "byteOffset" : 0
        },
        {
            "buffer" : 0,
            "byteLength" : 7080,
            "byteOffset" : 7080
        },
        {
            "buffer" : 0,
            "byteLength" : 4720,
            "byteOffset" : 14160
        },
        {
            "buffer" : 0,
            "byteLength" : 4720,
            "byteOffset" : 18880
        },
        {
            "buffer" : 0,
            "byteLength" : 1368,
            "byteOffset" : 23600
        }
    ],
    "buffers" : [
        {
            "byteLength" : 24968,
            "uri" : "data:application/octet-stream;base64,"
        }
    ]
}
