{
    "asset" : {
        "generator" : "Khronos glTF Blender I/O v1.7.33",
        "version" : "2.0"
    },
    "scene" : 0,
    "scenes" : [
        {
            "name" : "Scene",
            "nodes" : [
                0
            ]
        }
    ],
    "nodes" : [
        {
            "mesh" : 0,
            "name" : "Cube.001"
        }
    ],
    "materials" : [
        {
            "doubleSided" : true,
            "name" : "besi hitam.012",
            "pbrMetallicRoughness" : {
                "baseColorFactor" : [
                    0.800000011920929,
                    0.800000011920929,
                    0.800000011920929,
                    1
                ],
                "metallicFactor" : 0,
                "roughnessFactor" : 0.4000000059604645
            }
        }
    ],
    "meshes" : [
        {
            "name" : "Cube.005",
            "primitives" : [
                {
                    "attributes" : {
                        "POSITION" : 0,
                        "NORMAL" : 1,
                        "TEXCOORD_0" : 2
                    },
                    "indices" : 3,
                    "material" : 0
                }
            ]
        }
    ],
    "accessors" : [
        {
            "bufferView" : 0,
            "componentType" : 5126,
            "count" : 1749,
            "max" : [
                0.9224159717559814,
                0.7397341728210449,
                0.28406473994255066
            ],
            "min" : [
                -0.8775839805603027,
                -0.00026579105178825557,
                -0.282935231924057
            ],
            "type" : "VEC3"
        },
        {
            "bufferView" : 1,
            "componentType" : 5126,
            "count" : 1749,
            "type" : "VEC3"
        },
        {
            "bufferView" : 2,
            "componentType" : 5126,
            "count" : 1749,
            "type" : "VEC2"
        },
        {
            "bufferView" : 3,
            "componentType" : 5123,
            "count" : 7674,
            "type" : "SCALAR"
        }
    ],
    "bufferViews" : [
        {
            "buffer" : 0,
            "byteLength" : 20988,
            "byteOffset" : 0
        },
        {
            "buffer" : 0,
            "byteLength" : 20988,
            "byteOffset" : 20988
        },
        {
            "buffer" : 0,
            "byteLength" : 13992,
            "byteOffset" : 41976
        },
        {
            "buffer" : 0,
            "byteLength" : 15348,
            "byteOffset" : 55968
        }
    ],
    "buffers" : [
        {
            "byteLength" : 71316,
            "uri" : "data:application/octet-stream;base64,"
        }
    ]
}
