{
    "asset" : {
        "generator" : "Khronos glTF Blender I/O v1.7.33",
        "version" : "2.0"
    },
    "scene" : 0,
    "scenes" : [
        {
            "name" : "Scene",
            "nodes" : [
                0
            ]
        }
    ],
    "nodes" : [
        {
            "mesh" : 0,
            "name" : "Plane.007",
            "translation" : [
                0,
                -9.389419574290514e-06,
                0
            ]
        }
    ],
    "materials" : [
        {
            "doubleSided" : true,
            "name" : "besi hitam",
            "pbrMetallicRoughness" : {
                "baseColorFactor" : [
                    0,
                    0,
                    0,
                    1
                ],
                "roughnessFactor" : 0.3499999940395355
            }
        }
    ],
    "meshes" : [
        {
            "name" : "Plane.013",
            "primitives" : [
                {
                    "attributes" : {
                        "POSITION" : 0,
                        "NORMAL" : 1,
                        "TEXCOORD_0" : 2
                    },
                    "indices" : 3,
                    "material" : 0
                }
            ]
        }
    ],
    "accessors" : [
        {
            "bufferView" : 0,
            "componentType" : 5126,
            "count" : 2163,
            "max" : [
                3.4291319847106934,
                2.216296434402466,
                1.5620718002319336
            ],
            "min" : [
                -3.4291319847106934,
                -1.0118215868715197e-05,
                -1.5620274543762207
            ],
            "type" : "VEC3"
        },
        {
            "bufferView" : 1,
            "componentType" : 5126,
            "count" : 2163,
            "type" : "VEC3"
        },
        {
            "bufferView" : 2,
            "componentType" : 5126,
            "count" : 2163,
            "type" : "VEC2"
        },
        {
            "bufferView" : 3,
            "componentType" : 5123,
            "count" : 9222,
            "type" : "SCALAR"
        }
    ],
    "bufferViews" : [
        {
            "buffer" : 0,
            "byteLength" : 25956,
            "byteOffset" : 0
        },
        {
            "buffer" : 0,
            "byteLength" : 25956,
            "byteOffset" : 25956
        },
        {
            "buffer" : 0,
            "byteLength" : 17304,
            "byteOffset" : 51912
        },
        {
            "buffer" : 0,
            "byteLength" : 18444,
            "byteOffset" : 69216
        }
    ],
    "buffers" : [
        {
            "byteLength" : 87660,
            "uri" : "data:application/octet-stream;base64,"
        }
    ]
}
