{
    "asset" : {
        "generator" : "Khronos glTF Blender I/O v1.7.33",
        "version" : "2.0"
    },
    "scene" : 0,
    "scenes" : [
        {
            "name" : "Scene",
            "nodes" : [
                0
            ]
        }
    ],
    "nodes" : [
        {
            "mesh" : 0,
            "name" : "Plane.015",
            "scale" : [
                1,
                0.33954179286956787,
                0.5
            ],
            "translation" : [
                0,
                0.0004987134598195553,
                0
            ]
        }
    ],
    "materials" : [
        {
            "doubleSided" : true,
            "name" : "kaki",
            "pbrMetallicRoughness" : {
                "baseColorFactor" : [
                    0,
                    0,
                    0,
                    1
                ],
                "metallicFactor" : 0,
                "roughnessFactor" : 0.5
            }
        }
    ],
    "meshes" : [
        {
            "name" : "Plane.004",
            "primitives" : [
                {
                    "attributes" : {
                        "POSITION" : 0,
                        "NORMAL" : 1,
                        "TEXCOORD_0" : 2,
                        "TEXCOORD_1" : 3
                    },
                    "indices" : 4,
                    "material" : 0
                }
            ]
        }
    ],
    "accessors" : [
        {
            "bufferView" : 0,
            "componentType" : 5126,
            "count" : 3197,
            "max" : [
                3.4240050315856934,
                2.237635850906372,
                3.066377878189087
            ],
            "min" : [
                -3.4240050315856934,
                -0.00067465117899701,
                -3.0663790702819824
            ],
            "type" : "VEC3"
        },
        {
            "bufferView" : 1,
            "componentType" : 5126,
            "count" : 3197,
            "type" : "VEC3"
        },
        {
            "bufferView" : 2,
            "componentType" : 5126,
            "count" : 3197,
            "type" : "VEC2"
        },
        {
            "bufferView" : 3,
            "componentType" : 5126,
            "count" : 3197,
            "type" : "VEC2"
        },
        {
            "bufferView" : 4,
            "componentType" : 5123,
            "count" : 12246,
            "type" : "SCALAR"
        }
    ],
    "bufferViews" : [
        {
            "buffer" : 0,
            "byteLength" : 38364,
            "byteOffset" : 0
        },
        {
            "buffer" : 0,
            "byteLength" : 38364,
            "byteOffset" : 38364
        },
        {
            "buffer" : 0,
            "byteLength" : 25576,
            "byteOffset" : 76728
        },
        {
            "buffer" : 0,
            "byteLength" : 25576,
            "byteOffset" : 102304
        },
        {
            "buffer" : 0,
            "byteLength" : 24492,
            "byteOffset" : 127880
        }
    ],
    "buffers" : [
        {
            "byteLength" : 152372,
            "uri" : "data:application/octet-stream;base64,"
        }
    ]
}
