{
    "asset" : {
        "generator" : "Khronos glTF Blender I/O v1.7.33",
        "version" : "2.0"
    },
    "scene" : 0,
    "scenes" : [
        {
            "name" : "Scene",
            "nodes" : [
                0
            ]
        }
    ],
    "nodes" : [
        {
            "mesh" : 0,
            "name" : "Cube",
            "rotation" : [
                0,
                -0.22671814262866974,
                0,
                0.9739603996276855
            ]
        }
    ],
    "materials" : [
        {
            "doubleSided" : true,
            "name" : "besi hitam",
            "pbrMetallicRoughness" : {
                "baseColorFactor" : [
                    0,
                    0,
                    0,
                    1
                ],
                "roughnessFactor" : 0.3499999940395355
            }
        }
    ],
    "meshes" : [
        {
            "name" : "Cube",
            "primitives" : [
                {
                    "attributes" : {
                        "POSITION" : 0,
                        "NORMAL" : 1,
                        "TEXCOORD_0" : 2
                    },
                    "indices" : 3,
                    "material" : 0
                }
            ]
        }
    ],
    "accessors" : [
        {
            "bufferView" : 0,
            "componentType" : 5126,
            "count" : 1699,
            "max" : [
                3.5988104343414307,
                2.2393250465393066,
                2.53236985206604
            ],
            "min" : [
                -3.5988104343414307,
                -1.0013580322265625e-05,
                -2.53236985206604
            ],
            "type" : "VEC3"
        },
        {
            "bufferView" : 1,
            "componentType" : 5126,
            "count" : 1699,
            "type" : "VEC3"
        },
        {
            "bufferView" : 2,
            "componentType" : 5126,
            "count" : 1699,
            "type" : "VEC2"
        },
        {
            "bufferView" : 3,
            "componentType" : 5123,
            "count" : 7674,
            "type" : "SCALAR"
        }
    ],
    "bufferViews" : [
        {
            "buffer" : 0,
            "byteLength" : 20388,
            "byteOffset" : 0
        },
        {
            "buffer" : 0,
            "byteLength" : 20388,
            "byteOffset" : 20388
        },
        {
            "buffer" : 0,
            "byteLength" : 13592,
            "byteOffset" : 40776
        },
        {
            "buffer" : 0,
            "byteLength" : 15348,
            "byteOffset" : 54368
        }
    ],
    "buffers" : [
        {
            "byteLength" : 69716,
            "uri" : "data:application/octet-stream;base64,"
        }
    ]
}
