{
    "asset" : {
        "generator" : "Khronos glTF Blender I/O v1.7.33",
        "version" : "2.0"
    },
    "scene" : 0,
    "scenes" : [
        {
            "name" : "Scene",
            "nodes" : [
                0
            ]
        }
    ],
    "nodes" : [
        {
            "mesh" : 0,
            "name" : "Plane.022"
        }
    ],
    "materials" : [
        {
            "doubleSided" : true,
            "name" : "besi hitam.013",
            "pbrMetallicRoughness" : {
                "baseColorFactor" : [
                    0,
                    0,
                    0,
                    1
                ],
                "roughnessFactor" : 0.3499999940395355
            }
        }
    ],
    "meshes" : [
        {
            "name" : "Plane.018",
            "primitives" : [
                {
                    "attributes" : {
                        "POSITION" : 0,
                        "NORMAL" : 1,
                        "TEXCOORD_0" : 2
                    },
                    "indices" : 3,
                    "material" : 0
                }
            ]
        }
    ],
    "accessors" : [
        {
            "bufferView" : 0,
            "componentType" : 5126,
            "count" : 1488,
            "max" : [
                0.8999999761581421,
                0.74189293384552,
                0.28349998593330383
            ],
            "min" : [
                -0.8999999761581421,
                -0.003107112366706133,
                -0.28349998593330383
            ],
            "type" : "VEC3"
        },
        {
            "bufferView" : 1,
            "componentType" : 5126,
            "count" : 1488,
            "type" : "VEC3"
        },
        {
            "bufferView" : 2,
            "componentType" : 5126,
            "count" : 1488,
            "type" : "VEC2"
        },
        {
            "bufferView" : 3,
            "componentType" : 5123,
            "count" : 3360,
            "type" : "SCALAR"
        }
    ],
    "bufferViews" : [
        {
            "buffer" : 0,
            "byteLength" : 17856,
            "byteOffset" : 0
        },
        {
            "buffer" : 0,
            "byteLength" : 17856,
            "byteOffset" : 17856
        },
        {
            "buffer" : 0,
            "byteLength" : 11904,
            "byteOffset" : 35712
        },
        {
            "buffer" : 0,
            "byteLength" : 6720,
            "byteOffset" : 47616
        }
    ],
    "buffers" : [
        {
            "byteLength" : 54336,
            "uri" : "data:application/octet-stream;base64,"
        }
    ]
}
