{
    "asset" : {
        "generator" : "Khronos glTF Blender I/O v1.7.33",
        "version" : "2.0"
    },
    "scene" : 0,
    "scenes" : [
        {
            "name" : "Scene",
            "nodes" : [
                0
            ]
        }
    ],
    "nodes" : [
        {
            "mesh" : 0,
            "name" : "Brep"
        }
    ],
    "materials" : [
        {
            "doubleSided" : true,
            "name" : "cf2be1de-b81c-4d69-9418-dde91d266086",
            "pbrMetallicRoughness" : {
                "baseColorFactor" : [
                    0.9803919792175293,
                    0.9803919792175293,
                    0.9803919792175293,
                    1
                ],
                "roughnessFactor" : 0.5
            }
        }
    ],
    "meshes" : [
        {
            "name" : "mesh-a0eec7bf-cc1d-4e33-9674-d8785c2a8a31",
            "primitives" : [
                {
                    "attributes" : {
                        "POSITION" : 0,
                        "NORMAL" : 1,
                        "TEXCOORD_0" : 2,
                        "TEXCOORD_1" : 3,
                        "TEXCOORD_2" : 4,
                        "TEXCOORD_3" : 5,
                        "TEXCOORD_4" : 6,
                        "TEXCOORD_5" : 7,
                        "TEXCOORD_6" : 8,
                        "TEXCOORD_7" : 9,
                        "TEXCOORD_8" : 10,
                        "TEXCOORD_9" : 11,
                        "TEXCOORD_10" : 12,
                        "TEXCOORD_11" : 13,
                        "TEXCOORD_12" : 14
                    },
                    "indices" : 15,
                    "material" : 0
                }
            ]
        }
    ],
    "accessors" : [
        {
            "bufferView" : 0,
            "componentType" : 5126,
            "count" : 523,
            "max" : [
                0.9749996662139893,
                0.7400000095367432,
                0.5499351024627686
            ],
            "min" : [
                -0.9750002026557922,
                0,
                -0.5500655174255371
            ],
            "type" : "VEC3"
        },
        {
            "bufferView" : 1,
            "componentType" : 5126,
            "count" : 523,
            "type" : "VEC3"
        },
        {
            "bufferView" : 2,
            "componentType" : 5126,
            "count" : 523,
            "type" : "VEC2"
        },
        {
            "bufferView" : 3,
            "componentType" : 5126,
            "count" : 523,
            "type" : "VEC2"
        },
        {
            "bufferView" : 4,
            "componentType" : 5126,
            "count" : 523,
            "type" : "VEC2"
        },
        {
            "bufferView" : 5,
            "componentType" : 5126,
            "count" : 523,
            "type" : "VEC2"
        },
        {
            "bufferView" : 6,
            "componentType" : 5126,
            "count" : 523,
            "type" : "VEC2"
        },
        {
            "bufferView" : 7,
            "componentType" : 5126,
            "count" : 523,
            "type" : "VEC2"
        },
        {
            "bufferView" : 8,
            "componentType" : 5126,
            "count" : 523,
            "type" : "VEC2"
        },
        {
            "bufferView" : 9,
            "componentType" : 5126,
            "count" : 523,
            "type" : "VEC2"
        },
        {
            "bufferView" : 10,
            "componentType" : 5126,
            "count" : 523,
            "type" : "VEC2"
        },
        {
            "bufferView" : 11,
            "componentType" : 5126,
            "count" : 523,
            "type" : "VEC2"
        },
        {
            "bufferView" : 12,
            "componentType" : 5126,
            "count" : 523,
            "type" : "VEC2"
        },
        {
            "bufferView" : 13,
            "componentType" : 5126,
            "count" : 523,
            "type" : "VEC2"
        },
        {
            "bufferView" : 14,
            "componentType" : 5126,
            "count" : 523,
            "type" : "VEC2"
        },
        {
            "bufferView" : 15,
            "componentType" : 5123,
            "count" : 624,
            "type" : "SCALAR"
        }
    ],
    "bufferViews" : [
        {
            "buffer" : 0,
            "byteLength" : 6276,
            "byteOffset" : 0
        },
        {
            "buffer" : 0,
            "byteLength" : 6276,
            "byteOffset" : 6276
        },
        {
            "buffer" : 0,
            "byteLength" : 4184,
            "byteOffset" : 12552
        },
        {
            "buffer" : 0,
            "byteLength" : 4184,
            "byteOffset" : 16736
        },
        {
            "buffer" : 0,
            "byteLength" : 4184,
            "byteOffset" : 20920
        },
        {
            "buffer" : 0,
            "byteLength" : 4184,
            "byteOffset" : 25104
        },
        {
            "buffer" : 0,
            "byteLength" : 4184,
            "byteOffset" : 29288
        },
        {
            "buffer" : 0,
            "byteLength" : 4184,
            "byteOffset" : 33472
        },
        {
            "buffer" : 0,
            "byteLength" : 4184,
            "byteOffset" : 37656
        },
        {
            "buffer" : 0,
            "byteLength" : 4184,
            "byteOffset" : 41840
        },
        {
            "buffer" : 0,
            "byteLength" : 4184,
            "byteOffset" : 46024
        },
        {
            "buffer" : 0,
            "byteLength" : 4184,
            "byteOffset" : 50208
        },
        {
            "buffer" : 0,
            "byteLength" : 4184,
            "byteOffset" : 54392
        },
        {
            "buffer" : 0,
            "byteLength" : 4184,
            "byteOffset" : 58576
        },
        {
            "buffer" : 0,
            "byteLength" : 4184,
            "byteOffset" : 62760
        },
        {
            "buffer" : 0,
            "byteLength" : 1248,
            "byteOffset" : 66944
        }
    ],
    "buffers" : [
        {
            "byteLength" : 68192,
            "uri" : "data:application/octet-stream;base64,"
        }
    ]
}
