{
    "asset" : {
        "generator" : "Khronos glTF Blender I/O v1.7.33",
        "version" : "2.0"
    },
    "scene" : 0,
    "scenes" : [
        {
            "name" : "Scene",
            "nodes" : [
                0
            ]
        }
    ],
    "nodes" : [
        {
            "mesh" : 0,
            "name" : "Curve.007"
        }
    ],
    "materials" : [
        {
            "doubleSided" : true,
            "name" : "cf2be1de-b81c-4d69-9418-dde91d266086",
            "pbrMetallicRoughness" : {
                "baseColorFactor" : [
                    0.9803919792175293,
                    0.9803919792175293,
                    0.9803919792175293,
                    1
                ],
                "roughnessFactor" : 0.5
            }
        }
    ],
    "meshes" : [
        {
            "name" : "mesh-da30a0b0-84ea-46e1-94d0-0fe5f195f9ea",
            "primitives" : [
                {
                    "attributes" : {
                        "POSITION" : 0,
                        "NORMAL" : 1,
                        "TEXCOORD_0" : 2,
                        "TEXCOORD_1" : 3,
                        "TEXCOORD_2" : 4,
                        "TEXCOORD_3" : 5,
                        "TEXCOORD_4" : 6,
                        "TEXCOORD_5" : 7,
                        "TEXCOORD_6" : 8,
                        "TEXCOORD_7" : 9
                    },
                    "indices" : 10,
                    "material" : 0
                }
            ]
        }
    ],
    "accessors" : [
        {
            "bufferView" : 0,
            "componentType" : 5126,
            "count" : 827,
            "max" : [
                0.8999999165534973,
                0.7351105213165283,
                0.39999932050704956
            ],
            "min" : [
                -0.9000000953674316,
                -0.004889403469860554,
                -0.4000006318092346
            ],
            "type" : "VEC3"
        },
        {
            "bufferView" : 1,
            "componentType" : 5126,
            "count" : 827,
            "type" : "VEC3"
        },
        {
            "bufferView" : 2,
            "componentType" : 5126,
            "count" : 827,
            "type" : "VEC2"
        },
        {
            "bufferView" : 3,
            "componentType" : 5126,
            "count" : 827,
            "type" : "VEC2"
        },
        {
            "bufferView" : 4,
            "componentType" : 5126,
            "count" : 827,
            "type" : "VEC2"
        },
        {
            "bufferView" : 5,
            "componentType" : 5126,
            "count" : 827,
            "type" : "VEC2"
        },
        {
            "bufferView" : 6,
            "componentType" : 5126,
            "count" : 827,
            "type" : "VEC2"
        },
        {
            "bufferView" : 7,
            "componentType" : 5126,
            "count" : 827,
            "type" : "VEC2"
        },
        {
            "bufferView" : 8,
            "componentType" : 5126,
            "count" : 827,
            "type" : "VEC2"
        },
        {
            "bufferView" : 9,
            "componentType" : 5126,
            "count" : 827,
            "type" : "VEC2"
        },
        {
            "bufferView" : 10,
            "componentType" : 5123,
            "count" : 1440,
            "type" : "SCALAR"
        }
    ],
    "bufferViews" : [
        {
            "buffer" : 0,
            "byteLength" : 9924,
            "byteOffset" : 0
        },
        {
            "buffer" : 0,
            "byteLength" : 9924,
            "byteOffset" : 9924
        },
        {
            "buffer" : 0,
            "byteLength" : 6616,
            "byteOffset" : 19848
        },
        {
            "buffer" : 0,
            "byteLength" : 6616,
            "byteOffset" : 26464
        },
        {
            "buffer" : 0,
            "byteLength" : 6616,
            "byteOffset" : 33080
        },
        {
            "buffer" : 0,
            "byteLength" : 6616,
            "byteOffset" : 39696
        },
        {
            "buffer" : 0,
            "byteLength" : 6616,
            "byteOffset" : 46312
        },
        {
            "buffer" : 0,
            "byteLength" : 6616,
            "byteOffset" : 52928
        },
        {
            "buffer" : 0,
            "byteLength" : 6616,
            "byteOffset" : 59544
        },
        {
            "buffer" : 0,
            "byteLength" : 6616,
            "byteOffset" : 66160
        },
        {
            "buffer" : 0,
            "byteLength" : 2880,
            "byteOffset" : 72776
        }
    ],
    "buffers" : [
        {
            "byteLength" : 75656,
            "uri" : "data:application/octet-stream;base64,"
        }
    ]
}
