{
    "asset" : {
        "generator" : "Khronos glTF Blender I/O v1.7.33",
        "version" : "2.0"
    },
    "scene" : 0,
    "scenes" : [
        {
            "name" : "Scene",
            "nodes" : [
                0,
                1,
                2,
                3,
                4,
                5,
                6,
                7,
                8,
                9,
                10,
                11,
                12,
                13,
                14,
                15,
                16,
                17,
                18,
                19,
                20,
                21,
                22,
                23,
                24,
                25,
                26,
                27,
                28,
                29,
                30,
                31
            ]
        }
    ],
    "nodes" : [
        {
            "name" : "Curve",
            "scale" : [
                0.009999999776482582,
                0.009999999776482582,
                0.009999999776482582
            ]
        },
        {
            "name" : "Curve.001",
            "scale" : [
                0.009999999776482582,
                0.009999999776482582,
                0.009999999776482582
            ]
        },
        {
            "name" : "Curve.002",
            "scale" : [
                0.009999999776482582,
                0.009999999776482582,
                0.009999999776482582
            ]
        },
        {
            "name" : "Curve.003",
            "scale" : [
                0.009999999776482582,
                0.009999999776482582,
                0.009999999776482582
            ]
        },
        {
            "name" : "Curve.004",
            "scale" : [
                0.009999999776482582,
                0.009999999776482582,
                0.009999999776482582
            ]
        },
        {
            "name" : "Curve.005",
            "scale" : [
                0.009999999776482582,
                0.009999999776482582,
                0.009999999776482582
            ]
        },
        {
            "name" : "Curve.006",
            "scale" : [
                0.009999999776482582,
                0.009999999776482582,
                0.009999999776482582
            ]
        },
        {
            "name" : "Curve.007",
            "scale" : [
                0.009999999776482582,
                0.009999999776482582,
                0.009999999776482582
            ]
        },
        {
            "name" : "Curve.008",
            "scale" : [
                0.009999999776482582,
                0.009999999776482582,
                0.009999999776482582
            ]
        },
        {
            "name" : "Curve.009",
            "scale" : [
                0.009999999776482582,
                0.009999999776482582,
                0.009999999776482582
            ]
        },
        {
            "name" : "Curve.010",
            "scale" : [
                0.009999999776482582,
                0.009999999776482582,
                0.009999999776482582
            ]
        },
        {
            "name" : "Curve.011",
            "scale" : [
                0.009999999776482582,
                0.009999999776482582,
                0.009999999776482582
            ]
        },
        {
            "name" : "Curve.012",
            "scale" : [
                0.009999999776482582,
                0.009999999776482582,
                0.009999999776482582
            ]
        },
        {
            "name" : "Curve.013",
            "scale" : [
                0.009999999776482582,
                0.009999999776482582,
                0.009999999776482582
            ]
        },
        {
            "name" : "Curve.014",
            "scale" : [
                0.009999999776482582,
                0.009999999776482582,
                0.009999999776482582
            ]
        },
        {
            "name" : "Curve.015",
            "scale" : [
                0.009999999776482582,
                0.009999999776482582,
                0.009999999776482582
            ]
        },
        {
            "name" : "Curve.016",
            "scale" : [
                0.009999999776482582,
                0.009999999776482582,
                0.009999999776482582
            ]
        },
        {
            "name" : "Curve.017",
            "scale" : [
                0.009999999776482582,
                0.009999999776482582,
                0.009999999776482582
            ]
        },
        {
            "name" : "Curve.018",
            "scale" : [
                0.009999999776482582,
                0.009999999776482582,
                0.009999999776482582
            ]
        },
        {
            "name" : "Curve.019",
            "scale" : [
                0.009999999776482582,
                0.009999999776482582,
                0.009999999776482582
            ]
        },
        {
            "name" : "Curve.020",
            "scale" : [
                0.009999999776482582,
                0.009999999776482582,
                0.009999999776482582
            ]
        },
        {
            "name" : "Curve.021",
            "scale" : [
                0.009999999776482582,
                0.009999999776482582,
                0.009999999776482582
            ]
        },
        {
            "name" : "Curve.022",
            "scale" : [
                0.009999999776482582,
                0.009999999776482582,
                0.009999999776482582
            ]
        },
        {
            "mesh" : 0,
            "name" : "Brep.018"
        },
        {
            "name" : "Curve.023",
            "scale" : [
                0.009999999776482582,
                0.009999999776482582,
                0.009999999776482582
            ]
        },
        {
            "name" : "Curve.024",
            "scale" : [
                0.009999999776482582,
                0.009999999776482582,
                0.009999999776482582
            ]
        },
        {
            "name" : "Curve.025",
            "scale" : [
                0.009999999776482582,
                0.009999999776482582,
                0.009999999776482582
            ]
        },
        {
            "name" : "Curve.026",
            "scale" : [
                0.009999999776482582,
                0.009999999776482582,
                0.009999999776482582
            ]
        },
        {
            "name" : "Curve.027",
            "scale" : [
                0.009999999776482582,
                0.009999999776482582,
                0.009999999776482582
            ]
        },
        {
            "name" : "Curve.028",
            "scale" : [
                0.009999999776482582,
                0.009999999776482582,
                0.009999999776482582
            ]
        },
        {
            "name" : "Curve.029",
            "scale" : [
                0.009999999776482582,
                0.009999999776482582,
                0.009999999776482582
            ]
        },
        {
            "name" : "Curve.030",
            "scale" : [
                0.009999999776482582,
                0.009999999776482582,
                0.009999999776482582
            ]
        }
    ],
    "materials" : [
        {
            "doubleSided" : true,
            "name" : "cf2be1de-b81c-4d69-9418-dde91d266086.003",
            "pbrMetallicRoughness" : {
                "baseColorFactor" : [
                    0.9803919792175293,
                    0.9803919792175293,
                    0.9803919792175293,
                    1
                ],
                "roughnessFactor" : 0.5
            }
        }
    ],
    "meshes" : [
        {
            "name" : "mesh-aa1c38d9-01f0-406e-a55f-bff336227644",
            "primitives" : [
                {
                    "attributes" : {
                        "POSITION" : 0,
                        "NORMAL" : 1,
                        "TEXCOORD_0" : 2,
                        "TEXCOORD_1" : 3,
                        "TEXCOORD_2" : 4,
                        "TEXCOORD_3" : 5,
                        "TEXCOORD_4" : 6,
                        "TEXCOORD_5" : 7,
                        "TEXCOORD_6" : 8,
                        "TEXCOORD_7" : 9,
                        "TEXCOORD_8" : 10,
                        "TEXCOORD_9" : 11,
                        "TEXCOORD_10" : 12,
                        "TEXCOORD_11" : 13,
                        "TEXCOORD_12" : 14,
                        "TEXCOORD_13" : 15,
                        "TEXCOORD_14" : 16,
                        "TEXCOORD_15" : 17,
                        "TEXCOORD_16" : 18,
                        "TEXCOORD_17" : 19,
                        "TEXCOORD_18" : 20,
                        "TEXCOORD_19" : 21,
                        "TEXCOORD_20" : 22,
                        "TEXCOORD_21" : 23,
                        "TEXCOORD_22" : 24,
                        "TEXCOORD_23" : 25,
                        "TEXCOORD_24" : 26,
                        "TEXCOORD_25" : 27,
                        "TEXCOORD_26" : 28,
                        "TEXCOORD_27" : 29,
                        "TEXCOORD_28" : 30,
                        "TEXCOORD_29" : 31,
                        "TEXCOORD_30" : 32,
                        "TEXCOORD_31" : 33,
                        "TEXCOORD_32" : 34,
                        "TEXCOORD_33" : 35
                    },
                    "indices" : 36,
                    "material" : 0
                }
            ]
        }
    ],
    "accessors" : [
        {
            "bufferView" : 0,
            "componentType" : 5126,
            "count" : 846,
            "max" : [
                0.9257344007492065,
                0.7400000095367432,
                0.5234917998313904
            ],
            "min" : [
                -1.0242655277252197,
                -1.9307066168039455e-08,
                -0.5765081644058228
            ],
            "type" : "VEC3"
        },
        {
            "bufferView" : 1,
            "componentType" : 5126,
            "count" : 846,
            "type" : "VEC3"
        },
        {
            "bufferView" : 2,
            "componentType" : 5126,
            "count" : 846,
            "type" : "VEC2"
        },
        {
            "bufferView" : 3,
            "componentType" : 5126,
            "count" : 846,
            "type" : "VEC2"
        },
        {
            "bufferView" : 4,
            "componentType" : 5126,
            "count" : 846,
            "type" : "VEC2"
        },
        {
            "bufferView" : 5,
            "componentType" : 5126,
            "count" : 846,
            "type" : "VEC2"
        },
        {
            "bufferView" : 6,
            "componentType" : 5126,
            "count" : 846,
            "type" : "VEC2"
        },
        {
            "bufferView" : 7,
            "componentType" : 5126,
            "count" : 846,
            "type" : "VEC2"
        },
        {
            "bufferView" : 8,
            "componentType" : 5126,
            "count" : 846,
            "type" : "VEC2"
        },
        {
            "bufferView" : 9,
            "componentType" : 5126,
            "count" : 846,
            "type" : "VEC2"
        },
        {
            "bufferView" : 10,
            "componentType" : 5126,
            "count" : 846,
            "type" : "VEC2"
        },
        {
            "bufferView" : 11,
            "componentType" : 5126,
            "count" : 846,
            "type" : "VEC2"
        },
        {
            "bufferView" : 12,
            "componentType" : 5126,
            "count" : 846,
            "type" : "VEC2"
        },
        {
            "bufferView" : 13,
            "componentType" : 5126,
            "count" : 846,
            "type" : "VEC2"
        },
        {
            "bufferView" : 14,
            "componentType" : 5126,
            "count" : 846,
            "type" : "VEC2"
        },
        {
            "bufferView" : 15,
            "componentType" : 5126,
            "count" : 846,
            "type" : "VEC2"
        },
        {
            "bufferView" : 16,
            "componentType" : 5126,
            "count" : 846,
            "type" : "VEC2"
        },
        {
            "bufferView" : 17,
            "componentType" : 5126,
            "count" : 846,
            "type" : "VEC2"
        },
        {
            "bufferView" : 18,
            "componentType" : 5126,
            "count" : 846,
            "type" : "VEC2"
        },
        {
            "bufferView" : 19,
            "componentType" : 5126,
            "count" : 846,
            "type" : "VEC2"
        },
        {
            "bufferView" : 20,
            "componentType" : 5126,
            "count" : 846,
            "type" : "VEC2"
        },
        {
            "bufferView" : 21,
            "componentType" : 5126,
            "count" : 846,
            "type" : "VEC2"
        },
        {
            "bufferView" : 22,
            "componentType" : 5126,
            "count" : 846,
            "type" : "VEC2"
        },
        {
            "bufferView" : 23,
            "componentType" : 5126,
            "count" : 846,
            "type" : "VEC2"
        },
        {
            "bufferView" : 24,
            "componentType" : 5126,
            "count" : 846,
            "type" : "VEC2"
        },
        {
            "bufferView" : 25,
            "componentType" : 5126,
            "count" : 846,
            "type" : "VEC2"
        },
        {
            "bufferView" : 26,
            "componentType" : 5126,
            "count" : 846,
            "type" : "VEC2"
        },
        {
            "bufferView" : 27,
            "componentType" : 5126,
            "count" : 846,
            "type" : "VEC2"
        },
        {
            "bufferView" : 28,
            "componentType" : 5126,
            "count" : 846,
            "type" : "VEC2"
        },
        {
            "bufferView" : 29,
            "componentType" : 5126,
            "count" : 846,
            "type" : "VEC2"
        },
        {
            "bufferView" : 30,
            "componentType" : 5126,
            "count" : 846,
            "type" : "VEC2"
        },
        {
            "bufferView" : 31,
            "componentType" : 5126,
            "count" : 846,
            "type" : "VEC2"
        },
        {
            "bufferView" : 32,
            "componentType" : 5126,
            "count" : 846,
            "type" : "VEC2"
        },
        {
            "bufferView" : 33,
            "componentType" : 5126,
            "count" : 846,
            "type" : "VEC2"
        },
        {
            "bufferView" : 34,
            "componentType" : 5126,
            "count" : 846,
            "type" : "VEC2"
        },
        {
            "bufferView" : 35,
            "componentType" : 5126,
            "count" : 846,
            "type" : "VEC2"
        },
        {
            "bufferView" : 36,
            "componentType" : 5123,
            "count" : 942,
            "type" : "SCALAR"
        }
    ],
    "bufferViews" : [
        {
            "buffer" : 0,
            "byteLength" : 10152,
            "byteOffset" : 0
        },
        {
            "buffer" : 0,
            "byteLength" : 10152,
            "byteOffset" : 10152
        },
        {
            "buffer" : 0,
            "byteLength" : 6768,
            "byteOffset" : 20304
        },
        {
            "buffer" : 0,
            "byteLength" : 6768,
            "byteOffset" : 27072
        },
        {
            "buffer" : 0,
            "byteLength" : 6768,
            "byteOffset" : 33840
        },
        {
            "buffer" : 0,
            "byteLength" : 6768,
            "byteOffset" : 40608
        },
        {
            "buffer" : 0,
            "byteLength" : 6768,
            "byteOffset" : 47376
        },
        {
            "buffer" : 0,
            "byteLength" : 6768,
            "byteOffset" : 54144
        },
        {
            "buffer" : 0,
            "byteLength" : 6768,
            "byteOffset" : 60912
        },
        {
            "buffer" : 0,
            "byteLength" : 6768,
            "byteOffset" : 67680
        },
        {
            "buffer" : 0,
            "byteLength" : 6768,
            "byteOffset" : 74448
        },
        {
            "buffer" : 0,
            "byteLength" : 6768,
            "byteOffset" : 81216
        },
        {
            "buffer" : 0,
            "byteLength" : 6768,
            "byteOffset" : 87984
        },
        {
            "buffer" : 0,
            "byteLength" : 6768,
            "byteOffset" : 94752
        },
        {
            "buffer" : 0,
            "byteLength" : 6768,
            "byteOffset" : 101520
        },
        {
            "buffer" : 0,
            "byteLength" : 6768,
            "byteOffset" : 108288
        },
        {
            "buffer" : 0,
            "byteLength" : 6768,
            "byteOffset" : 115056
        },
        {
            "buffer" : 0,
            "byteLength" : 6768,
            "byteOffset" : 121824
        },
        {
            "buffer" : 0,
            "byteLength" : 6768,
            "byteOffset" : 128592
        },
        {
            "buffer" : 0,
            "byteLength" : 6768,
            "byteOffset" : 135360
        },
        {
            "buffer" : 0,
            "byteLength" : 6768,
            "byteOffset" : 142128
        },
        {
            "buffer" : 0,
            "byteLength" : 6768,
            "byteOffset" : 148896
        },
        {
            "buffer" : 0,
            "byteLength" : 6768,
            "byteOffset" : 155664
        },
        {
            "buffer" : 0,
            "byteLength" : 6768,
            "byteOffset" : 162432
        },
        {
            "buffer" : 0,
            "byteLength" : 6768,
            "byteOffset" : 169200
        },
        {
            "buffer" : 0,
            "byteLength" : 6768,
            "byteOffset" : 175968
        },
        {
            "buffer" : 0,
            "byteLength" : 6768,
            "byteOffset" : 182736
        },
        {
            "buffer" : 0,
            "byteLength" : 6768,
            "byteOffset" : 189504
        },
        {
            "buffer" : 0,
            "byteLength" : 6768,
            "byteOffset" : 196272
        },
        {
            "buffer" : 0,
            "byteLength" : 6768,
            "byteOffset" : 203040
        },
        {
            "buffer" : 0,
            "byteLength" : 6768,
            "byteOffset" : 209808
        },
        {
            "buffer" : 0,
            "byteLength" : 6768,
            "byteOffset" : 216576
        },
        {
            "buffer" : 0,
            "byteLength" : 6768,
            "byteOffset" : 223344
        },
        {
            "buffer" : 0,
            "byteLength" : 6768,
            "byteOffset" : 230112
        },
        {
            "buffer" : 0,
            "byteLength" : 6768,
            "byteOffset" : 236880
        },
        {
            "buffer" : 0,
            "byteLength" : 6768,
            "byteOffset" : 243648
        },
        {
            "buffer" : 0,
            "byteLength" : 1884,
            "byteOffset" : 250416
        }
    ],
    "buffers" : [
        {
            "byteLength" : 252300,
            "uri" : "data:application/octet-stream;base64,"
        }
    ]
}
