{
    "asset" : {
        "generator" : "Khronos glTF Blender I/O v1.7.33",
        "version" : "2.0"
    },
    "scene" : 0,
    "scenes" : [
        {
            "name" : "Scene",
            "nodes" : [
                0
            ]
        }
    ],
    "nodes" : [
        {
            "mesh" : 0,
            "name" : "Plane.019"
        }
    ],
    "materials" : [
        {
            "doubleSided" : true,
            "name" : "gold new",
            "pbrMetallicRoughness" : {
                "baseColorFactor" : [
                    0,
                    0,
                    0,
                    1
                ],
                "roughnessFactor" : 0.10000000149011612
            }
        }
    ],
    "meshes" : [
        {
            "name" : "Plane.019",
            "primitives" : [
                {
                    "attributes" : {
                        "POSITION" : 0,
                        "NORMAL" : 1,
                        "TEXCOORD_0" : 2
                    },
                    "indices" : 3,
                    "material" : 0
                }
            ]
        }
    ],
    "accessors" : [
        {
            "bufferView" : 0,
            "componentType" : 5126,
            "count" : 2577,
            "max" : [
                2.9000003337860107,
                2.200000047683716,
                0.7000001072883606
            ],
            "min" : [
                -2.9000003337860107,
                0,
                -0.7000001072883606
            ],
            "type" : "VEC3"
        },
        {
            "bufferView" : 1,
            "componentType" : 5126,
            "count" : 2577,
            "type" : "VEC3"
        },
        {
            "bufferView" : 2,
            "componentType" : 5126,
            "count" : 2577,
            "type" : "VEC2"
        },
        {
            "bufferView" : 3,
            "componentType" : 5123,
            "count" : 10536,
            "type" : "SCALAR"
        }
    ],
    "bufferViews" : [
        {
            "buffer" : 0,
            "byteLength" : 30924,
            "byteOffset" : 0
        },
        {
            "buffer" : 0,
            "byteLength" : 30924,
            "byteOffset" : 30924
        },
        {
            "buffer" : 0,
            "byteLength" : 20616,
            "byteOffset" : 61848
        },
        {
            "buffer" : 0,
            "byteLength" : 21072,
            "byteOffset" : 82464
        }
    ],
    "buffers" : [
        {
            "byteLength" : 103536,
            "uri" : "data:application/octet-stream;base64,"
        }
    ]
}
