{
    "asset" : {
        "generator" : "Khronos glTF Blender I/O v1.7.33",
        "version" : "2.0"
    },
    "scene" : 0,
    "scenes" : [
        {
            "name" : "Scene",
            "nodes" : [
                0
            ]
        }
    ],
    "nodes" : [
        {
            "mesh" : 0,
            "name" : "BezierCircle.004",
            "scale" : [
                2.855536699295044,
                3.56942081451416,
                2.855536699295044
            ],
            "translation" : [
                0,
                2.4996495246887207,
                0
            ]
        }
    ],
    "materials" : [
        {
            "doubleSided" : true,
            "name" : "besi hitam",
            "pbrMetallicRoughness" : {
                "baseColorFactor" : [
                    0,
                    0,
                    0,
                    1
                ],
                "roughnessFactor" : 0.3499999940395355
            }
        }
    ],
    "meshes" : [
        {
            "name" : "BezierCircle.004",
            "primitives" : [
                {
                    "attributes" : {
                        "POSITION" : 0,
                        "NORMAL" : 1,
                        "TEXCOORD_0" : 2
                    },
                    "indices" : 3,
                    "material" : 0
                }
            ]
        }
    ],
    "accessors" : [
        {
            "bufferView" : 0,
            "componentType" : 5126,
            "count" : 16302,
            "max" : [
                1.0045758485794067,
                0.011006057262420654,
                1.0045759677886963
            ],
            "min" : [
                -1.0045758485794067,
                -0.6999454498291016,
                -1.0045758485794067
            ],
            "type" : "VEC3"
        },
        {
            "bufferView" : 1,
            "componentType" : 5126,
            "count" : 16302,
            "type" : "VEC3"
        },
        {
            "bufferView" : 2,
            "componentType" : 5126,
            "count" : 16302,
            "type" : "VEC2"
        },
        {
            "bufferView" : 3,
            "componentType" : 5123,
            "count" : 86916,
            "type" : "SCALAR"
        }
    ],
    "bufferViews" : [
        {
            "buffer" : 0,
            "byteLength" : 195624,
            "byteOffset" : 0
        },
        {
            "buffer" : 0,
            "byteLength" : 195624,
            "byteOffset" : 195624
        },
        {
            "buffer" : 0,
            "byteLength" : 130416,
            "byteOffset" : 391248
        },
        {
            "buffer" : 0,
            "byteLength" : 173832,
            "byteOffset" : 521664
        }
    ],
    "buffers" : [
        {
            "byteLength" : 695496,
            "uri" : "data:application/octet-stream;base64,"
        }
    ]
}
