{
    "asset" : {
        "generator" : "Khronos glTF Blender I/O v1.7.33",
        "version" : "2.0"
    },
    "scene" : 0,
    "scenes" : [
        {
            "name" : "Scene",
            "nodes" : [
                0
            ]
        }
    ],
    "nodes" : [
        {
            "mesh" : 0,
            "name" : "BezierCircle",
            "translation" : [
                0.14000004529953003,
                1.1239771842956543,
                0
            ]
        }
    ],
    "materials" : [
        {
            "doubleSided" : true,
            "name" : "besi hitam",
            "pbrMetallicRoughness" : {
                "baseColorFactor" : [
                    0,
                    0,
                    0,
                    1
                ],
                "roughnessFactor" : 0.3499999940395355
            }
        },
        {
            "doubleSided" : true,
            "name" : "gold new",
            "pbrMetallicRoughness" : {
                "baseColorFactor" : [
                    0,
                    0,
                    0,
                    1
                ],
                "roughnessFactor" : 0.10000000149011612
            }
        }
    ],
    "meshes" : [
        {
            "name" : "BezierCircle",
            "primitives" : [
                {
                    "attributes" : {
                        "POSITION" : 0,
                        "NORMAL" : 1,
                        "TEXCOORD_0" : 2
                    },
                    "indices" : 3,
                    "material" : 0
                },
                {
                    "attributes" : {
                        "POSITION" : 4,
                        "NORMAL" : 5,
                        "TEXCOORD_0" : 6
                    },
                    "indices" : 7,
                    "material" : 1
                }
            ]
        }
    ],
    "accessors" : [
        {
            "bufferView" : 0,
            "componentType" : 5126,
            "count" : 14205,
            "max" : [
                1.1409542560577393,
                1.0443007946014404,
                1.465199589729309
            ],
            "min" : [
                -1.4209542274475098,
                -1.1339771747589111,
                -1.465199589729309
            ],
            "type" : "VEC3"
        },
        {
            "bufferView" : 1,
            "componentType" : 5126,
            "count" : 14205,
            "type" : "VEC3"
        },
        {
            "bufferView" : 2,
            "componentType" : 5126,
            "count" : 14205,
            "type" : "VEC2"
        },
        {
            "bufferView" : 3,
            "componentType" : 5123,
            "count" : 76596,
            "type" : "SCALAR"
        },
        {
            "bufferView" : 4,
            "componentType" : 5126,
            "count" : 13448,
            "max" : [
                0.9955335259437561,
                1.0439963340759277,
                1.4258191585540771
            ],
            "min" : [
                -1.3250972032546997,
                -1.0439960956573486,
                -1.4258192777633667
            ],
            "type" : "VEC3"
        },
        {
            "bufferView" : 5,
            "componentType" : 5126,
            "count" : 13448,
            "type" : "VEC3"
        },
        {
            "bufferView" : 6,
            "componentType" : 5126,
            "count" : 13448,
            "type" : "VEC2"
        },
        {
            "bufferView" : 7,
            "componentType" : 5123,
            "count" : 73728,
            "type" : "SCALAR"
        }
    ],
    "bufferViews" : [
        {
            "buffer" : 0,
            "byteLength" : 170460,
            "byteOffset" : 0
        },
        {
            "buffer" : 0,
            "byteLength" : 170460,
            "byteOffset" : 170460
        },
        {
            "buffer" : 0,
            "byteLength" : 113640,
            "byteOffset" : 340920
        },
        {
            "buffer" : 0,
            "byteLength" : 153192,
            "byteOffset" : 454560
        },
        {
            "buffer" : 0,
            "byteLength" : 161376,
            "byteOffset" : 607752
        },
        {
            "buffer" : 0,
            "byteLength" : 161376,
            "byteOffset" : 769128
        },
        {
            "buffer" : 0,
            "byteLength" : 107584,
            "byteOffset" : 930504
        },
        {
            "buffer" : 0,
            "byteLength" : 147456,
            "byteOffset" : 1038088
        }
    ],
    "buffers" : [
        {
            "byteLength" : 1185544,
            "uri" : "data:application/octet-stream;base64,"
        }
    ]
}
