{
    "asset" : {
        "generator" : "Khronos glTF Blender I/O v1.7.33",
        "version" : "2.0"
    },
    "scene" : 0,
    "scenes" : [
        {
            "name" : "Scene",
            "nodes" : [
                0
            ]
        }
    ],
    "nodes" : [
        {
            "mesh" : 0,
            "name" : "Cylinder"
        }
    ],
    "materials" : [
        {
            "doubleSided" : true,
            "name" : "Material.001",
            "pbrMetallicRoughness" : {
                "baseColorFactor" : [
                    0,
                    0,
                    0,
                    1
                ],
                "metallicFactor" : 0.5,
                "roughnessFactor" : 0.5
            }
        }
    ],
    "meshes" : [
        {
            "name" : "Cylinder",
            "primitives" : [
                {
                    "attributes" : {
                        "POSITION" : 0,
                        "NORMAL" : 1,
                        "TEXCOORD_0" : 2
                    },
                    "indices" : 3,
                    "material" : 0
                }
            ]
        }
    ],
    "accessors" : [
        {
            "bufferView" : 0,
            "componentType" : 5126,
            "count" : 2854,
            "max" : [
                3.5399668216705322,
                2.2199997901916504,
                1.6399667263031006
            ],
            "min" : [
                -3.5399668216705322,
                1.668929883180681e-08,
                -1.6399667263031006
            ],
            "type" : "VEC3"
        },
        {
            "bufferView" : 1,
            "componentType" : 5126,
            "count" : 2854,
            "type" : "VEC3"
        },
        {
            "bufferView" : 2,
            "componentType" : 5126,
            "count" : 2854,
            "type" : "VEC2"
        },
        {
            "bufferView" : 3,
            "componentType" : 5123,
            "count" : 15504,
            "type" : "SCALAR"
        }
    ],
    "bufferViews" : [
        {
            "buffer" : 0,
            "byteLength" : 34248,
            "byteOffset" : 0
        },
        {
            "buffer" : 0,
            "byteLength" : 34248,
            "byteOffset" : 34248
        },
        {
            "buffer" : 0,
            "byteLength" : 22832,
            "byteOffset" : 68496
        },
        {
            "buffer" : 0,
            "byteLength" : 31008,
            "byteOffset" : 91328
        }
    ],
    "buffers" : [
        {
            "byteLength" : 122336,
            "uri" : "data:application/octet-stream;base64,"
        }
    ]
}
