{
    "asset" : {
        "generator" : "Khronos glTF Blender I/O v1.7.33",
        "version" : "2.0"
    },
    "scene" : 0,
    "scenes" : [
        {
            "name" : "Scene",
            "nodes" : [
                0
            ]
        }
    ],
    "nodes" : [
        {
            "mesh" : 0,
            "name" : "Cube.004",
            "translation" : [
                0,
                -0.012166337110102177,
                0
            ]
        }
    ],
    "materials" : [
        {
            "doubleSided" : true,
            "name" : "Material.005",
            "pbrMetallicRoughness" : {
                "baseColorFactor" : [
                    0,
                    0,
                    0,
                    1
                ],
                "metallicFactor" : 0,
                "roughnessFactor" : 0.5
            }
        }
    ],
    "meshes" : [
        {
            "name" : "Cube.004",
            "primitives" : [
                {
                    "attributes" : {
                        "POSITION" : 0,
                        "NORMAL" : 1,
                        "TEXCOORD_0" : 2
                    },
                    "indices" : 3,
                    "material" : 0
                }
            ]
        }
    ],
    "accessors" : [
        {
            "bufferView" : 0,
            "componentType" : 5126,
            "count" : 3120,
            "max" : [
                3.2911362648010254,
                2.216000556945801,
                1.5287647247314453
            ],
            "min" : [
                -3.2911362648010254,
                0.01235347893089056,
                -1.5287647247314453
            ],
            "type" : "VEC3"
        },
        {
            "bufferView" : 1,
            "componentType" : 5126,
            "count" : 3120,
            "type" : "VEC3"
        },
        {
            "bufferView" : 2,
            "componentType" : 5126,
            "count" : 3120,
            "type" : "VEC2"
        },
        {
            "bufferView" : 3,
            "componentType" : 5123,
            "count" : 13488,
            "type" : "SCALAR"
        }
    ],
    "bufferViews" : [
        {
            "buffer" : 0,
            "byteLength" : 37440,
            "byteOffset" : 0
        },
        {
            "buffer" : 0,
            "byteLength" : 37440,
            "byteOffset" : 37440
        },
        {
            "buffer" : 0,
            "byteLength" : 24960,
            "byteOffset" : 74880
        },
        {
            "buffer" : 0,
            "byteLength" : 26976,
            "byteOffset" : 99840
        }
    ],
    "buffers" : [
        {
            "byteLength" : 126816,
            "uri" : "data:application/octet-stream;base64,"
        }
    ]
}
