{
    "asset" : {
        "generator" : "Khronos glTF Blender I/O v1.7.33",
        "version" : "2.0"
    },
    "scene" : 0,
    "scenes" : [
        {
            "name" : "Scene",
            "nodes" : [
                0
            ]
        }
    ],
    "nodes" : [
        {
            "mesh" : 0,
            "name" : "Plane.022",
            "scale" : [
                1,
                0.3169664144515991,
                1
            ],
            "translation" : [
                0,
                0.007421622984111309,
                0
            ]
        }
    ],
    "materials" : [
        {
            "doubleSided" : true,
            "name" : "besi hitam",
            "pbrMetallicRoughness" : {
                "baseColorFactor" : [
                    0,
                    0,
                    0,
                    1
                ],
                "roughnessFactor" : 0.3499999940395355
            }
        }
    ],
    "meshes" : [
        {
            "name" : "Plane.025",
            "primitives" : [
                {
                    "attributes" : {
                        "POSITION" : 0,
                        "NORMAL" : 1,
                        "TEXCOORD_0" : 2
                    },
                    "indices" : 3,
                    "material" : 0
                }
            ]
        }
    ],
    "accessors" : [
        {
            "bufferView" : 0,
            "componentType" : 5126,
            "count" : 1316,
            "max" : [
                2.9967474937438965,
                2.387730360031128,
                1.1445064544677734
            ],
            "min" : [
                -2.9967474937438965,
                -0.010000023059546947,
                -1.1445064544677734
            ],
            "type" : "VEC3"
        },
        {
            "bufferView" : 1,
            "componentType" : 5126,
            "count" : 1316,
            "type" : "VEC3"
        },
        {
            "bufferView" : 2,
            "componentType" : 5126,
            "count" : 1316,
            "type" : "VEC2"
        },
        {
            "bufferView" : 3,
            "componentType" : 5123,
            "count" : 3360,
            "type" : "SCALAR"
        }
    ],
    "bufferViews" : [
        {
            "buffer" : 0,
            "byteLength" : 15792,
            "byteOffset" : 0
        },
        {
            "buffer" : 0,
            "byteLength" : 15792,
            "byteOffset" : 15792
        },
        {
            "buffer" : 0,
            "byteLength" : 10528,
            "byteOffset" : 31584
        },
        {
            "buffer" : 0,
            "byteLength" : 6720,
            "byteOffset" : 42112
        }
    ],
    "buffers" : [
        {
            "byteLength" : 48832,
            "uri" : "data:application/octet-stream;base64,"
        }
    ]
}
